<?xml version="1.0" encoding="UTF-8"?>
<svg id="Layer_2" data-name="Layer 2" xmlns="http://www.w3.org/2000/svg" xmlns:xlink="http://www.w3.org/1999/xlink" viewBox="0 0 612.07 230.67">
  <defs>
    <style>
      .cls-1 {
        letter-spacing: .06em;
      }

      .cls-2, .cls-3 {
        letter-spacing: -.04em;
      }

      .cls-2, .cls-4, .cls-5, .cls-6 {
        fill: #367588;
      }

      .cls-7 {
        letter-spacing: -.04em;
      }

      .cls-7, .cls-8, .cls-3, .cls-9, .cls-10 {
        fill: #7caf4f;
      }

      .cls-11 {
        letter-spacing: -.02em;
      }

      .cls-12 {
        letter-spacing: .06em;
      }

      .cls-13 {
        fill: none;
      }

      .cls-14 {
        clip-path: url(#clippath-1);
      }

      .cls-15 {
        font-family: Literata-Bold, Literata;
        font-size: 81.26px;
        font-variation-settings: 'opsz' 12, 'wght' 700;
        font-weight: 700;
      }

      .cls-16 {
        letter-spacing: .05em;
      }

      .cls-5 {
        letter-spacing: -.05em;
      }

      .cls-17 {
        letter-spacing: .06em;
      }

      .cls-9 {
        letter-spacing: -.04em;
      }

      .cls-6 {
        letter-spacing: -.05em;
      }

      .cls-18 {
        fill: url(#linear-gradient);
      }

      .cls-19 {
        clip-path: url(#clippath);
      }

      .cls-10 {
        letter-spacing: -.04em;
      }

      .cls-20 {
        letter-spacing: .06em;
      }
    </style>
    <linearGradient id="linear-gradient" x1="-977.62" y1="67.39" x2="-977.57" y2="67.39" gradientTransform="translate(-973.08) rotate(-180) scale(1 -1)" gradientUnits="userSpaceOnUse">
      <stop offset="0" stop-color="#adaf2a"/>
      <stop offset="1" stop-color="#7caf2a"/>
    </linearGradient>
    <clipPath id="clippath">
      <rect class="cls-13" x="14.94" y="49.18" width="64.42" height="55.53" transform="translate(-8.16 5.64) rotate(-6.3)"/>
    </clipPath>
    <clipPath id="clippath-1">
      <rect class="cls-13" x="14.94" y="49.18" width="64.42" height="55.53" transform="translate(-8.16 5.64) rotate(-6.3)"/>
    </clipPath>
  </defs>
  <g id="OBJECTS">
    <text class="cls-15" transform="translate(205.77 70.18)"><tspan class="cls-6" x="0" y="0">Co</tspan><tspan class="cls-5" x="100.6" y="0">r</tspan><tspan class="cls-2" x="140.5" y="0">e </tspan><tspan class="cls-10" x="196.57" y="0">M</tspan><tspan class="cls-3" x="273.28" y="0">i</tspan><tspan class="cls-9" x="299.85" y="0">n</tspan><tspan class="cls-7" x="352.83" y="0">d</tspan><tspan class="cls-4"><tspan class="cls-11" x="0" y="78.55">W</tspan><tspan class="cls-16" x="88.49" y="78.55">e</tspan><tspan class="cls-12" x="138.79" y="78.55">l</tspan><tspan class="cls-1" x="173.08" y="78.55">l</tspan><tspan class="cls-17" x="207.21" y="78.55">n</tspan><tspan class="cls-16" x="268.16" y="78.55">e</tspan><tspan class="cls-20" x="318.46" y="78.55">ss</tspan></tspan></text>
    <g>
      <g>
        <path class="cls-4" d="M73.29,167.16c20.69-26.07,48.78-50.19,27.97-93.46-5.87-12.2-15.94-22.02-28.44-27.22-25.4-10.56-50.14-4.79-66.94,9.85,3.57-12.21,10.17-23.73,19.81-33.37,30.63-30.63,80.29-30.63,110.92,0,.01.01.02.02.03.03,12.02,10.05,22.45,32.32,20.09,47.31-2.77,17.57-.69,27.53,9.41,38.46,10.1,10.93,11.34,15.77,2.63,18.12-8.72,2.35-9.27,8.02-8.16,9.96,1.44,2.52,3.8,5.18,3.74,7.96-.1,4.09-5.74,1.97-7.61,2.84-.9.42,3.18.55,4.84,5.26,1.66,4.7-11.07,6.78-8.85,10.38,2.21,3.6,7.06,24.77-12.18,19.65-19.23-5.12-30.6-3.74-41.78,6.64-7.75,7.19-12.08,20.34.09,41.09,0,0-50.59-31.96-25.55-63.51Z"/>
        <g>
          <path class="cls-18" d="M4.54,67.33s-.02.05-.04.12c.03-.08.04-.12.04-.12Z"/>
          <path class="cls-8" d="M21.44,126.78C-5.77,99.87,4.37,70.88,5.13,68.85c.03-.07.04-.12.04-.12-.01,20.11,17.75,34.81,35.03,51.6,22.9,22.24,26.76,51.56,15.67,74.86,4.38-31.54-9.19-43.45-34.43-68.41Z"/>
          <path class="cls-8" d="M5.13,68.85c-.76,2.04-10.89,31.02,16.32,57.93,25.24,24.96,38.81,36.88,34.43,68.41,0,0,1.08-14.93-5.81-27.81-9.45-17.64-37.27-26.04-46.94-51.46-7.76-20.42,1.32-45.25,2.01-47.08Z"/>
        </g>
      </g>
      <g>
        <path class="cls-8" d="M88.52,62.1c16.09,20.13,32,67.66-21.37,100.92,43.16-64.74,21.37-100.92,21.37-100.92Z"/>
        <path class="cls-8" d="M88.52,62.1s21.79,36.19-21.37,100.92c0,0-7.28-27.32,11.69-57.58,15.52-24.76,9.68-43.34,9.68-43.34Z"/>
      </g>
    </g>
    <g>
      <g class="cls-19">
        <path class="cls-8" d="M38.3,83.61c4.26-2.3,7.73,3.13,11.94,1.16,2.65-1.23,6.2-6.1,8.37-5.78,4.16.58,7.33,3.48,11.54,3.08,9.89-.95,7.27-14.43,2.06-20.64-2.96-3.53-5.62-5.52-10.57-5.82-3.97-.31-5.97,6.34-5.97,6.34-1.82-4.46-5.28-8.26-9.26-7.78-4.05.49-9.83,3.74-9.24,9.13,0,0-4.25-3.72-7.28-1.36-4.03,3.14,1.48,9.72,1.48,9.72-5-3.02-9.68.24-10.51,6.43-.86,6.42,2.76,15.17,9.96,12.55,6.37-2.32,5.53-5.99,7.46-7.03h0Z"/>
        <path d="M30.87,93.85c-5.52-.2-10.21-2.95-12.66-7.95-1.99-4.06-2.47-9.57.9-13.05,2.17-2.24,5.44-2.14,8.1-.91,2.44,1.13,5.65,4.85,3.45,7.47-1.02,1.21-3.42-.96-4.11-1.64-1.16-1.15-1.98-2.64-2.52-4.16-1.09-3.03-.67-6.44.74-9.28,1.37-2.77,3.78-4.8,6.89-5.12,2.77-.29,5.54.86,7.48,2.8,1.82,1.82,2.73,4.66,1.38,7.03-.76,1.33-2.68-1.77-2.97-2.27-.75-1.32-1.27-2.81-1.52-4.31-1.01-5.94,6.29-10.96,11.66-9.62,1.77.44,3.4,1.42,4.93,2.37,1.56.97,3.02,2.04,4.09,3.56,1.78,2.54,1.27,5.97-.79,8.2-2.02,2.19-3.13-4.63-3.19-5.6-.2-3.25,1.47-6.2,4.55-7.36,2.56-.96,5.69-.18,8.16.68,2.74.95,5.26,2.52,7.31,4.56,2.32,2.3,3.48,5.14,4.13,8.28.55,2.67.83,5.45.46,8.16-.46,3.37-2.33,6.31-5.7,7.29-2.77.8-5.85.46-8.61-.25-1.07-.28-2.12-.63-3.13-1.09-1.36-.63-2.62-1.39-3.63-2.51-1.01-1.13-2.03-3.12-1.28-4.61.77-1.53,2.98.42,3.52,1.19.72,1.03.71,2.32.42,3.49-.62,2.53-2.72,4.76-4.72,6.31-2.65,2.07-6.6,2.96-9.89,3.18-3.68.25-7.31-.79-9.83-3.53-1.07-1.16-2.66-4.27-.49-5.28,1.64-.77,3.8.66,4.89,1.76.28.28,1.37-.1,1.35-.53-.06-1.37-.27-2.73-.18-4.1.16-2.32,2.08-3.78,4.23-2.56,3.14,1.79,2.54,5.97,1.46,8.76-1.09,2.8-2.61,5.36-2.9,8.41-.26,2.8.89,6.16,3.5,7.51,2.19,1.13,5.39.25,7.28-1.1.93-.66,1.58-1.59,2.21-2.52.32-.48.65-1.01,1.16-1.32.63-.39,1.73.17,2.35.41,2.27.86,5.08,2.26,6.1,4.61.56,1.29-.17,3.67-1.79,2.35-1.47-1.2-.87-3.51.56-4.4,2.25-1.4,5.47,1.28,7.58,2.01,2.17.75,4.24-.01,5.28-2.07.3-.59-1.14-.28-1.35.13-.68,1.35-1.46,1.56-2.85,1.13-1.16-.36-2.24-.98-3.33-1.5-2.06-.98-3.88-1.32-5.96-.21-2.08,1.11-3,3.79-1.21,5.62,1.38,1.4,3.92.42,4.49-1.29.83-2.51-1.28-4.38-3.21-5.6-1.63-1.03-4.21-2.51-6.21-2.07-2.49.55-2.9,3.24-4.86,4.5-1.42.91-3.23,1.17-4.83.65-1.73-.57-2.68-2.53-3.17-4.14-1.96-6.56,5.99-12.35,2.75-18.69-1.26-2.47-4.24-3.2-6.55-1.82-2.8,1.67-2.08,4.94-1.96,7.66.45-.18.9-.35,1.35-.53-1.58-1.58-3.81-2.5-6.02-1.88-2.27.64-3.12,2.86-2.22,4.96,1.14,2.67,3.94,4.32,6.61,5.05,3.41.93,7.04.54,10.39-.42,4.71-1.35,9.58-4.31,11.23-9.24.75-2.25.23-4.49-1.88-5.77-1.59-.97-3.92-.46-4.78,1.24-1.19,2.37,1.44,5.31,3.24,6.5,1.26.84,2.71,1.44,4.15,1.9,2.66.84,5.53,1.23,8.32.95,2.92-.29,5.86-1.53,7.62-3.96,2.59-3.56,2.26-8.4,1.54-12.5-.54-3.05-1.5-5.75-3.47-8.17-1.76-2.17-4.13-3.77-6.64-4.96-4.41-2.09-10.11-2.97-14.17.32-2.1,1.7-3.02,4.34-2.85,6.99.12,1.95.41,4.76,2.14,5.98,1.77,1.25,3.79-.8,4.62-2.18,1.45-2.42,1.54-5.1.03-7.51-1.66-2.63-4.97-4.41-7.74-5.63-2.55-1.13-5.07-1.02-7.67-.17-4.6,1.5-8.92,5.7-8.04,10.88.4,2.37,1.7,5.61,3.96,6.77,1.79.92,3.32-.92,3.74-2.44,1.42-5.13-4.08-8.94-8.56-9.31-5.35-.43-9.65,3.36-11.26,8.24-.92,2.81-.7,5.93.47,8.62,1,2.3,3.05,4.76,5.6,5.33,2.22.49,4.27-1.41,4.2-3.62-.08-2.5-2.48-4.73-4.54-5.77-4.54-2.3-10.09-.24-12.19,4.32-1.77,3.85-.7,8.62,1.33,12.15,2.65,4.59,7.45,6.93,12.64,7.12.45.02,1.63-.84.8-.87h0Z"/>
      </g>
      <path class="cls-8" d="M20.41,67.39c.15,1.33-.78,2.53-2.08,2.67s-2.46-.82-2.61-2.15.78-2.53,2.08-2.67,2.46.82,2.61,2.15h0Z"/>
      <path class="cls-8" d="M35.17,55.41c.1.87-.48,1.64-1.29,1.73-.81.09-1.54-.54-1.63-1.41s.48-1.64,1.29-1.73c.81-.09,1.54.54,1.63,1.41h0Z"/>
      <path class="cls-8" d="M56.29,50.06c.12,1.1-.72,2.09-1.87,2.22s-2.19-.66-2.31-1.76.72-2.09,1.88-2.22,2.19.66,2.31,1.76h0Z"/>
      <path class="cls-8" d="M64.18,87.2c.08.74-.15,1.48-.64,2.07s-1.2.96-1.97,1.05c-1.61.18-3.06-.93-3.23-2.47-.17-1.54,1-2.94,2.61-3.12,1.61-.18,3.06.93,3.23,2.47h0Z"/>
      <path class="cls-8" d="M51.1,92.01c.14,1.26-.74,2.39-1.97,2.53-1.23.14-2.33-.78-2.47-2.04s.74-2.39,1.97-2.53,2.33.78,2.47,2.04h0Z"/>
      <path class="cls-8" d="M38.03,91.78c.1.91-.61,1.74-1.59,1.85s-1.86-.54-1.96-1.45.61-1.74,1.59-1.85c.98-.11,1.86.54,1.96,1.45h0Z"/>
    </g>
    <g>
      <g>
        <path class="cls-4" d="M73.29,167.16c20.69-26.07,48.78-50.19,27.97-93.46-5.87-12.2-15.94-22.02-28.44-27.22-25.4-10.56-50.14-4.79-66.94,9.85,3.57-12.21,10.17-23.73,19.81-33.37,30.63-30.63,80.29-30.63,110.92,0,.01.01.02.02.03.03,12.02,10.05,22.45,32.32,20.09,47.31-2.77,17.57-.69,27.53,9.41,38.46,10.1,10.93,11.34,15.77,2.63,18.12-8.72,2.35-9.27,8.02-8.16,9.96,1.44,2.52,3.8,5.18,3.74,7.96-.1,4.09-5.74,1.97-7.61,2.84-.9.42,3.18.55,4.84,5.26,1.66,4.7-11.07,6.78-8.85,10.38,2.21,3.6,7.06,24.77-12.18,19.65-19.23-5.12-30.6-3.74-41.78,6.64-7.75,7.19-12.08,20.34.09,41.09,0,0-50.59-31.96-25.55-63.51Z"/>
        <g>
          <path class="cls-18" d="M4.54,67.33s-.02.05-.04.12c.03-.08.04-.12.04-.12Z"/>
          <path class="cls-8" d="M21.44,126.78C-5.77,99.87,4.37,70.88,5.13,68.85c.03-.07.04-.12.04-.12-.01,20.11,17.75,34.81,35.03,51.6,22.9,22.24,26.76,51.56,15.67,74.86,4.38-31.54-9.19-43.45-34.43-68.41Z"/>
          <path class="cls-8" d="M5.13,68.85c-.76,2.04-10.89,31.02,16.32,57.93,25.24,24.96,38.81,36.88,34.43,68.41,0,0,1.08-14.93-5.81-27.81-9.45-17.64-37.27-26.04-46.94-51.46-7.76-20.42,1.32-45.25,2.01-47.08Z"/>
        </g>
      </g>
      <g>
        <path class="cls-8" d="M88.52,62.1c16.09,20.13,32,67.66-21.37,100.92,43.16-64.74,21.37-100.92,21.37-100.92Z"/>
        <path class="cls-8" d="M88.52,62.1s21.79,36.19-21.37,100.92c0,0-7.28-27.32,11.69-57.58,15.52-24.76,9.68-43.34,9.68-43.34Z"/>
      </g>
    </g>
    <g>
      <g class="cls-14">
        <path class="cls-8" d="M38.3,83.61c4.26-2.3,7.73,3.13,11.94,1.16,2.65-1.23,6.2-6.1,8.37-5.78,4.16.58,7.33,3.48,11.54,3.08,9.89-.95,7.27-14.43,2.06-20.64-2.96-3.53-5.62-5.52-10.57-5.82-3.97-.31-5.97,6.34-5.97,6.34-1.82-4.46-5.28-8.26-9.26-7.78-4.05.49-9.83,3.74-9.24,9.13,0,0-4.25-3.72-7.28-1.36-4.03,3.14,1.48,9.72,1.48,9.72-5-3.02-9.68.24-10.51,6.43-.86,6.42,2.76,15.17,9.96,12.55,6.37-2.32,5.53-5.99,7.46-7.03h0Z"/>
        <path d="M30.87,93.85c-5.52-.2-10.21-2.95-12.66-7.95-1.99-4.06-2.47-9.57.9-13.05,2.17-2.24,5.44-2.14,8.1-.91,2.44,1.13,5.65,4.85,3.45,7.47-1.02,1.21-3.42-.96-4.11-1.64-1.16-1.15-1.98-2.64-2.52-4.16-1.09-3.03-.67-6.44.74-9.28,1.37-2.77,3.78-4.8,6.89-5.12,2.77-.29,5.54.86,7.48,2.8,1.82,1.82,2.73,4.66,1.38,7.03-.76,1.33-2.68-1.77-2.97-2.27-.75-1.32-1.27-2.81-1.52-4.31-1.01-5.94,6.29-10.96,11.66-9.62,1.77.44,3.4,1.42,4.93,2.37,1.56.97,3.02,2.04,4.09,3.56,1.78,2.54,1.27,5.97-.79,8.2-2.02,2.19-3.13-4.63-3.19-5.6-.2-3.25,1.47-6.2,4.55-7.36,2.56-.96,5.69-.18,8.16.68,2.74.95,5.26,2.52,7.31,4.56,2.32,2.3,3.48,5.14,4.13,8.28.55,2.67.83,5.45.46,8.16-.46,3.37-2.33,6.31-5.7,7.29-2.77.8-5.85.46-8.61-.25-1.07-.28-2.12-.63-3.13-1.09-1.36-.63-2.62-1.39-3.63-2.51-1.01-1.13-2.03-3.12-1.28-4.61.77-1.53,2.98.42,3.52,1.19.72,1.03.71,2.32.42,3.49-.62,2.53-2.72,4.76-4.72,6.31-2.65,2.07-6.6,2.96-9.89,3.18-3.68.25-7.31-.79-9.83-3.53-1.07-1.16-2.66-4.27-.49-5.28,1.64-.77,3.8.66,4.89,1.76.28.28,1.37-.1,1.35-.53-.06-1.37-.27-2.73-.18-4.1.16-2.32,2.08-3.78,4.23-2.56,3.14,1.79,2.54,5.97,1.46,8.76-1.09,2.8-2.61,5.36-2.9,8.41-.26,2.8.89,6.16,3.5,7.51,2.19,1.13,5.39.25,7.28-1.1.93-.66,1.58-1.59,2.21-2.52.32-.48.65-1.01,1.16-1.32.63-.39,1.73.17,2.35.41,2.27.86,5.08,2.26,6.1,4.61.56,1.29-.17,3.67-1.79,2.35-1.47-1.2-.87-3.51.56-4.4,2.25-1.4,5.47,1.28,7.58,2.01,2.17.75,4.24-.01,5.28-2.07.3-.59-1.14-.28-1.35.13-.68,1.35-1.46,1.56-2.85,1.13-1.16-.36-2.24-.98-3.33-1.5-2.06-.98-3.88-1.32-5.96-.21-2.08,1.11-3,3.79-1.21,5.62,1.38,1.4,3.92.42,4.49-1.29.83-2.51-1.28-4.38-3.21-5.6-1.63-1.03-4.21-2.51-6.21-2.07-2.49.55-2.9,3.24-4.86,4.5-1.42.91-3.23,1.17-4.83.65-1.73-.57-2.68-2.53-3.17-4.14-1.96-6.56,5.99-12.35,2.75-18.69-1.26-2.47-4.24-3.2-6.55-1.82-2.8,1.67-2.08,4.94-1.96,7.66.45-.18.9-.35,1.35-.53-1.58-1.58-3.81-2.5-6.02-1.88-2.27.64-3.12,2.86-2.22,4.96,1.14,2.67,3.94,4.32,6.61,5.05,3.41.93,7.04.54,10.39-.42,4.71-1.35,9.58-4.31,11.23-9.24.75-2.25.23-4.49-1.88-5.77-1.59-.97-3.92-.46-4.78,1.24-1.19,2.37,1.44,5.31,3.24,6.5,1.26.84,2.71,1.44,4.15,1.9,2.66.84,5.53,1.23,8.32.95,2.92-.29,5.86-1.53,7.62-3.96,2.59-3.56,2.26-8.4,1.54-12.5-.54-3.05-1.5-5.75-3.47-8.17-1.76-2.17-4.13-3.77-6.64-4.96-4.41-2.09-10.11-2.97-14.17.32-2.1,1.7-3.02,4.34-2.85,6.99.12,1.95.41,4.76,2.14,5.98,1.77,1.25,3.79-.8,4.62-2.18,1.45-2.42,1.54-5.1.03-7.51-1.66-2.63-4.97-4.41-7.74-5.63-2.55-1.13-5.07-1.02-7.67-.17-4.6,1.5-8.92,5.7-8.04,10.88.4,2.37,1.7,5.61,3.96,6.77,1.79.92,3.32-.92,3.74-2.44,1.42-5.13-4.08-8.94-8.56-9.31-5.35-.43-9.65,3.36-11.26,8.24-.92,2.81-.7,5.93.47,8.62,1,2.3,3.05,4.76,5.6,5.33,2.22.49,4.27-1.41,4.2-3.62-.08-2.5-2.48-4.73-4.54-5.77-4.54-2.3-10.09-.24-12.19,4.32-1.77,3.85-.7,8.62,1.33,12.15,2.65,4.59,7.45,6.93,12.64,7.12.45.02,1.63-.84.8-.87h0Z"/>
      </g>
      <path class="cls-8" d="M20.41,67.39c.15,1.33-.78,2.53-2.08,2.67s-2.46-.82-2.61-2.15.78-2.53,2.08-2.67,2.46.82,2.61,2.15h0Z"/>
      <path class="cls-8" d="M35.17,55.41c.1.87-.48,1.64-1.29,1.73-.81.09-1.54-.54-1.63-1.41s.48-1.64,1.29-1.73c.81-.09,1.54.54,1.63,1.41h0Z"/>
      <path class="cls-8" d="M56.29,50.06c.12,1.1-.72,2.09-1.87,2.22s-2.19-.66-2.31-1.76.72-2.09,1.88-2.22,2.19.66,2.31,1.76h0Z"/>
      <path class="cls-8" d="M64.18,87.2c.08.74-.15,1.48-.64,2.07s-1.2.96-1.97,1.05c-1.61.18-3.06-.93-3.23-2.47-.17-1.54,1-2.94,2.61-3.12,1.61-.18,3.06.93,3.23,2.47h0Z"/>
      <path class="cls-8" d="M51.1,92.01c.14,1.26-.74,2.39-1.97,2.53-1.23.14-2.33-.78-2.47-2.04s.74-2.39,1.97-2.53,2.33.78,2.47,2.04h0Z"/>
      <path class="cls-8" d="M38.03,91.78c.1.91-.61,1.74-1.59,1.85s-1.86-.54-1.96-1.45.61-1.74,1.59-1.85c.98-.11,1.86.54,1.96,1.45h0Z"/>
    </g>
    <g>
      <path d="M229.86,183.54v8.38h-2.82v-21.4h7.89c2.34,0,4.18.6,5.5,1.79,1.33,1.2,1.99,2.78,1.99,4.75,0,2.08-.65,3.68-1.95,4.8-1.3,1.12-3.16,1.68-5.58,1.68h-5.04ZM229.86,181.23h5.07c1.51,0,2.67-.36,3.47-1.07.8-.71,1.21-1.74,1.21-3.08s-.4-2.3-1.21-3.06c-.8-.77-1.91-1.16-3.31-1.19h-5.23v8.41Z"/>
      <path d="M254.53,187.7c0-.73-.28-1.31-.83-1.71s-1.52-.76-2.9-1.05c-1.38-.29-2.47-.65-3.28-1.06-.81-.41-1.41-.9-1.79-1.47-.39-.57-.58-1.24-.58-2.03,0-1.3.55-2.41,1.65-3.31,1.1-.9,2.51-1.35,4.23-1.35,1.8,0,3.26.46,4.39,1.4,1.12.93,1.68,2.12,1.68,3.57h-2.73c0-.74-.32-1.39-.95-1.92s-1.43-.81-2.39-.81-1.76.22-2.32.65c-.56.43-.84,1-.84,1.69,0,.66.26,1.15.78,1.48.52.33,1.46.65,2.81.96,1.36.3,2.46.67,3.3,1.09.84.42,1.47.93,1.87,1.52.41.59.61,1.32.61,2.17,0,1.42-.57,2.56-1.71,3.42-1.14.86-2.61,1.29-4.42,1.29-1.27,0-2.4-.23-3.38-.68-.98-.45-1.75-1.08-2.3-1.89-.55-.81-.83-1.68-.83-2.62h2.72c.05.91.41,1.63,1.1,2.17.68.53,1.58.8,2.7.8,1.03,0,1.85-.21,2.48-.62.62-.42.93-.97.93-1.67Z"/>
      <path d="M265.66,187.93l3.7-11.92h2.91l-6.39,18.35c-.99,2.65-2.56,3.97-4.72,3.97l-.51-.04-1.01-.19v-2.2l.73.06c.92,0,1.64-.19,2.15-.56.51-.37.94-1.05,1.27-2.04l.6-1.62-5.67-15.72h2.97l3.97,11.92Z"/>
      <path d="M280.74,189.99c.97,0,1.82-.29,2.54-.88.72-.59,1.13-1.32,1.21-2.2h2.57c-.05.91-.36,1.78-.94,2.6s-1.35,1.48-2.31,1.97c-.96.49-1.99.73-3.06.73-2.17,0-3.89-.72-5.17-2.17-1.28-1.44-1.92-3.42-1.92-5.93v-.46c0-1.55.28-2.92.85-4.13s1.38-2.14,2.45-2.81c1.06-.67,2.32-1,3.77-1,1.78,0,3.26.53,4.45,1.6,1.18,1.07,1.81,2.45,1.89,4.16h-2.57c-.08-1.03-.47-1.87-1.17-2.54-.7-.66-1.57-.99-2.59-.99-1.38,0-2.45.5-3.21,1.49-.76.99-1.14,2.43-1.14,4.31v.51c0,1.83.38,3.24,1.13,4.23.75.99,1.83,1.48,3.23,1.48Z"/>
      <path d="M292.51,177.94c1.21-1.48,2.77-2.22,4.7-2.22,3.36,0,5.06,1.9,5.08,5.69v10.51h-2.72v-10.52c0-1.15-.27-1.99-.79-2.54-.51-.55-1.32-.82-2.4-.82-.88,0-1.66.24-2.32.71-.67.47-1.19,1.09-1.56,1.85v11.33h-2.72v-22.57h2.72v8.6Z"/>
      <path d="M305.31,183.82c0-1.56.31-2.96.92-4.2s1.46-2.21,2.56-2.88c1.09-.68,2.34-1.01,3.74-1.01,2.17,0,3.92.75,5.25,2.25,1.34,1.5,2.01,3.49,2.01,5.98v.19c0,1.55-.3,2.94-.89,4.17s-1.44,2.19-2.54,2.87c-1.1.69-2.37,1.03-3.8,1.03-2.16,0-3.9-.75-5.24-2.25-1.34-1.5-2.01-3.48-2.01-5.95v-.19ZM308.05,184.14c0,1.76.41,3.18,1.23,4.25.82,1.07,1.91,1.6,3.28,1.6s2.48-.54,3.29-1.62c.81-1.08,1.22-2.6,1.22-4.55,0-1.74-.41-3.16-1.24-4.24-.83-1.08-1.93-1.62-3.3-1.62s-2.42.53-3.25,1.6c-.82,1.07-1.23,2.6-1.23,4.59Z"/>
      <path d="M325.82,191.91h-2.72v-22.57h2.72v22.57Z"/>
      <path d="M329.12,183.82c0-1.56.31-2.96.92-4.2s1.46-2.21,2.56-2.88c1.09-.68,2.34-1.01,3.74-1.01,2.17,0,3.92.75,5.25,2.25,1.34,1.5,2.01,3.49,2.01,5.98v.19c0,1.55-.3,2.94-.89,4.17s-1.44,2.19-2.54,2.87c-1.1.69-2.37,1.03-3.8,1.03-2.16,0-3.9-.75-5.24-2.25-1.34-1.5-2.01-3.48-2.01-5.95v-.19ZM331.85,184.14c0,1.76.41,3.18,1.23,4.25.82,1.07,1.91,1.6,3.28,1.6s2.48-.54,3.29-1.62c.81-1.08,1.22-2.6,1.22-4.55,0-1.74-.41-3.16-1.24-4.24-.83-1.08-1.93-1.62-3.3-1.62s-2.42.53-3.25,1.6c-.82,1.07-1.23,2.6-1.23,4.59Z"/>
      <path d="M346.03,183.83c0-2.48.57-4.45,1.72-5.91,1.15-1.46,2.67-2.2,4.56-2.2s3.45.69,4.54,2.06l.13-1.76h2.48v15.52c0,2.06-.61,3.68-1.83,4.86-1.22,1.18-2.86,1.78-4.92,1.78-1.15,0-2.27-.25-3.37-.74-1.1-.49-1.94-1.16-2.51-2.01l1.41-1.63c1.17,1.44,2.59,2.16,4.28,2.16,1.32,0,2.35-.37,3.09-1.12.74-.75,1.11-1.79,1.11-3.15v-1.37c-1.09,1.25-2.57,1.88-4.45,1.88s-3.37-.75-4.52-2.25c-1.15-1.5-1.73-3.54-1.73-6.13ZM348.76,184.14c0,1.79.37,3.2,1.1,4.22.74,1.02,1.76,1.54,3.09,1.54,1.71,0,2.97-.78,3.78-2.34v-7.26c-.83-1.52-2.08-2.28-3.75-2.28-1.32,0-2.36.51-3.1,1.54-.74,1.03-1.12,2.55-1.12,4.57Z"/>
      <path d="M363.24,171.8c0-.44.13-.81.4-1.12.27-.3.67-.46,1.2-.46s.93.15,1.21.46c.27.3.41.68.41,1.12s-.14.81-.41,1.1-.68.44-1.21.44-.93-.15-1.2-.44c-.27-.29-.4-.66-.4-1.1ZM366.18,191.91h-2.72v-15.9h2.72v15.9Z"/>
      <path d="M376.58,189.99c.97,0,1.82-.29,2.54-.88.72-.59,1.13-1.32,1.21-2.2h2.57c-.05.91-.36,1.78-.94,2.6s-1.35,1.48-2.31,1.97c-.96.49-1.99.73-3.06.73-2.17,0-3.89-.72-5.17-2.17-1.28-1.44-1.92-3.42-1.92-5.93v-.46c0-1.55.28-2.92.85-4.13s1.38-2.14,2.45-2.81c1.06-.67,2.32-1,3.77-1,1.78,0,3.26.53,4.45,1.6,1.18,1.07,1.81,2.45,1.89,4.16h-2.57c-.08-1.03-.47-1.87-1.17-2.54-.7-.66-1.57-.99-2.59-.99-1.38,0-2.45.5-3.21,1.49-.76.99-1.14,2.43-1.14,4.31v.51c0,1.83.38,3.24,1.13,4.23.75.99,1.83,1.48,3.23,1.48Z"/>
      <path d="M395.44,191.91c-.16-.31-.28-.87-.38-1.67-1.26,1.31-2.77,1.97-4.53,1.97-1.57,0-2.85-.44-3.86-1.33-1-.89-1.51-2.01-1.51-3.37,0-1.66.63-2.94,1.89-3.86,1.26-.92,3.03-1.37,5.31-1.37h2.65v-1.25c0-.95-.29-1.71-.85-2.27-.57-.56-1.41-.84-2.51-.84-.97,0-1.78.25-2.44.73-.66.49-.99,1.08-.99,1.78h-2.73c0-.79.28-1.56.85-2.3.56-.74,1.33-1.32,2.29-1.76.96-.43,2.03-.65,3.18-.65,1.83,0,3.27.46,4.31,1.37s1.58,2.18,1.62,3.78v7.32c0,1.46.19,2.62.56,3.48v.24h-2.85ZM390.93,189.84c.85,0,1.66-.22,2.42-.66.76-.44,1.32-1.01,1.66-1.72v-3.26h-2.13c-3.33,0-5,.97-5,2.92,0,.85.28,1.52.85,2,.57.48,1.3.72,2.19.72Z"/>
      <path d="M404.62,191.91h-2.72v-22.57h2.72v22.57Z"/>
      <path d="M428,186.32h-8.96l-2.01,5.6h-2.91l8.17-21.4h2.47l8.19,21.4h-2.89l-2.04-5.6ZM419.88,184.01h7.27l-3.64-10.01-3.63,10.01Z"/>
      <path d="M444.31,187.7c0-.73-.28-1.31-.83-1.71s-1.52-.76-2.9-1.05c-1.38-.29-2.47-.65-3.28-1.06-.81-.41-1.41-.9-1.79-1.47-.39-.57-.58-1.24-.58-2.03,0-1.3.55-2.41,1.65-3.31,1.1-.9,2.51-1.35,4.23-1.35,1.8,0,3.26.46,4.39,1.4,1.12.93,1.68,2.12,1.68,3.57h-2.73c0-.74-.32-1.39-.95-1.92s-1.43-.81-2.39-.81-1.76.22-2.32.65c-.56.43-.84,1-.84,1.69,0,.66.26,1.15.78,1.48.52.33,1.46.65,2.81.96,1.36.3,2.46.67,3.3,1.09.84.42,1.47.93,1.87,1.52.41.59.61,1.32.61,2.17,0,1.42-.57,2.56-1.71,3.42-1.14.86-2.61,1.29-4.42,1.29-1.27,0-2.4-.23-3.38-.68-.98-.45-1.75-1.08-2.3-1.89-.55-.81-.83-1.68-.83-2.62h2.72c.05.91.41,1.63,1.1,2.17.68.53,1.58.8,2.7.8,1.03,0,1.85-.21,2.48-.62.62-.42.93-.97.93-1.67Z"/>
      <path d="M459.5,187.7c0-.73-.28-1.31-.83-1.71s-1.52-.76-2.9-1.05c-1.38-.29-2.47-.65-3.28-1.06-.81-.41-1.41-.9-1.79-1.47-.39-.57-.58-1.24-.58-2.03,0-1.3.55-2.41,1.65-3.31,1.1-.9,2.51-1.35,4.23-1.35,1.8,0,3.26.46,4.39,1.4,1.12.93,1.68,2.12,1.68,3.57h-2.73c0-.74-.32-1.39-.95-1.92s-1.43-.81-2.39-.81-1.76.22-2.32.65c-.56.43-.84,1-.84,1.69,0,.66.26,1.15.78,1.48.52.33,1.46.65,2.81.96,1.36.3,2.46.67,3.3,1.09.84.42,1.47.93,1.87,1.52.41.59.61,1.32.61,2.17,0,1.42-.57,2.56-1.71,3.42-1.14.86-2.61,1.29-4.42,1.29-1.27,0-2.4-.23-3.38-.68-.98-.45-1.75-1.08-2.3-1.89-.55-.81-.83-1.68-.83-2.62h2.72c.05.91.41,1.63,1.1,2.17.68.53,1.58.8,2.7.8,1.03,0,1.85-.21,2.48-.62.62-.42.93-.97.93-1.67Z"/>
      <path d="M472.03,192.21c-2.16,0-3.91-.71-5.26-2.12-1.35-1.42-2.03-3.31-2.03-5.68v-.5c0-1.58.3-2.99.9-4.23.6-1.24,1.45-2.21,2.53-2.91,1.08-.7,2.26-1.05,3.52-1.05,2.07,0,3.67.68,4.82,2.04,1.15,1.36,1.72,3.31,1.72,5.85v1.13h-10.77c.04,1.57.5,2.83,1.37,3.8.88.97,1.99,1.45,3.34,1.45.96,0,1.77-.2,2.44-.59s1.25-.91,1.75-1.56l1.66,1.29c-1.33,2.05-3.33,3.07-6,3.07ZM471.69,177.95c-1.1,0-2.02.4-2.76,1.2-.74.8-1.21,1.92-1.38,3.36h7.96v-.21c-.08-1.38-.45-2.45-1.12-3.21-.67-.76-1.57-1.14-2.7-1.14Z"/>
      <path d="M490.3,187.7c0-.73-.28-1.31-.83-1.71s-1.52-.76-2.9-1.05c-1.38-.29-2.47-.65-3.28-1.06-.81-.41-1.41-.9-1.79-1.47-.39-.57-.58-1.24-.58-2.03,0-1.3.55-2.41,1.65-3.31,1.1-.9,2.51-1.35,4.23-1.35,1.8,0,3.26.46,4.39,1.4,1.12.93,1.68,2.12,1.68,3.57h-2.73c0-.74-.32-1.39-.95-1.92s-1.43-.81-2.39-.81-1.76.22-2.32.65c-.56.43-.84,1-.84,1.69,0,.66.26,1.15.78,1.48.52.33,1.46.65,2.81.96,1.36.3,2.46.67,3.3,1.09.84.42,1.47.93,1.87,1.52.41.59.61,1.32.61,2.17,0,1.42-.57,2.56-1.71,3.42-1.14.86-2.61,1.29-4.42,1.29-1.27,0-2.4-.23-3.38-.68-.98-.45-1.75-1.08-2.3-1.89-.55-.81-.83-1.68-.83-2.62h2.72c.05.91.41,1.63,1.1,2.17.68.53,1.58.8,2.7.8,1.03,0,1.85-.21,2.48-.62.62-.42.93-.97.93-1.67Z"/>
      <path d="M505.49,187.7c0-.73-.28-1.31-.83-1.71s-1.52-.76-2.9-1.05c-1.38-.29-2.47-.65-3.28-1.06-.81-.41-1.41-.9-1.79-1.47-.39-.57-.58-1.24-.58-2.03,0-1.3.55-2.41,1.65-3.31,1.1-.9,2.51-1.35,4.23-1.35,1.8,0,3.26.46,4.39,1.4,1.12.93,1.68,2.12,1.68,3.57h-2.73c0-.74-.32-1.39-.95-1.92s-1.43-.81-2.39-.81-1.76.22-2.32.65c-.56.43-.84,1-.84,1.69,0,.66.26,1.15.78,1.48.52.33,1.46.65,2.81.96,1.36.3,2.46.67,3.3,1.09.84.42,1.47.93,1.87,1.52.41.59.61,1.32.61,2.17,0,1.42-.57,2.56-1.71,3.42-1.14.86-2.61,1.29-4.42,1.29-1.27,0-2.4-.23-3.38-.68-.98-.45-1.75-1.08-2.3-1.89-.55-.81-.83-1.68-.83-2.62h2.72c.05.91.41,1.63,1.1,2.17.68.53,1.58.8,2.7.8,1.03,0,1.85-.21,2.48-.62.62-.42.93-.97.93-1.67Z"/>
      <path d="M513.98,176.01l.07,1.76c1.17-1.37,2.74-2.06,4.72-2.06,2.22,0,3.74.85,4.54,2.56.53-.76,1.22-1.38,2.06-1.85.85-.47,1.85-.71,3-.71,3.49,0,5.26,1.85,5.32,5.54v10.65h-2.72v-10.49c0-1.14-.26-1.99-.78-2.55s-1.39-.85-2.62-.85c-1.01,0-1.85.3-2.51.9-.67.6-1.05,1.41-1.16,2.43v10.55h-2.73v-10.42c0-2.31-1.13-3.47-3.39-3.47-1.78,0-3,.76-3.66,2.28v11.61h-2.72v-15.9h2.57Z"/>
      <path d="M544.06,192.21c-2.16,0-3.91-.71-5.26-2.12-1.35-1.42-2.03-3.31-2.03-5.68v-.5c0-1.58.3-2.99.9-4.23.6-1.24,1.45-2.21,2.53-2.91,1.08-.7,2.26-1.05,3.52-1.05,2.07,0,3.67.68,4.82,2.04,1.15,1.36,1.72,3.31,1.72,5.85v1.13h-10.77c.04,1.57.5,2.83,1.37,3.8.88.97,1.99,1.45,3.34,1.45.96,0,1.77-.2,2.44-.59s1.25-.91,1.75-1.56l1.66,1.29c-1.33,2.05-3.33,3.07-6,3.07ZM543.73,177.95c-1.1,0-2.02.4-2.76,1.2-.74.8-1.21,1.92-1.38,3.36h7.96v-.21c-.08-1.38-.45-2.45-1.12-3.21-.67-.76-1.57-1.14-2.7-1.14Z"/>
      <path d="M555.65,176.01l.09,2c1.21-1.53,2.8-2.29,4.76-2.29,3.36,0,5.06,1.9,5.08,5.69v10.51h-2.72v-10.52c0-1.15-.27-1.99-.79-2.54-.51-.55-1.32-.82-2.4-.82-.88,0-1.66.24-2.32.71-.67.47-1.19,1.09-1.56,1.85v11.33h-2.72v-15.9h2.57Z"/>
      <path d="M573.04,172.16v3.85h2.97v2.1h-2.97v9.87c0,.64.13,1.12.4,1.43s.71.48,1.35.48c.31,0,.74-.06,1.29-.18v2.19c-.72.19-1.41.29-2.09.29-1.21,0-2.13-.37-2.75-1.1-.62-.73-.93-1.78-.93-3.13v-9.86h-2.9v-2.1h2.9v-3.85h2.72Z"/>
      <path d="M585.4,186.17c0-1.03.29-1.97.86-2.84s1.67-1.87,3.28-3.01c-.95-1.16-1.59-2.09-1.91-2.79-.32-.71-.48-1.41-.48-2.1,0-1.63.48-2.9,1.44-3.82.96-.92,2.26-1.38,3.91-1.38,1.47,0,2.68.43,3.64,1.29s1.44,1.94,1.44,3.24c0,.86-.22,1.66-.65,2.39-.44.73-1.2,1.5-2.29,2.3l-1.57,1.16,4.76,5.69c.67-1.27,1-2.69,1-4.25h2.45c0,2.5-.6,4.57-1.81,6.22l3.06,3.66h-3.26l-1.42-1.69c-.73.65-1.58,1.14-2.55,1.48-.98.34-1.97.51-2.98.51-2.09,0-3.76-.55-5.03-1.66-1.26-1.11-1.9-2.57-1.9-4.38ZM592.32,189.99c1.44,0,2.76-.55,3.95-1.65l-5.22-6.25-.48.35c-1.64,1.21-2.45,2.44-2.45,3.72,0,1.16.38,2.08,1.12,2.78.75.7,1.78,1.04,3.08,1.04ZM589.87,175.34c0,.94.58,2.12,1.73,3.53l1.73-1.22c.67-.47,1.12-.92,1.37-1.34.25-.43.37-.94.37-1.55,0-.66-.25-1.2-.74-1.64s-1.11-.65-1.85-.65c-.8,0-1.44.27-1.91.82-.47.54-.71,1.23-.71,2.07Z"/>
      <path d="M310.36,214.92c-.26,2.26-1.1,4.01-2.51,5.24-1.41,1.23-3.27,1.84-5.61,1.84-2.53,0-4.55-.91-6.08-2.72s-2.29-4.24-2.29-7.27v-2.06c0-1.99.35-3.74,1.07-5.25.71-1.51,1.72-2.67,3.02-3.48,1.3-.81,2.81-1.21,4.53-1.21,2.27,0,4.09.63,5.47,1.9,1.37,1.27,2.17,3.02,2.4,5.27h-2.84c-.24-1.71-.78-2.95-1.59-3.71-.82-.77-1.96-1.15-3.43-1.15-1.8,0-3.22.67-4.24,2-1.02,1.33-1.54,3.23-1.54,5.69v2.07c0,2.32.49,4.17,1.46,5.54s2.33,2.06,4.07,2.06c1.57,0,2.77-.35,3.61-1.07.84-.71,1.39-1.95,1.67-3.71h2.84Z"/>
      <path d="M312.73,213.61c0-1.56.31-2.96.92-4.2s1.46-2.21,2.56-2.88c1.09-.68,2.34-1.01,3.74-1.01,2.17,0,3.92.75,5.25,2.25,1.34,1.5,2.01,3.49,2.01,5.98v.19c0,1.55-.3,2.94-.89,4.17s-1.44,2.19-2.54,2.87c-1.1.69-2.37,1.03-3.8,1.03-2.16,0-3.9-.75-5.24-2.25-1.34-1.5-2.01-3.48-2.01-5.95v-.19ZM315.47,213.94c0,1.76.41,3.18,1.23,4.25.82,1.07,1.91,1.6,3.28,1.6s2.48-.54,3.29-1.62c.81-1.08,1.22-2.6,1.22-4.55,0-1.74-.41-3.16-1.24-4.24-.83-1.08-1.93-1.62-3.3-1.62s-2.42.53-3.25,1.6c-.82,1.07-1.23,2.6-1.23,4.59Z"/>
      <path d="M340.11,220.14c-1.06,1.24-2.61,1.87-4.66,1.87-1.7,0-2.99-.49-3.87-1.48-.89-.99-1.33-2.44-1.34-4.37v-10.35h2.72v10.27c0,2.41.98,3.61,2.94,3.61,2.08,0,3.46-.77,4.14-2.32v-11.57h2.72v15.9h-2.59l-.06-1.57Z"/>
      <path d="M349.12,205.81l.09,2c1.21-1.53,2.8-2.29,4.76-2.29,3.36,0,5.06,1.9,5.08,5.69v10.51h-2.72v-10.52c0-1.15-.27-1.99-.79-2.54-.51-.55-1.32-.82-2.4-.82-.88,0-1.66.24-2.32.71-.67.47-1.19,1.09-1.56,1.85v11.33h-2.72v-15.9h2.57Z"/>
      <path d="M372.08,217.49c0-.73-.28-1.31-.83-1.71s-1.52-.76-2.9-1.05c-1.38-.29-2.47-.65-3.28-1.06-.81-.41-1.41-.9-1.79-1.47-.39-.57-.58-1.24-.58-2.03,0-1.3.55-2.41,1.65-3.31,1.1-.9,2.51-1.35,4.23-1.35,1.8,0,3.26.46,4.39,1.4,1.12.93,1.68,2.12,1.68,3.57h-2.73c0-.74-.32-1.39-.95-1.92s-1.43-.81-2.39-.81-1.76.22-2.32.65c-.56.43-.84,1-.84,1.69,0,.66.26,1.15.78,1.48.52.33,1.46.65,2.81.96,1.36.3,2.46.67,3.3,1.09.84.42,1.47.93,1.87,1.52.41.59.61,1.32.61,2.17,0,1.42-.57,2.56-1.71,3.42-1.14.86-2.61,1.29-4.42,1.29-1.27,0-2.4-.23-3.38-.68-.98-.45-1.75-1.08-2.3-1.89-.55-.81-.83-1.68-.83-2.62h2.72c.05.91.41,1.63,1.1,2.17.68.53,1.58.8,2.7.8,1.03,0,1.85-.21,2.48-.62.62-.42.93-.97.93-1.67Z"/>
      <path d="M384.61,222c-2.16,0-3.91-.71-5.26-2.12-1.35-1.42-2.03-3.31-2.03-5.68v-.5c0-1.58.3-2.99.9-4.23.6-1.24,1.45-2.21,2.53-2.91,1.08-.7,2.26-1.05,3.52-1.05,2.07,0,3.67.68,4.82,2.04,1.15,1.36,1.72,3.31,1.72,5.85v1.13h-10.77c.04,1.57.5,2.83,1.37,3.8.88.97,1.99,1.45,3.34,1.45.96,0,1.77-.2,2.44-.59s1.25-.91,1.75-1.56l1.66,1.29c-1.33,2.05-3.33,3.07-6,3.07ZM384.27,207.75c-1.1,0-2.02.4-2.76,1.2-.74.8-1.21,1.92-1.38,3.36h7.96v-.21c-.08-1.38-.45-2.45-1.12-3.21-.67-.76-1.57-1.14-2.7-1.14Z"/>
      <path d="M396.58,221.71h-2.72v-22.57h2.72v22.57Z"/>
      <path d="M403.55,221.71h-2.72v-22.57h2.72v22.57Z"/>
      <path d="M407.58,201.59c0-.44.13-.81.4-1.12.27-.3.67-.46,1.2-.46s.93.15,1.21.46c.27.3.41.68.41,1.12s-.14.81-.41,1.1-.68.44-1.21.44-.93-.15-1.2-.44c-.27-.29-.4-.66-.4-1.1ZM410.52,221.71h-2.72v-15.9h2.72v15.9Z"/>
      <path d="M417.11,205.81l.09,2c1.21-1.53,2.8-2.29,4.76-2.29,3.36,0,5.06,1.9,5.08,5.69v10.51h-2.72v-10.52c0-1.15-.27-1.99-.79-2.54-.51-.55-1.32-.82-2.4-.82-.88,0-1.66.24-2.32.71-.67.47-1.19,1.09-1.56,1.85v11.33h-2.72v-15.9h2.57Z"/>
      <path d="M430.17,213.63c0-2.48.57-4.45,1.72-5.91,1.15-1.46,2.67-2.2,4.56-2.2s3.45.69,4.54,2.06l.13-1.76h2.48v15.52c0,2.06-.61,3.68-1.83,4.86-1.22,1.18-2.86,1.78-4.92,1.78-1.15,0-2.27-.25-3.37-.74-1.1-.49-1.94-1.16-2.51-2.01l1.41-1.63c1.17,1.44,2.59,2.16,4.28,2.16,1.32,0,2.35-.37,3.09-1.12.74-.75,1.11-1.79,1.11-3.15v-1.37c-1.09,1.25-2.57,1.88-4.45,1.88s-3.37-.75-4.52-2.25c-1.15-1.5-1.73-3.54-1.73-6.13ZM432.9,213.94c0,1.79.37,3.2,1.1,4.22.74,1.02,1.76,1.54,3.09,1.54,1.71,0,2.97-.78,3.78-2.34v-7.26c-.83-1.52-2.08-2.28-3.75-2.28-1.32,0-2.36.51-3.1,1.54-.74,1.03-1.12,2.55-1.12,4.57Z"/>
      <path d="M460.87,219.79c.97,0,1.82-.29,2.54-.88.72-.59,1.13-1.32,1.21-2.2h2.57c-.05.91-.36,1.78-.94,2.6s-1.35,1.48-2.31,1.97c-.96.49-1.99.73-3.06.73-2.17,0-3.89-.72-5.17-2.17-1.28-1.44-1.92-3.42-1.92-5.93v-.46c0-1.55.28-2.92.85-4.13s1.38-2.14,2.45-2.81c1.06-.67,2.32-1,3.77-1,1.78,0,3.26.53,4.45,1.6,1.18,1.07,1.81,2.45,1.89,4.16h-2.57c-.08-1.03-.47-1.87-1.17-2.54-.7-.66-1.57-.99-2.59-.99-1.38,0-2.45.5-3.21,1.49-.76.99-1.14,2.43-1.14,4.31v.51c0,1.83.38,3.24,1.13,4.23.75.99,1.83,1.48,3.23,1.48Z"/>
      <path d="M476.51,222c-2.16,0-3.91-.71-5.26-2.12-1.35-1.42-2.03-3.31-2.03-5.68v-.5c0-1.58.3-2.99.9-4.23.6-1.24,1.45-2.21,2.53-2.91,1.08-.7,2.26-1.05,3.52-1.05,2.07,0,3.67.68,4.82,2.04,1.15,1.36,1.72,3.31,1.72,5.85v1.13h-10.77c.04,1.57.5,2.83,1.37,3.8.88.97,1.99,1.45,3.34,1.45.96,0,1.77-.2,2.44-.59s1.25-.91,1.75-1.56l1.66,1.29c-1.33,2.05-3.33,3.07-6,3.07ZM476.17,207.75c-1.1,0-2.02.4-2.76,1.2-.74.8-1.21,1.92-1.38,3.36h7.96v-.21c-.08-1.38-.45-2.45-1.12-3.21-.67-.76-1.57-1.14-2.7-1.14Z"/>
      <path d="M488.1,205.81l.09,2c1.21-1.53,2.8-2.29,4.76-2.29,3.36,0,5.06,1.9,5.08,5.69v10.51h-2.72v-10.52c0-1.15-.27-1.99-.79-2.54-.51-.55-1.32-.82-2.4-.82-.88,0-1.66.24-2.32.71-.67.47-1.19,1.09-1.56,1.85v11.33h-2.72v-15.9h2.57Z"/>
      <path d="M505.49,201.96v3.85h2.97v2.1h-2.97v9.87c0,.64.13,1.12.4,1.43s.71.48,1.35.48c.31,0,.74-.06,1.29-.18v2.19c-.72.19-1.41.29-2.09.29-1.21,0-2.13-.37-2.75-1.1-.62-.73-.93-1.78-.93-3.13v-9.86h-2.9v-2.1h2.9v-3.85h2.72Z"/>
      <path d="M518.99,208.25c-.41-.07-.86-.1-1.34-.1-1.78,0-2.99.76-3.63,2.28v11.29h-2.72v-15.9h2.64l.04,1.84c.89-1.42,2.15-2.13,3.79-2.13.53,0,.93.07,1.21.21v2.53Z"/>
      <path d="M527.75,222c-2.16,0-3.91-.71-5.26-2.12-1.35-1.42-2.03-3.31-2.03-5.68v-.5c0-1.58.3-2.99.9-4.23.6-1.24,1.45-2.21,2.53-2.91,1.08-.7,2.26-1.05,3.52-1.05,2.07,0,3.67.68,4.82,2.04,1.15,1.36,1.72,3.31,1.72,5.85v1.13h-10.77c.04,1.57.5,2.83,1.37,3.8.88.97,1.99,1.45,3.34,1.45.96,0,1.77-.2,2.44-.59s1.25-.91,1.75-1.56l1.66,1.29c-1.33,2.05-3.33,3.07-6,3.07ZM527.42,207.75c-1.1,0-2.02.4-2.76,1.2-.74.8-1.21,1.92-1.38,3.36h7.96v-.21c-.08-1.38-.45-2.45-1.12-3.21-.67-.76-1.57-1.14-2.7-1.14Z"/>
    </g>
  </g>
</svg>