<?xml version="1.0" encoding="UTF-8"?>
<svg id="Layer_2" data-name="Layer 2" xmlns="http://www.w3.org/2000/svg" xmlns:xlink="http://www.w3.org/1999/xlink" viewBox="0 0 820.81 352.66">
  <defs>
    <style>
      .cls-1 {
        letter-spacing: .06em;
      }

      .cls-1, .cls-2, .cls-3, .cls-4, .cls-5, .cls-6, .cls-7, .cls-8, .cls-9 {
        fill: #367588;
      }

      .cls-2, .cls-10 {
        letter-spacing: -.04em;
      }

      .cls-11 {
        letter-spacing: -.04em;
      }

      .cls-11, .cls-12, .cls-10, .cls-13, .cls-14 {
        fill: #7caf4f;
      }

      .cls-3 {
        letter-spacing: .05em;
      }

      .cls-15 {
        fill: none;
      }

      .cls-16 {
        clip-path: url(#clippath-1);
      }

      .cls-17 {
        font-family: Literata-Bold, Literata;
        font-size: 81.26px;
        font-variation-settings: 'opsz' 12, 'wght' 700;
        font-weight: 700;
      }

      .cls-18 {
        font-family: Roboto-Regular, Roboto;
        font-size: 30.1px;
        letter-spacing: -.01em;
      }

      .cls-5 {
        letter-spacing: -.02em;
      }

      .cls-6 {
        letter-spacing: -.05em;
      }

      .cls-13 {
        letter-spacing: -.04em;
      }

      .cls-7 {
        letter-spacing: -.05em;
      }

      .cls-19 {
        fill: url(#linear-gradient);
      }

      .cls-20 {
        clip-path: url(#clippath);
      }

      .cls-14 {
        letter-spacing: -.04em;
      }

      .cls-8 {
        letter-spacing: .06em;
      }

      .cls-9 {
        letter-spacing: .06em;
      }
    </style>
    <linearGradient id="linear-gradient" x1="-2579.27" y1="67.39" x2="-2579.23" y2="67.39" gradientTransform="translate(-2251.62) rotate(-180) scale(1 -1)" gradientUnits="userSpaceOnUse">
      <stop offset="0" stop-color="#adaf2a"/>
      <stop offset="1" stop-color="#7caf2a"/>
    </linearGradient>
    <clipPath id="clippath">
      <rect class="cls-15" x="338.07" y="49.18" width="64.42" height="55.53" transform="translate(-6.21 41.12) rotate(-6.3)"/>
    </clipPath>
    <clipPath id="clippath-1">
      <rect class="cls-15" x="338.07" y="49.18" width="64.42" height="55.53" transform="translate(-6.21 41.12) rotate(-6.3)"/>
    </clipPath>
  </defs>
  <g id="OBJECTS">
    <text class="cls-17" transform="translate(0 303.85)"><tspan class="cls-7" x="0" y="0">Co</tspan><tspan class="cls-6" x="100.6" y="0">r</tspan><tspan class="cls-2" x="140.5" y="0">e </tspan><tspan class="cls-14" x="196.57" y="0">M</tspan><tspan class="cls-10" x="273.28" y="0">i</tspan><tspan class="cls-13" x="299.85" y="0">n</tspan><tspan class="cls-11" x="352.83" y="0">d </tspan><tspan class="cls-5" x="416.38" y="0">W</tspan><tspan class="cls-3" x="504.87" y="0">e</tspan><tspan class="cls-8" x="555.17" y="0">l</tspan><tspan class="cls-1" x="589.46" y="0">l</tspan><tspan class="cls-9" x="623.59" y="0">n</tspan><tspan class="cls-3" x="684.54" y="0">e</tspan><tspan class="cls-8" x="734.84" y="0">ss</tspan></text>
    <g>
      <g>
        <g>
          <path class="cls-4" d="M396.41,167.16c20.69-26.07,48.78-50.19,27.97-93.46-5.87-12.2-15.94-22.02-28.44-27.22-25.4-10.56-50.14-4.79-66.94,9.85,3.57-12.21,10.17-23.73,19.81-33.37,30.63-30.63,80.29-30.63,110.92,0,.01.01.02.02.03.03,12.02,10.05,22.45,32.32,20.09,47.31-2.77,17.57-.69,27.53,9.41,38.46,10.1,10.93,11.34,15.77,2.63,18.12-8.72,2.35-9.27,8.02-8.16,9.96,1.44,2.52,3.8,5.18,3.74,7.96-.1,4.09-5.74,1.97-7.61,2.84-.9.42,3.18.55,4.84,5.26,1.66,4.7-11.07,6.78-8.85,10.38,2.21,3.6,7.06,24.77-12.18,19.65-19.23-5.12-30.6-3.74-41.78,6.64-7.75,7.19-12.08,20.34.09,41.09,0,0-50.59-31.96-25.55-63.51Z"/>
          <g>
            <path class="cls-19" d="M327.66,67.33s-.02.05-.04.12c.03-.08.04-.12.04-.12Z"/>
            <path class="cls-12" d="M344.57,126.78c-27.21-26.91-17.08-55.89-16.32-57.93.03-.07.04-.12.04-.12-.01,20.11,17.75,34.81,35.03,51.6,22.9,22.24,26.76,51.56,15.67,74.86,4.38-31.54-9.19-43.45-34.43-68.41Z"/>
            <path class="cls-12" d="M328.25,68.85c-.76,2.04-10.89,31.02,16.32,57.93,25.24,24.96,38.81,36.88,34.43,68.41,0,0,1.08-14.93-5.81-27.81-9.45-17.64-37.27-26.04-46.94-51.46-7.76-20.42,1.32-45.25,2.01-47.08Z"/>
          </g>
        </g>
        <g>
          <path class="cls-12" d="M411.64,62.1c16.09,20.13,32,67.66-21.37,100.92,43.16-64.74,21.37-100.92,21.37-100.92Z"/>
          <path class="cls-12" d="M411.64,62.1s21.79,36.19-21.37,100.92c0,0-7.28-27.32,11.69-57.58,15.52-24.76,9.68-43.34,9.68-43.34Z"/>
        </g>
      </g>
      <g>
        <g class="cls-20">
          <path class="cls-12" d="M361.42,83.61c4.26-2.3,7.73,3.13,11.94,1.16,2.65-1.23,6.2-6.1,8.37-5.78,4.16.58,7.33,3.48,11.54,3.08,9.89-.95,7.27-14.43,2.06-20.64-2.96-3.53-5.62-5.52-10.57-5.82-3.97-.31-5.97,6.34-5.97,6.34-1.82-4.46-5.28-8.26-9.26-7.78-4.05.49-9.83,3.74-9.24,9.13,0,0-4.25-3.72-7.28-1.36-4.03,3.14,1.48,9.72,1.48,9.72-5-3.02-9.68.24-10.51,6.43-.86,6.42,2.76,15.17,9.96,12.55,6.37-2.32,5.53-5.99,7.46-7.03h0Z"/>
          <path d="M353.99,93.85c-5.52-.2-10.21-2.95-12.66-7.95-1.99-4.06-2.47-9.57.9-13.05,2.17-2.24,5.44-2.14,8.1-.91,2.44,1.13,5.65,4.85,3.45,7.47-1.02,1.21-3.42-.96-4.11-1.64-1.16-1.15-1.98-2.64-2.52-4.16-1.09-3.03-.67-6.44.74-9.28,1.37-2.77,3.78-4.8,6.89-5.12,2.77-.29,5.54.86,7.48,2.8,1.82,1.82,2.73,4.66,1.38,7.03-.76,1.33-2.68-1.77-2.97-2.27-.75-1.32-1.27-2.81-1.52-4.31-1.01-5.94,6.29-10.96,11.66-9.62,1.77.44,3.4,1.42,4.93,2.37,1.56.97,3.02,2.04,4.09,3.56,1.78,2.54,1.27,5.97-.79,8.2-2.02,2.19-3.13-4.63-3.19-5.6-.2-3.25,1.47-6.2,4.55-7.36,2.56-.96,5.69-.18,8.16.68,2.74.95,5.26,2.52,7.31,4.56,2.32,2.3,3.48,5.14,4.13,8.28.55,2.67.83,5.45.46,8.16-.46,3.37-2.33,6.31-5.7,7.29-2.77.8-5.85.46-8.61-.25-1.07-.28-2.12-.63-3.13-1.09-1.36-.63-2.62-1.39-3.63-2.51-1.01-1.13-2.03-3.12-1.28-4.61.77-1.53,2.98.42,3.52,1.19.72,1.03.71,2.32.42,3.49-.62,2.53-2.72,4.76-4.72,6.31-2.65,2.07-6.6,2.96-9.89,3.18-3.68.25-7.31-.79-9.83-3.53-1.07-1.16-2.66-4.27-.49-5.28,1.64-.77,3.8.66,4.89,1.76.28.28,1.37-.1,1.35-.53-.06-1.37-.27-2.73-.18-4.1.16-2.32,2.08-3.78,4.23-2.56,3.14,1.79,2.54,5.97,1.46,8.76-1.09,2.8-2.61,5.36-2.9,8.41-.26,2.8.89,6.16,3.5,7.51,2.19,1.13,5.39.25,7.28-1.1.93-.66,1.58-1.59,2.21-2.52.32-.48.65-1.01,1.16-1.32.63-.39,1.73.17,2.35.41,2.27.86,5.08,2.26,6.1,4.61.56,1.29-.17,3.67-1.79,2.35-1.47-1.2-.87-3.51.56-4.4,2.25-1.4,5.47,1.28,7.58,2.01,2.17.75,4.24-.01,5.28-2.07.3-.59-1.14-.28-1.35.13-.68,1.35-1.46,1.56-2.85,1.13-1.16-.36-2.24-.98-3.33-1.5-2.06-.98-3.88-1.32-5.96-.21-2.08,1.11-3,3.79-1.21,5.62,1.38,1.4,3.92.42,4.49-1.29.83-2.51-1.28-4.38-3.21-5.6-1.63-1.03-4.21-2.51-6.21-2.07-2.49.55-2.9,3.24-4.86,4.5-1.42.91-3.23,1.17-4.83.65-1.73-.57-2.68-2.53-3.17-4.14-1.96-6.56,5.99-12.35,2.75-18.69-1.26-2.47-4.24-3.2-6.55-1.82-2.8,1.67-2.08,4.94-1.96,7.66.45-.18.9-.35,1.35-.53-1.58-1.58-3.81-2.5-6.02-1.88-2.27.64-3.12,2.86-2.22,4.96,1.14,2.67,3.94,4.32,6.61,5.05,3.41.93,7.04.54,10.39-.42,4.71-1.35,9.58-4.31,11.23-9.24.75-2.25.23-4.49-1.88-5.77-1.59-.97-3.92-.46-4.78,1.24-1.19,2.37,1.44,5.31,3.24,6.5,1.26.84,2.71,1.44,4.15,1.9,2.66.84,5.53,1.23,8.32.95,2.92-.29,5.86-1.53,7.62-3.96,2.59-3.56,2.26-8.4,1.54-12.5-.54-3.05-1.5-5.75-3.47-8.17-1.76-2.17-4.13-3.77-6.64-4.96-4.41-2.09-10.11-2.97-14.17.32-2.1,1.7-3.02,4.34-2.85,6.99.12,1.95.41,4.76,2.14,5.98,1.77,1.25,3.79-.8,4.62-2.18,1.45-2.42,1.54-5.1.03-7.51-1.66-2.63-4.97-4.41-7.74-5.63-2.55-1.13-5.07-1.02-7.67-.17-4.6,1.5-8.92,5.7-8.04,10.88.4,2.37,1.7,5.61,3.96,6.77,1.79.92,3.32-.92,3.74-2.44,1.42-5.13-4.08-8.94-8.56-9.31-5.35-.43-9.65,3.36-11.26,8.24-.92,2.81-.7,5.93.47,8.62,1,2.3,3.05,4.76,5.6,5.33,2.22.49,4.27-1.41,4.2-3.62-.08-2.5-2.48-4.73-4.54-5.77-4.54-2.3-10.09-.24-12.19,4.32-1.77,3.85-.7,8.62,1.33,12.15,2.65,4.59,7.45,6.93,12.64,7.12.45.02,1.63-.84.8-.87h0Z"/>
        </g>
        <path class="cls-12" d="M343.53,67.39c.15,1.33-.78,2.53-2.08,2.67-1.29.14-2.46-.82-2.61-2.15s.78-2.53,2.08-2.67,2.46.82,2.61,2.15h0Z"/>
        <path class="cls-12" d="M358.29,55.41c.1.87-.48,1.64-1.29,1.73-.81.09-1.54-.54-1.63-1.41s.48-1.64,1.29-1.73c.81-.09,1.54.54,1.63,1.41h0Z"/>
        <path class="cls-12" d="M379.41,50.06c.12,1.1-.72,2.09-1.87,2.22s-2.19-.66-2.31-1.76.72-2.09,1.88-2.22,2.19.66,2.31,1.76h0Z"/>
        <path class="cls-12" d="M387.3,87.2c.08.74-.15,1.48-.64,2.07s-1.2.96-1.97,1.05c-1.61.18-3.06-.93-3.23-2.47-.17-1.54,1-2.94,2.61-3.12s3.06.93,3.23,2.47h0Z"/>
        <path class="cls-12" d="M374.22,92.01c.14,1.26-.74,2.39-1.97,2.53s-2.33-.78-2.47-2.04c-.14-1.26.74-2.39,1.97-2.53s2.33.78,2.47,2.04h0Z"/>
        <path class="cls-12" d="M361.15,91.78c.1.91-.61,1.74-1.59,1.85s-1.86-.54-1.96-1.45.61-1.74,1.59-1.85,1.86.54,1.96,1.45h0Z"/>
      </g>
      <g>
        <g>
          <path class="cls-4" d="M396.41,167.16c20.69-26.07,48.78-50.19,27.97-93.46-5.87-12.2-15.94-22.02-28.44-27.22-25.4-10.56-50.14-4.79-66.94,9.85,3.57-12.21,10.17-23.73,19.81-33.37,30.63-30.63,80.29-30.63,110.92,0,.01.01.02.02.03.03,12.02,10.05,22.45,32.32,20.09,47.31-2.77,17.57-.69,27.53,9.41,38.46,10.1,10.93,11.34,15.77,2.63,18.12-8.72,2.35-9.27,8.02-8.16,9.96,1.44,2.52,3.8,5.18,3.74,7.96-.1,4.09-5.74,1.97-7.61,2.84-.9.42,3.18.55,4.84,5.26,1.66,4.7-11.07,6.78-8.85,10.38,2.21,3.6,7.06,24.77-12.18,19.65-19.23-5.12-30.6-3.74-41.78,6.64-7.75,7.19-12.08,20.34.09,41.09,0,0-50.59-31.96-25.55-63.51Z"/>
          <g>
            <path class="cls-19" d="M327.66,67.33s-.02.05-.04.12c.03-.08.04-.12.04-.12Z"/>
            <path class="cls-12" d="M344.57,126.78c-27.21-26.91-17.08-55.89-16.32-57.93.03-.07.04-.12.04-.12-.01,20.11,17.75,34.81,35.03,51.6,22.9,22.24,26.76,51.56,15.67,74.86,4.38-31.54-9.19-43.45-34.43-68.41Z"/>
            <path class="cls-12" d="M328.25,68.85c-.76,2.04-10.89,31.02,16.32,57.93,25.24,24.96,38.81,36.88,34.43,68.41,0,0,1.08-14.93-5.81-27.81-9.45-17.64-37.27-26.04-46.94-51.46-7.76-20.42,1.32-45.25,2.01-47.08Z"/>
          </g>
        </g>
        <g>
          <path class="cls-12" d="M411.64,62.1c16.09,20.13,32,67.66-21.37,100.92,43.16-64.74,21.37-100.92,21.37-100.92Z"/>
          <path class="cls-12" d="M411.64,62.1s21.79,36.19-21.37,100.92c0,0-7.28-27.32,11.69-57.58,15.52-24.76,9.68-43.34,9.68-43.34Z"/>
        </g>
      </g>
      <g>
        <g class="cls-16">
          <path class="cls-12" d="M361.42,83.61c4.26-2.3,7.73,3.13,11.94,1.16,2.65-1.23,6.2-6.1,8.37-5.78,4.16.58,7.33,3.48,11.54,3.08,9.89-.95,7.27-14.43,2.06-20.64-2.96-3.53-5.62-5.52-10.57-5.82-3.97-.31-5.97,6.34-5.97,6.34-1.82-4.46-5.28-8.26-9.26-7.78-4.05.49-9.83,3.74-9.24,9.13,0,0-4.25-3.72-7.28-1.36-4.03,3.14,1.48,9.72,1.48,9.72-5-3.02-9.68.24-10.51,6.43-.86,6.42,2.76,15.17,9.96,12.55,6.37-2.32,5.53-5.99,7.46-7.03h0Z"/>
          <path d="M353.99,93.85c-5.52-.2-10.21-2.95-12.66-7.95-1.99-4.06-2.47-9.57.9-13.05,2.17-2.24,5.44-2.14,8.1-.91,2.44,1.13,5.65,4.85,3.45,7.47-1.02,1.21-3.42-.96-4.11-1.64-1.16-1.15-1.98-2.64-2.52-4.16-1.09-3.03-.67-6.44.74-9.28,1.37-2.77,3.78-4.8,6.89-5.12,2.77-.29,5.54.86,7.48,2.8,1.82,1.82,2.73,4.66,1.38,7.03-.76,1.33-2.68-1.77-2.97-2.27-.75-1.32-1.27-2.81-1.52-4.31-1.01-5.94,6.29-10.96,11.66-9.62,1.77.44,3.4,1.42,4.93,2.37,1.56.97,3.02,2.04,4.09,3.56,1.78,2.54,1.27,5.97-.79,8.2-2.02,2.19-3.13-4.63-3.19-5.6-.2-3.25,1.47-6.2,4.55-7.36,2.56-.96,5.69-.18,8.16.68,2.74.95,5.26,2.52,7.31,4.56,2.32,2.3,3.48,5.14,4.13,8.28.55,2.67.83,5.45.46,8.16-.46,3.37-2.33,6.31-5.7,7.29-2.77.8-5.85.46-8.61-.25-1.07-.28-2.12-.63-3.13-1.09-1.36-.63-2.62-1.39-3.63-2.51-1.01-1.13-2.03-3.12-1.28-4.61.77-1.53,2.98.42,3.52,1.19.72,1.03.71,2.32.42,3.49-.62,2.53-2.72,4.76-4.72,6.31-2.65,2.07-6.6,2.96-9.89,3.18-3.68.25-7.31-.79-9.83-3.53-1.07-1.16-2.66-4.27-.49-5.28,1.64-.77,3.8.66,4.89,1.76.28.28,1.37-.1,1.35-.53-.06-1.37-.27-2.73-.18-4.1.16-2.32,2.08-3.78,4.23-2.56,3.14,1.79,2.54,5.97,1.46,8.76-1.09,2.8-2.61,5.36-2.9,8.41-.26,2.8.89,6.16,3.5,7.51,2.19,1.13,5.39.25,7.28-1.1.93-.66,1.58-1.59,2.21-2.52.32-.48.65-1.01,1.16-1.32.63-.39,1.73.17,2.35.41,2.27.86,5.08,2.26,6.1,4.61.56,1.29-.17,3.67-1.79,2.35-1.47-1.2-.87-3.51.56-4.4,2.25-1.4,5.47,1.28,7.58,2.01,2.17.75,4.24-.01,5.28-2.07.3-.59-1.14-.28-1.35.13-.68,1.35-1.46,1.56-2.85,1.13-1.16-.36-2.24-.98-3.33-1.5-2.06-.98-3.88-1.32-5.96-.21-2.08,1.11-3,3.79-1.21,5.62,1.38,1.4,3.92.42,4.49-1.29.83-2.51-1.28-4.38-3.21-5.6-1.63-1.03-4.21-2.51-6.21-2.07-2.49.55-2.9,3.24-4.86,4.5-1.42.91-3.23,1.17-4.83.65-1.73-.57-2.68-2.53-3.17-4.14-1.96-6.56,5.99-12.35,2.75-18.69-1.26-2.47-4.24-3.2-6.55-1.82-2.8,1.67-2.08,4.94-1.96,7.66.45-.18.9-.35,1.35-.53-1.58-1.58-3.81-2.5-6.02-1.88-2.27.64-3.12,2.86-2.22,4.96,1.14,2.67,3.94,4.32,6.61,5.05,3.41.93,7.04.54,10.39-.42,4.71-1.35,9.58-4.31,11.23-9.24.75-2.25.23-4.49-1.88-5.77-1.59-.97-3.92-.46-4.78,1.24-1.19,2.37,1.44,5.31,3.24,6.5,1.26.84,2.71,1.44,4.15,1.9,2.66.84,5.53,1.23,8.32.95,2.92-.29,5.86-1.53,7.62-3.96,2.59-3.56,2.26-8.4,1.54-12.5-.54-3.05-1.5-5.75-3.47-8.17-1.76-2.17-4.13-3.77-6.64-4.96-4.41-2.09-10.11-2.97-14.17.32-2.1,1.7-3.02,4.34-2.85,6.99.12,1.95.41,4.76,2.14,5.98,1.77,1.25,3.79-.8,4.62-2.18,1.45-2.42,1.54-5.1.03-7.51-1.66-2.63-4.97-4.41-7.74-5.63-2.55-1.13-5.07-1.02-7.67-.17-4.6,1.5-8.92,5.7-8.04,10.88.4,2.37,1.7,5.61,3.96,6.77,1.79.92,3.32-.92,3.74-2.44,1.42-5.13-4.08-8.94-8.56-9.31-5.35-.43-9.65,3.36-11.26,8.24-.92,2.81-.7,5.93.47,8.62,1,2.3,3.05,4.76,5.6,5.33,2.22.49,4.27-1.41,4.2-3.62-.08-2.5-2.48-4.73-4.54-5.77-4.54-2.3-10.09-.24-12.19,4.32-1.77,3.85-.7,8.62,1.33,12.15,2.65,4.59,7.45,6.93,12.64,7.12.45.02,1.63-.84.8-.87h0Z"/>
        </g>
        <path class="cls-12" d="M343.53,67.39c.15,1.33-.78,2.53-2.08,2.67-1.29.14-2.46-.82-2.61-2.15s.78-2.53,2.08-2.67,2.46.82,2.61,2.15h0Z"/>
        <path class="cls-12" d="M358.29,55.41c.1.87-.48,1.64-1.29,1.73-.81.09-1.54-.54-1.63-1.41s.48-1.64,1.29-1.73c.81-.09,1.54.54,1.63,1.41h0Z"/>
        <path class="cls-12" d="M379.41,50.06c.12,1.1-.72,2.09-1.87,2.22s-2.19-.66-2.31-1.76.72-2.09,1.88-2.22,2.19.66,2.31,1.76h0Z"/>
        <path class="cls-12" d="M387.3,87.2c.08.74-.15,1.48-.64,2.07s-1.2.96-1.97,1.05c-1.61.18-3.06-.93-3.23-2.47-.17-1.54,1-2.94,2.61-3.12s3.06.93,3.23,2.47h0Z"/>
        <path class="cls-12" d="M374.22,92.01c.14,1.26-.74,2.39-1.97,2.53s-2.33-.78-2.47-2.04c-.14-1.26.74-2.39,1.97-2.53s2.33.78,2.47,2.04h0Z"/>
        <path class="cls-12" d="M361.15,91.78c.1.91-.61,1.74-1.59,1.85s-1.86-.54-1.96-1.45.61-1.74,1.59-1.85,1.86.54,1.96,1.45h0Z"/>
      </g>
    </g>
    <text class="cls-18" transform="translate(96.53 344.5)"><tspan x="0" y="0">Psychological Assessment &amp; Counselling centre</tspan></text>
  </g>
</svg>