<?xml version="1.0" encoding="UTF-8"?>
<svg id="Layer_2" data-name="Layer 2" xmlns="http://www.w3.org/2000/svg" xmlns:xlink="http://www.w3.org/1999/xlink" viewBox="0 0 818.97 1082.17">
  <defs>
    <style>
      .cls-1 {
        fill: #fff;
      }

      .cls-2 {
        fill: none;
      }

      .cls-3 {
        fill: #7caf4f;
      }

      .cls-4 {
        clip-path: url(#clippath-1);
      }

      .cls-5 {
        fill: #fafcfc;
      }

      .cls-6 {
        fill: #367588;
      }

      .cls-7 {
        fill: url(#linear-gradient);
      }

      .cls-8 {
        clip-path: url(#clippath);
      }
    </style>
    <linearGradient id="linear-gradient" x1="-1772.47" y1="316.14" x2="-1772.26" y2="316.14" gradientTransform="translate(-1751.19) rotate(-180) scale(1 -1)" gradientUnits="userSpaceOnUse">
      <stop offset="0" stop-color="#adaf2a"/>
      <stop offset="1" stop-color="#7caf2a"/>
    </linearGradient>
    <clipPath id="clippath">
      <rect class="cls-2" x="70.11" y="230.73" width="302.22" height="260.53" transform="translate(-38.3 26.47) rotate(-6.3)"/>
    </clipPath>
    <clipPath id="clippath-1">
      <rect class="cls-2" x="70.11" y="230.73" width="302.22" height="260.53" transform="translate(-38.3 26.47) rotate(-6.3)"/>
    </clipPath>
  </defs>
  <g id="OBJECTS">
    <g>
      <g>
        <path class="cls-6" d="M343.82,784.24c97.07-122.3,228.86-235.46,131.2-438.45-27.54-57.25-74.76-103.31-133.42-127.7-119.18-49.55-235.25-22.49-314.07,46.22,16.77-57.3,47.72-111.34,92.92-156.53,143.7-143.7,376.69-143.7,520.39,0,.05.05.09.1.14.15,56.41,47.16,105.3,151.64,94.23,221.96-12.98,82.43-3.25,129.17,44.14,180.44,47.38,51.28,53.22,73.99,12.33,85.03-40.89,11.03-43.49,37.65-38.3,46.73,6.76,11.84,17.85,24.32,17.52,37.32-.48,19.17-26.94,9.26-35.7,13.31-4.22,1.95,14.93,2.6,22.72,24.66,7.79,22.07-51.93,31.8-41.54,48.68,10.39,16.88,33.1,116.18-57.12,92.17-90.22-24.02-143.55-17.56-196.02,31.16-36.35,33.75-56.68,95.42.44,192.78,0,0-237.33-149.94-119.87-297.93Z"/>
        <g>
          <path class="cls-7" d="M21.28,315.86s-.08.22-.2.56c.13-.36.2-.56.2-.56Z"/>
          <path class="cls-3" d="M100.61,594.77C-27.05,468.53,20.5,332.55,24.06,323c.13-.33.21-.55.21-.55-.05,94.32,83.26,163.32,164.35,242.09,107.42,104.34,125.56,241.89,73.49,351.2,20.57-147.95-43.1-203.86-161.51-320.96Z"/>
          <path class="cls-3" d="M24.06,323c-3.56,9.55-51.11,145.53,76.55,271.77,118.41,117.1,182.07,173.01,161.51,320.96,0,0,5.09-70.06-27.25-130.45-44.31-82.76-174.87-122.17-220.22-241.41-36.43-95.79,6.18-212.31,9.41-220.87Z"/>
        </g>
      </g>
      <g>
        <path class="cls-3" d="M415.28,291.33c75.47,94.43,150.11,317.42-100.24,473.47,202.47-303.71,100.24-473.47,100.24-473.47Z"/>
        <path class="cls-3" d="M415.28,291.33s102.22,169.76-100.24,473.47c0,0-34.16-128.16,54.84-270.14,72.82-116.18,45.4-203.33,45.4-203.33Z"/>
      </g>
    </g>
    <g>
      <g class="cls-8">
        <path class="cls-3" d="M179.68,392.28c19.97-10.79,36.26,14.68,56,5.43,12.43-5.79,29.08-28.64,39.25-27.11,19.52,2.7,34.37,16.32,54.16,14.43,46.4-4.44,34.11-67.71,9.67-96.83-13.88-16.55-26.35-25.88-49.57-27.29-18.61-1.48-28,29.73-28,29.73-8.56-20.92-24.78-38.77-43.43-36.51-18.99,2.3-46.13,17.54-43.34,42.85,0,0-19.95-17.46-34.15-6.39-18.91,14.75,6.96,45.61,6.96,45.61-23.48-14.19-45.42,1.11-49.33,30.19-4.05,30.13,12.93,71.17,46.75,58.88,29.9-10.87,25.92-28.09,35.02-33h0Z"/>
        <path d="M144.82,440.3c-25.89-.96-47.88-13.84-59.38-37.3-9.33-19.03-11.6-44.9,4.21-61.21,10.2-10.52,25.53-10.02,37.99-4.27,11.45,5.29,26.51,22.74,16.17,35.06-4.78,5.69-16.05-4.51-19.3-7.71-5.45-5.38-9.28-12.39-11.85-19.54-5.1-14.19-3.14-30.2,3.48-43.51,6.45-12.98,17.72-22.52,32.34-24.03,13-1.34,26,4.03,35.11,13.14,8.54,8.54,12.81,21.86,6.48,32.98-3.56,6.26-12.6-8.28-13.94-10.66-3.5-6.19-5.94-13.19-7.14-20.2-4.76-27.86,29.53-51.41,54.72-45.12,8.3,2.07,15.95,6.64,23.14,11.13,7.32,4.57,14.18,9.58,19.2,16.72,8.37,11.91,5.95,28.01-3.69,38.46-9.46,10.25-14.69-21.71-14.98-26.26-.96-15.23,6.87-29.1,21.37-34.54,12.01-4.5,26.68-.83,38.3,3.21,12.86,4.47,24.66,11.82,34.31,21.4,10.89,10.8,16.34,24.09,19.4,38.86,2.6,12.54,3.89,25.55,2.17,38.29-2.14,15.82-10.92,29.59-26.73,34.18-13.01,3.78-27.45,2.15-40.38-1.18-5.01-1.29-9.97-2.95-14.67-5.13-6.38-2.97-12.29-6.5-17.01-11.78-4.74-5.31-9.5-14.64-5.98-21.62,3.62-7.18,13.98,1.95,16.53,5.58,3.4,4.84,3.33,10.88,1.98,16.38-2.92,11.85-12.78,22.33-22.12,29.62-12.45,9.72-30.98,13.88-46.38,14.92-17.26,1.16-34.28-3.7-46.1-16.57-5-5.45-12.49-20.04-2.3-24.79,7.7-3.6,17.84,3.11,22.96,8.24,1.33,1.33,6.44-.48,6.35-2.48-.27-6.42-1.26-12.79-.82-19.23.74-10.86,9.77-17.75,19.86-11.99,14.73,8.41,11.91,27.99,6.83,41.1-5.09,13.15-12.24,25.16-13.58,39.47-1.23,13.14,4.16,28.9,16.4,35.21,10.26,5.29,25.31,1.16,34.16-5.17,4.35-3.11,7.4-7.44,10.36-11.83,1.51-2.24,3.06-4.75,5.42-6.2,2.96-1.81,8.13.81,11.03,1.91,10.63,4.03,23.82,10.62,28.6,21.61,2.63,6.05-.8,17.21-8.41,11.01-6.89-5.62-4.08-16.46,2.61-20.63,10.54-6.57,25.68,6,35.58,9.44,10.18,3.52,19.87-.06,24.75-9.73,1.41-2.78-5.34-1.34-6.32.6-3.21,6.35-6.85,7.32-13.37,5.29-5.44-1.69-10.51-4.6-15.63-7.03-9.67-4.59-18.21-6.17-27.97-.97-9.77,5.21-14.09,17.8-5.67,26.35,6.46,6.57,18.39,1.97,21.04-6.04,3.91-11.79-6.03-20.56-15.08-26.29-7.64-4.84-19.77-11.76-29.15-9.69-11.69,2.58-13.59,15.2-22.78,21.1-6.64,4.27-15.18,5.51-22.66,3.04-8.1-2.67-12.59-11.86-14.85-19.43-9.19-30.76,28.09-57.93,12.92-87.67-5.91-11.59-19.91-15.01-30.75-8.54-13.12,7.83-9.75,23.18-9.21,35.92,2.12-.83,4.23-1.65,6.35-2.48-7.4-7.41-17.85-11.71-28.23-8.8-10.67,2.99-14.62,13.44-10.4,23.28,5.37,12.52,18.5,20.28,31.02,23.7,15.99,4.37,33.01,2.52,48.73-1.99,22.11-6.34,44.96-20.23,52.7-43.37,3.53-10.55,1.07-21.05-8.82-27.05-7.46-4.53-18.4-2.16-22.41,5.8-5.6,11.1,6.77,24.9,15.19,30.48,5.93,3.92,12.72,6.76,19.49,8.9,12.49,3.95,25.96,5.76,39.02,4.46,13.7-1.37,27.49-7.17,35.77-18.56,12.15-16.7,10.62-39.4,7.23-58.65-2.52-14.29-7.05-26.99-16.26-38.35-8.24-10.17-19.38-17.7-31.13-23.26-20.71-9.8-47.44-13.93-66.49,1.49-9.87,7.99-14.18,20.34-13.39,32.78.57,9.13,1.93,22.32,10.06,28.06,8.29,5.86,17.8-3.75,21.69-10.22,6.81-11.33,7.23-23.94.13-35.21-7.78-12.35-23.32-20.67-36.29-26.43-11.96-5.31-23.78-4.8-35.98-.81-21.58,7.05-41.87,26.74-37.72,51.03,1.9,11.11,8,26.3,18.58,31.74,8.42,4.33,15.58-4.32,17.56-11.44,6.68-24.05-19.16-41.96-40.15-43.66-25.11-2.04-45.29,15.74-52.83,38.65-4.34,13.19-3.31,27.8,2.2,40.45,4.71,10.81,14.3,22.35,26.28,24.98,10.43,2.3,20.04-6.64,19.72-16.98-.36-11.71-11.63-22.18-21.31-27.06-21.32-10.77-47.33-1.15-57.19,20.28-8.31,18.06-3.29,40.46,6.23,56.99,12.41,21.56,34.97,32.5,59.32,33.4,2.12.08,7.66-3.93,3.78-4.07h0Z"/>
      </g>
      <path class="cls-3" d="M95.75,316.15c.69,6.25-3.67,11.86-9.74,12.53-6.07.67-11.55-3.85-12.24-10.1s3.67-11.86,9.74-12.53c6.07-.67,11.55,3.85,12.24,10.1h0Z"/>
      <path class="cls-3" d="M164.98,259.96c.45,4.06-2.25,7.69-6.04,8.11-3.78.42-7.21-2.54-7.66-6.6-.45-4.06,2.25-7.69,6.04-8.11,3.78-.42,7.21,2.54,7.66,6.6h0Z"/>
      <path class="cls-3" d="M264.08,234.86c.57,5.15-3.37,9.81-8.8,10.41-5.43.6-10.29-3.09-10.86-8.23-.57-5.15,3.37-9.81,8.8-10.41,5.43-.6,10.29,3.09,10.85,8.24h0Z"/>
      <path class="cls-3" d="M301.11,409.1c.38,3.47-.69,6.97-2.99,9.71-2.3,2.74-5.63,4.51-9.26,4.91-7.56.84-14.34-4.35-15.14-11.59-.8-7.24,4.69-13.78,12.25-14.62,7.56-.84,14.35,4.35,15.14,11.59h0Z"/>
      <path class="cls-3" d="M239.73,431.65c.65,5.92-3.48,11.23-9.24,11.87-5.76.64-10.95-3.65-11.61-9.57-.65-5.92,3.48-11.23,9.24-11.87,5.76-.64,10.95,3.65,11.61,9.57h0Z"/>
      <path class="cls-3" d="M178.4,430.59c.47,4.27-2.88,8.15-7.48,8.66-4.6.51-8.72-2.54-9.19-6.82-.47-4.28,2.88-8.15,7.48-8.66,4.6-.51,8.72,2.54,9.19,6.82h0Z"/>
    </g>
    <g>
      <g>
        <path class="cls-1" d="M343.82,784.24c97.07-122.3,228.86-235.46,131.2-438.45-27.54-57.25-74.76-103.31-133.42-127.7-119.18-49.55-235.25-22.49-314.07,46.22,16.77-57.3,47.72-111.34,92.92-156.53,143.7-143.7,376.69-143.7,520.39,0,.05.05.09.1.14.15,56.41,47.16,105.3,151.64,94.23,221.96-12.98,82.43-3.25,129.17,44.14,180.44,47.38,51.28,53.22,73.99,12.33,85.03-40.89,11.03-43.49,37.65-38.3,46.73,6.76,11.84,17.85,24.32,17.52,37.32-.48,19.17-26.94,9.26-35.7,13.31-4.22,1.95,14.93,2.6,22.72,24.66,7.79,22.07-51.93,31.8-41.54,48.68,10.39,16.88,33.1,116.18-57.12,92.17-90.22-24.02-143.55-17.56-196.02,31.16-36.35,33.75-56.68,95.42.44,192.78,0,0-237.33-149.94-119.87-297.93Z"/>
        <g>
          <path class="cls-7" d="M21.28,315.86s-.08.22-.2.56c.13-.36.2-.56.2-.56Z"/>
          <path class="cls-3" d="M100.61,594.77C-27.05,468.53,20.5,332.55,24.06,323c.13-.33.21-.55.21-.55-.05,94.32,83.26,163.32,164.35,242.09,107.42,104.34,125.56,241.89,73.49,351.2,20.57-147.95-43.1-203.86-161.51-320.96Z"/>
          <path class="cls-3" d="M24.06,323c-3.56,9.55-51.11,145.53,76.55,271.77,118.41,117.1,182.07,173.01,161.51,320.96,0,0,5.09-70.06-27.25-130.45-44.31-82.76-174.87-122.17-220.22-241.41-36.43-95.79,6.18-212.31,9.41-220.87Z"/>
        </g>
      </g>
      <g>
        <path class="cls-3" d="M415.28,291.33c75.47,94.43,150.11,317.42-100.24,473.47,202.47-303.71,100.24-473.47,100.24-473.47Z"/>
        <path class="cls-3" d="M415.28,291.33s102.22,169.76-100.24,473.47c0,0-34.16-128.16,54.84-270.14,72.82-116.18,45.4-203.33,45.4-203.33Z"/>
      </g>
    </g>
    <g>
      <g class="cls-4">
        <path class="cls-3" d="M179.68,392.28c19.97-10.79,36.26,14.68,56,5.43,12.43-5.79,29.08-28.64,39.25-27.11,19.52,2.7,34.37,16.32,54.16,14.43,46.4-4.44,34.11-67.71,9.67-96.83-13.88-16.55-26.35-25.88-49.57-27.29-18.61-1.48-28,29.73-28,29.73-8.56-20.92-24.78-38.77-43.43-36.51-18.99,2.3-46.13,17.54-43.34,42.85,0,0-19.95-17.46-34.15-6.39-18.91,14.75,6.96,45.61,6.96,45.61-23.48-14.19-45.42,1.11-49.33,30.19-4.05,30.13,12.93,71.17,46.75,58.88,29.9-10.87,25.92-28.09,35.02-33h0Z"/>
        <path class="cls-5" d="M144.82,440.3c-25.89-.96-47.88-13.84-59.38-37.3-9.33-19.03-11.6-44.9,4.21-61.21,10.2-10.52,25.53-10.02,37.99-4.27,11.45,5.29,26.51,22.74,16.17,35.06-4.78,5.69-16.05-4.51-19.3-7.71-5.45-5.38-9.28-12.39-11.85-19.54-5.1-14.19-3.14-30.2,3.48-43.51,6.45-12.98,17.72-22.52,32.34-24.03,13-1.34,26,4.03,35.11,13.14,8.54,8.54,12.81,21.86,6.48,32.98-3.56,6.26-12.6-8.28-13.94-10.66-3.5-6.19-5.94-13.19-7.14-20.2-4.76-27.86,29.53-51.41,54.72-45.12,8.3,2.07,15.95,6.64,23.14,11.13,7.32,4.57,14.18,9.58,19.2,16.72,8.37,11.91,5.95,28.01-3.69,38.46-9.46,10.25-14.69-21.71-14.98-26.26-.96-15.23,6.87-29.1,21.37-34.54,12.01-4.5,26.68-.83,38.3,3.21,12.86,4.47,24.66,11.82,34.31,21.4,10.89,10.8,16.34,24.09,19.4,38.86,2.6,12.54,3.89,25.55,2.17,38.29-2.14,15.82-10.92,29.59-26.73,34.18-13.01,3.78-27.45,2.15-40.38-1.18-5.01-1.29-9.97-2.95-14.67-5.13-6.38-2.97-12.29-6.5-17.01-11.78-4.74-5.31-9.5-14.64-5.98-21.62,3.62-7.18,13.98,1.95,16.53,5.58,3.4,4.84,3.33,10.88,1.98,16.38-2.92,11.85-12.78,22.33-22.12,29.62-12.45,9.72-30.98,13.88-46.38,14.92-17.26,1.16-34.28-3.7-46.1-16.57-5-5.45-12.49-20.04-2.3-24.79,7.7-3.6,17.84,3.11,22.96,8.24,1.33,1.33,6.44-.48,6.35-2.48-.27-6.42-1.26-12.79-.82-19.23.74-10.86,9.77-17.75,19.86-11.99,14.73,8.41,11.91,27.99,6.83,41.1-5.09,13.15-12.24,25.16-13.58,39.47-1.23,13.14,4.16,28.9,16.4,35.21,10.26,5.29,25.31,1.16,34.16-5.17,4.35-3.11,7.4-7.44,10.36-11.83,1.51-2.24,3.06-4.75,5.42-6.2,2.96-1.81,8.13.81,11.03,1.91,10.63,4.03,23.82,10.62,28.6,21.61,2.63,6.05-.8,17.21-8.41,11.01-6.89-5.62-4.08-16.46,2.61-20.63,10.54-6.57,25.68,6,35.58,9.44,10.18,3.52,19.87-.06,24.75-9.73,1.41-2.78-5.34-1.34-6.32.6-3.21,6.35-6.85,7.32-13.37,5.29-5.44-1.69-10.51-4.6-15.63-7.03-9.67-4.59-18.21-6.17-27.97-.97-9.77,5.21-14.09,17.8-5.67,26.35,6.46,6.57,18.39,1.97,21.04-6.04,3.91-11.79-6.03-20.56-15.08-26.29-7.64-4.84-19.77-11.76-29.15-9.69-11.69,2.58-13.59,15.2-22.78,21.1-6.64,4.27-15.18,5.51-22.66,3.04-8.1-2.67-12.59-11.86-14.85-19.43-9.19-30.76,28.09-57.93,12.92-87.67-5.91-11.59-19.91-15.01-30.75-8.54-13.12,7.83-9.75,23.18-9.21,35.92,2.12-.83,4.23-1.65,6.35-2.48-7.4-7.41-17.85-11.71-28.23-8.8-10.67,2.99-14.62,13.44-10.4,23.28,5.37,12.52,18.5,20.28,31.02,23.7,15.99,4.37,33.01,2.52,48.73-1.99,22.11-6.34,44.96-20.23,52.7-43.37,3.53-10.55,1.07-21.05-8.82-27.05-7.46-4.53-18.4-2.16-22.41,5.8-5.6,11.1,6.77,24.9,15.19,30.48,5.93,3.92,12.72,6.76,19.49,8.9,12.49,3.95,25.96,5.76,39.02,4.46,13.7-1.37,27.49-7.17,35.77-18.56,12.15-16.7,10.62-39.4,7.23-58.65-2.52-14.29-7.05-26.99-16.26-38.35-8.24-10.17-19.38-17.7-31.13-23.26-20.71-9.8-47.44-13.93-66.49,1.49-9.87,7.99-14.18,20.34-13.39,32.78.57,9.13,1.93,22.32,10.06,28.06,8.29,5.86,17.8-3.75,21.69-10.22,6.81-11.33,7.23-23.94.13-35.21-7.78-12.35-23.32-20.67-36.29-26.43-11.96-5.31-23.78-4.8-35.98-.81-21.58,7.05-41.87,26.74-37.72,51.03,1.9,11.11,8,26.3,18.58,31.74,8.42,4.33,15.58-4.32,17.56-11.44,6.68-24.05-19.16-41.96-40.15-43.66-25.11-2.04-45.29,15.74-52.83,38.65-4.34,13.19-3.31,27.8,2.2,40.45,4.71,10.81,14.3,22.35,26.28,24.98,10.43,2.3,20.04-6.64,19.72-16.98-.36-11.71-11.63-22.18-21.31-27.06-21.32-10.77-47.33-1.15-57.19,20.28-8.31,18.06-3.29,40.46,6.23,56.99,12.41,21.56,34.97,32.5,59.32,33.4,2.12.08,7.66-3.93,3.78-4.07h0Z"/>
      </g>
      <path class="cls-3" d="M95.75,316.15c.69,6.25-3.67,11.86-9.74,12.53-6.07.67-11.55-3.85-12.24-10.1s3.67-11.86,9.74-12.53c6.07-.67,11.55,3.85,12.24,10.1h0Z"/>
      <path class="cls-3" d="M164.98,259.96c.45,4.06-2.25,7.69-6.04,8.11-3.78.42-7.21-2.54-7.66-6.6-.45-4.06,2.25-7.69,6.04-8.11,3.78-.42,7.21,2.54,7.66,6.6h0Z"/>
      <path class="cls-3" d="M264.08,234.86c.57,5.15-3.37,9.81-8.8,10.41-5.43.6-10.29-3.09-10.86-8.23-.57-5.15,3.37-9.81,8.8-10.41,5.43-.6,10.29,3.09,10.85,8.24h0Z"/>
      <path class="cls-3" d="M301.11,409.1c.38,3.47-.69,6.97-2.99,9.71-2.3,2.74-5.63,4.51-9.26,4.91-7.56.84-14.34-4.35-15.14-11.59-.8-7.24,4.69-13.78,12.25-14.62,7.56-.84,14.35,4.35,15.14,11.59h0Z"/>
      <path class="cls-3" d="M239.73,431.65c.65,5.92-3.48,11.23-9.24,11.87-5.76.64-10.95-3.65-11.61-9.57-.65-5.92,3.48-11.23,9.24-11.87,5.76-.64,10.95,3.65,11.61,9.57h0Z"/>
      <path class="cls-3" d="M178.4,430.59c.47,4.27-2.88,8.15-7.48,8.66-4.6.51-8.72-2.54-9.19-6.82-.47-4.28,2.88-8.15,7.48-8.66,4.6-.51,8.72,2.54,9.19,6.82h0Z"/>
    </g>
  </g>
</svg>