<?xml version="1.0" encoding="UTF-8"?>
<svg id="Layer_2" data-name="Layer 2" xmlns="http://www.w3.org/2000/svg" xmlns:xlink="http://www.w3.org/1999/xlink" viewBox="0 0 403.1 532.65">
  <defs>
    <style>
      .cls-1 {
        fill: #fff;
      }

      .cls-2 {
        fill: none;
      }

      .cls-3 {
        fill: #7caf4f;
      }

      .cls-4 {
        clip-path: url(#clippath-1);
      }

      .cls-5 {
        fill: #367588;
      }

      .cls-6 {
        fill: url(#linear-gradient);
      }

      .cls-7 {
        clip-path: url(#clippath);
      }
    </style>
    <linearGradient id="linear-gradient" x1="-4288.96" y1="155.61" x2="-4288.86" y2="155.61" gradientTransform="translate(-4278.49) rotate(-180) scale(1 -1)" gradientUnits="userSpaceOnUse">
      <stop offset="0" stop-color="#adaf2a"/>
      <stop offset="1" stop-color="#7caf2a"/>
    </linearGradient>
    <clipPath id="clippath">
      <rect class="cls-2" x="34.51" y="113.57" width="148.75" height="128.24" transform="translate(-18.85 13.03) rotate(-6.3)"/>
    </clipPath>
    <clipPath id="clippath-1">
      <rect class="cls-2" x="34.51" y="113.57" width="148.75" height="128.24" transform="translate(-18.85 13.03) rotate(-6.3)"/>
    </clipPath>
  </defs>
  <g id="OBJECTS">
    <g>
      <g>
        <path class="cls-5" d="M169.23,386.01c47.78-60.2,112.65-115.89,64.58-215.81-13.56-28.18-36.8-50.85-65.67-62.85-58.66-24.39-115.79-11.07-154.59,22.75,8.25-28.21,23.49-54.8,45.73-77.05,70.73-70.73,185.41-70.73,256.14,0,.02.02.05.05.07.07,27.76,23.21,51.83,74.64,46.38,109.25-6.39,40.57-1.6,63.58,21.72,88.81,23.32,25.24,26.2,36.42,6.07,41.85-20.13,5.43-21.4,18.53-18.85,23,3.33,5.83,8.79,11.97,8.63,18.37-.24,9.44-13.26,4.56-17.57,6.55-2.08.96,7.35,1.28,11.18,12.14,3.83,10.86-25.56,15.65-20.45,23.96,5.11,8.31,16.29,57.19-28.11,45.37-44.41-11.82-70.66-8.65-96.48,15.33-17.89,16.61-27.9,46.97.22,94.89,0,0-116.81-73.8-59-146.64Z"/>
        <g>
          <path class="cls-6" d="M10.47,155.47s-.04.11-.1.27c.06-.17.1-.27.1-.27Z"/>
          <path class="cls-3" d="M49.52,292.75C-13.31,230.61,10.09,163.68,11.84,158.98c.06-.16.1-.27.1-.27-.02,46.43,40.98,80.38,80.89,119.16,52.87,51.36,61.8,119.06,36.17,172.86,10.12-72.82-21.21-100.34-79.49-157.98Z"/>
          <path class="cls-3" d="M11.84,158.98c-1.75,4.7-25.16,71.63,37.68,133.77,58.28,57.63,89.62,85.15,79.49,157.98,0,0,2.5-34.48-13.41-64.21-21.81-40.73-86.07-60.13-108.39-118.82-17.93-47.15,3.04-104.5,4.63-108.72Z"/>
        </g>
      </g>
      <g>
        <path class="cls-3" d="M204.4,143.4c37.14,46.48,73.89,156.24-49.34,233.04,99.65-149.49,49.34-233.04,49.34-233.04Z"/>
        <path class="cls-3" d="M204.4,143.4s50.32,83.56-49.34,233.04c0,0-16.81-63.08,26.99-132.97,35.84-57.18,22.35-100.08,22.35-100.08Z"/>
      </g>
    </g>
    <g>
      <g class="cls-7">
        <path class="cls-3" d="M88.44,193.08c9.83-5.31,17.85,7.22,27.56,2.67,6.12-2.85,14.32-14.09,19.32-13.34,9.61,1.33,16.92,8.03,26.66,7.1,22.84-2.18,16.79-33.33,4.76-47.66-6.83-8.15-12.97-12.74-24.4-13.43-9.16-.73-13.78,14.63-13.78,14.63-4.21-10.3-12.2-19.08-21.37-17.97-9.35,1.13-22.71,8.63-21.33,21.09,0,0-9.82-8.59-16.81-3.14-9.31,7.26,3.43,22.45,3.43,22.45-11.56-6.99-22.36.55-24.28,14.86-1.99,14.83,6.36,35.03,23.01,28.98,14.72-5.35,12.76-13.82,17.23-16.24h0Z"/>
        <path d="M71.28,216.72c-12.74-.47-23.57-6.81-29.23-18.36-4.59-9.37-5.71-22.1,2.07-30.13,5.02-5.18,12.57-4.93,18.7-2.1,5.64,2.61,13.05,11.19,7.96,17.26-2.35,2.8-7.9-2.22-9.5-3.8-2.68-2.65-4.57-6.1-5.83-9.62-2.51-6.99-1.54-14.86,1.71-21.42,3.17-6.39,8.72-11.09,15.92-11.83,6.4-.66,12.8,1.98,17.28,6.47,4.2,4.21,6.3,10.76,3.19,16.23-1.75,3.08-6.2-4.08-6.86-5.25-1.72-3.05-2.93-6.49-3.51-9.94-2.34-13.71,14.53-25.3,26.93-22.21,4.09,1.02,7.85,3.27,11.39,5.48,3.6,2.25,6.98,4.72,9.45,8.23,4.12,5.86,2.93,13.79-1.82,18.93-4.65,5.05-7.23-10.69-7.37-12.92-.47-7.5,3.38-14.33,10.52-17,5.91-2.22,13.13-.41,18.85,1.58,6.33,2.2,12.14,5.82,16.89,10.53,5.36,5.31,8.04,11.86,9.55,19.13,1.28,6.17,1.91,12.57,1.07,18.85-1.05,7.79-5.37,14.56-13.16,16.82-6.4,1.86-13.51,1.06-19.87-.58-2.47-.64-4.91-1.45-7.22-2.53-3.14-1.46-6.05-3.2-8.37-5.8-2.33-2.61-4.68-7.21-2.94-10.64,1.78-3.54,6.88.96,8.14,2.75,1.67,2.38,1.64,5.35.97,8.06-1.43,5.83-6.29,10.99-10.89,14.58-6.13,4.78-15.25,6.83-22.83,7.34-8.5.57-16.87-1.82-22.69-8.16-2.46-2.68-6.15-9.86-1.13-12.2,3.79-1.77,8.78,1.53,11.3,4.06.65.66,3.17-.24,3.13-1.22-.13-3.16-.62-6.3-.4-9.46.36-5.35,4.81-8.74,9.78-5.9,7.25,4.14,5.86,13.78,3.36,20.23-2.51,6.47-6.03,12.39-6.69,19.43-.61,6.47,2.05,14.23,8.07,17.33,5.05,2.6,12.46.57,16.82-2.55,2.14-1.53,3.64-3.66,5.1-5.82.74-1.1,1.51-2.34,2.67-3.05,1.46-.89,4,.4,5.43.94,5.23,1.98,11.73,5.23,14.08,10.64,1.3,2.98-.4,8.47-4.14,5.42-3.39-2.77-2.01-8.1,1.28-10.15,5.19-3.23,12.64,2.96,17.51,4.64,5.01,1.73,9.78-.03,12.18-4.79.69-1.37-2.63-.66-3.11.3-1.58,3.13-3.37,3.6-6.58,2.6-2.68-.83-5.17-2.26-7.69-3.46-4.76-2.26-8.96-3.04-13.77-.48-4.81,2.56-6.93,8.76-2.79,12.97,3.18,3.23,9.05.97,10.36-2.97,1.92-5.81-2.97-10.12-7.42-12.94-3.76-2.38-9.73-5.79-14.35-4.77-5.76,1.27-6.69,7.48-11.21,10.39-3.27,2.1-7.47,2.71-11.15,1.5-3.99-1.31-6.2-5.84-7.31-9.56-4.52-15.14,13.82-28.51,6.36-43.15-2.91-5.71-9.8-7.39-15.13-4.2-6.46,3.85-4.8,11.41-4.53,17.68,1.04-.41,2.08-.81,3.13-1.22-3.64-3.65-8.79-5.76-13.9-4.33-5.25,1.47-7.2,6.61-5.12,11.46,2.64,6.16,9.11,9.98,15.27,11.66,7.87,2.15,16.25,1.24,23.98-.98,10.88-3.12,22.13-9.96,25.94-21.34,1.74-5.19.53-10.36-4.34-13.31-3.67-2.23-9.06-1.06-11.03,2.85-2.76,5.47,3.33,12.26,7.48,15,2.92,1.93,6.26,3.33,9.59,4.38,6.15,1.94,12.78,2.84,19.21,2.2,6.74-.67,13.53-3.53,17.61-9.13,5.98-8.22,5.23-19.39,3.56-28.87-1.24-7.03-3.47-13.28-8-18.88-4.06-5.01-9.54-8.71-15.32-11.45-10.19-4.82-23.35-6.86-32.73.73-4.86,3.93-6.98,10.01-6.59,16.13.28,4.49.95,10.99,4.95,13.81,4.08,2.88,8.76-1.84,10.68-5.03,3.35-5.58,3.56-11.78.06-17.33-3.83-6.08-11.48-10.17-17.86-13.01-5.89-2.61-11.71-2.36-17.71-.4-10.62,3.47-20.61,13.16-18.57,25.12.93,5.47,3.94,12.94,9.15,15.62,4.14,2.13,7.67-2.13,8.64-5.63,3.29-11.84-9.43-20.65-19.76-21.49-12.36-1-22.29,7.75-26,19.02-2.13,6.49-1.63,13.69,1.08,19.91,2.32,5.32,7.04,11,12.93,12.3,5.13,1.13,9.86-3.27,9.71-8.36-.18-5.76-5.73-10.91-10.49-13.32-10.49-5.3-23.3-.56-28.15,9.98-4.09,8.89-1.62,19.91,3.06,28.05,6.11,10.61,17.21,16,29.2,16.44,1.04.04,3.77-1.94,1.86-2.01h0Z"/>
      </g>
      <path class="cls-3" d="M47.13,155.61c.34,3.08-1.81,5.84-4.79,6.17-2.99.33-5.69-1.9-6.03-4.97s1.81-5.84,4.79-6.17,5.69,1.9,6.03,4.97h0Z"/>
      <path class="cls-3" d="M81.2,127.95c.22,2-1.11,3.79-2.97,3.99-1.86.21-3.55-1.25-3.77-3.25-.22-2,1.11-3.79,2.97-3.99,1.86-.21,3.55,1.25,3.77,3.25h0Z"/>
      <path class="cls-3" d="M129.98,115.6c.28,2.53-1.66,4.83-4.33,5.12-2.67.3-5.06-1.52-5.34-4.05-.28-2.53,1.66-4.83,4.33-5.12,2.67-.3,5.06,1.52,5.34,4.05h0Z"/>
      <path class="cls-3" d="M148.21,201.36c.19,1.71-.34,3.43-1.47,4.78-1.13,1.35-2.77,2.22-4.56,2.42-3.72.41-7.06-2.14-7.45-5.7-.39-3.56,2.31-6.78,6.03-7.19,3.72-.41,7.06,2.14,7.45,5.7h0Z"/>
      <path class="cls-3" d="M118,212.46c.32,2.91-1.71,5.53-4.55,5.84-2.83.31-5.39-1.8-5.71-4.71-.32-2.91,1.71-5.53,4.55-5.84,2.83-.31,5.39,1.8,5.71,4.71h0Z"/>
      <path class="cls-3" d="M87.81,211.94c.23,2.1-1.42,4.01-3.68,4.26-2.27.25-4.29-1.25-4.52-3.36s1.42-4.01,3.68-4.26c2.27-.25,4.29,1.25,4.52,3.36h0Z"/>
    </g>
    <g>
      <g>
        <path class="cls-1" d="M169.23,386.01c47.78-60.2,112.65-115.89,64.58-215.81-13.56-28.18-36.8-50.85-65.67-62.85-58.66-24.39-115.79-11.07-154.59,22.75,8.25-28.21,23.49-54.8,45.73-77.05,70.73-70.73,185.41-70.73,256.14,0,.02.02.05.05.07.07,27.76,23.21,51.83,74.64,46.38,109.25-6.39,40.57-1.6,63.58,21.72,88.81,23.32,25.24,26.2,36.42,6.07,41.85-20.13,5.43-21.4,18.53-18.85,23,3.33,5.83,8.79,11.97,8.63,18.37-.24,9.44-13.26,4.56-17.57,6.55-2.08.96,7.35,1.28,11.18,12.14,3.83,10.86-25.56,15.65-20.45,23.96,5.11,8.31,16.29,57.19-28.11,45.37-44.41-11.82-70.66-8.65-96.48,15.33-17.89,16.61-27.9,46.97.22,94.89,0,0-116.81-73.8-59-146.64Z"/>
        <g>
          <path class="cls-6" d="M10.47,155.47s-.04.11-.1.27c.06-.17.1-.27.1-.27Z"/>
          <path class="cls-3" d="M49.52,292.75C-13.31,230.61,10.09,163.68,11.84,158.98c.06-.16.1-.27.1-.27-.02,46.43,40.98,80.38,80.89,119.16,52.87,51.36,61.8,119.06,36.17,172.86,10.12-72.82-21.21-100.34-79.49-157.98Z"/>
          <path class="cls-3" d="M11.84,158.98c-1.75,4.7-25.16,71.63,37.68,133.77,58.28,57.63,89.62,85.15,79.49,157.98,0,0,2.5-34.48-13.41-64.21-21.81-40.73-86.07-60.13-108.39-118.82-17.93-47.15,3.04-104.5,4.63-108.72Z"/>
        </g>
      </g>
      <g>
        <path class="cls-3" d="M204.4,143.4c37.14,46.48,73.89,156.24-49.34,233.04,99.65-149.49,49.34-233.04,49.34-233.04Z"/>
        <path class="cls-3" d="M204.4,143.4s50.32,83.56-49.34,233.04c0,0-16.81-63.08,26.99-132.97,35.84-57.18,22.35-100.08,22.35-100.08Z"/>
      </g>
    </g>
    <g>
      <g class="cls-4">
        <path class="cls-3" d="M88.44,193.08c9.83-5.31,17.85,7.22,27.56,2.67,6.12-2.85,14.32-14.09,19.32-13.34,9.61,1.33,16.92,8.03,26.66,7.1,22.84-2.18,16.79-33.33,4.76-47.66-6.83-8.15-12.97-12.74-24.4-13.43-9.16-.73-13.78,14.63-13.78,14.63-4.21-10.3-12.2-19.08-21.37-17.97-9.35,1.13-22.71,8.63-21.33,21.09,0,0-9.82-8.59-16.81-3.14-9.31,7.26,3.43,22.45,3.43,22.45-11.56-6.99-22.36.55-24.28,14.86-1.99,14.83,6.36,35.03,23.01,28.98,14.72-5.35,12.76-13.82,17.23-16.24h0Z"/>
        <path class="cls-1" d="M71.28,216.72c-12.74-.47-23.57-6.81-29.23-18.36-4.59-9.37-5.71-22.1,2.07-30.13,5.02-5.18,12.57-4.93,18.7-2.1,5.64,2.61,13.05,11.19,7.96,17.26-2.35,2.8-7.9-2.22-9.5-3.8-2.68-2.65-4.57-6.1-5.83-9.62-2.51-6.99-1.54-14.86,1.71-21.42,3.17-6.39,8.72-11.09,15.92-11.83,6.4-.66,12.8,1.98,17.28,6.47,4.2,4.21,6.3,10.76,3.19,16.23-1.75,3.08-6.2-4.08-6.86-5.25-1.72-3.05-2.93-6.49-3.51-9.94-2.34-13.71,14.53-25.3,26.93-22.21,4.09,1.02,7.85,3.27,11.39,5.48,3.6,2.25,6.98,4.72,9.45,8.23,4.12,5.86,2.93,13.79-1.82,18.93-4.65,5.05-7.23-10.69-7.37-12.92-.47-7.5,3.38-14.33,10.52-17,5.91-2.22,13.13-.41,18.85,1.58,6.33,2.2,12.14,5.82,16.89,10.53,5.36,5.31,8.04,11.86,9.55,19.13,1.28,6.17,1.91,12.57,1.07,18.85-1.05,7.79-5.37,14.56-13.16,16.82-6.4,1.86-13.51,1.06-19.87-.58-2.47-.64-4.91-1.45-7.22-2.53-3.14-1.46-6.05-3.2-8.37-5.8-2.33-2.61-4.68-7.21-2.94-10.64,1.78-3.54,6.88.96,8.14,2.75,1.67,2.38,1.64,5.35.97,8.06-1.43,5.83-6.29,10.99-10.89,14.58-6.13,4.78-15.25,6.83-22.83,7.34-8.5.57-16.87-1.82-22.69-8.16-2.46-2.68-6.15-9.86-1.13-12.2,3.79-1.77,8.78,1.53,11.3,4.06.65.66,3.17-.24,3.13-1.22-.13-3.16-.62-6.3-.4-9.46.36-5.35,4.81-8.74,9.78-5.9,7.25,4.14,5.86,13.78,3.36,20.23-2.51,6.47-6.03,12.39-6.69,19.43-.61,6.47,2.05,14.23,8.07,17.33,5.05,2.6,12.46.57,16.82-2.55,2.14-1.53,3.64-3.66,5.1-5.82.74-1.1,1.51-2.34,2.67-3.05,1.46-.89,4,.4,5.43.94,5.23,1.98,11.73,5.23,14.08,10.64,1.3,2.98-.4,8.47-4.14,5.42-3.39-2.77-2.01-8.1,1.28-10.15,5.19-3.23,12.64,2.96,17.51,4.64,5.01,1.73,9.78-.03,12.18-4.79.69-1.37-2.63-.66-3.11.3-1.58,3.13-3.37,3.6-6.58,2.6-2.68-.83-5.17-2.26-7.69-3.46-4.76-2.26-8.96-3.04-13.77-.48-4.81,2.56-6.93,8.76-2.79,12.97,3.18,3.23,9.05.97,10.36-2.97,1.92-5.81-2.97-10.12-7.42-12.94-3.76-2.38-9.73-5.79-14.35-4.77-5.76,1.27-6.69,7.48-11.21,10.39-3.27,2.1-7.47,2.71-11.15,1.5-3.99-1.31-6.2-5.84-7.31-9.56-4.52-15.14,13.82-28.51,6.36-43.15-2.91-5.71-9.8-7.39-15.13-4.2-6.46,3.85-4.8,11.41-4.53,17.68,1.04-.41,2.08-.81,3.13-1.22-3.64-3.65-8.79-5.76-13.9-4.33-5.25,1.47-7.2,6.61-5.12,11.46,2.64,6.16,9.11,9.98,15.27,11.66,7.87,2.15,16.25,1.24,23.98-.98,10.88-3.12,22.13-9.96,25.94-21.34,1.74-5.19.53-10.36-4.34-13.31-3.67-2.23-9.06-1.06-11.03,2.85-2.76,5.47,3.33,12.26,7.48,15,2.92,1.93,6.26,3.33,9.59,4.38,6.15,1.94,12.78,2.84,19.21,2.2,6.74-.67,13.53-3.53,17.61-9.13,5.98-8.22,5.23-19.39,3.56-28.87-1.24-7.03-3.47-13.28-8-18.88-4.06-5.01-9.54-8.71-15.32-11.45-10.19-4.82-23.35-6.86-32.73.73-4.86,3.93-6.98,10.01-6.59,16.13.28,4.49.95,10.99,4.95,13.81,4.08,2.88,8.76-1.84,10.68-5.03,3.35-5.58,3.56-11.78.06-17.33-3.83-6.08-11.48-10.17-17.86-13.01-5.89-2.61-11.71-2.36-17.71-.4-10.62,3.47-20.61,13.16-18.57,25.12.93,5.47,3.94,12.94,9.15,15.62,4.14,2.13,7.67-2.13,8.64-5.63,3.29-11.84-9.43-20.65-19.76-21.49-12.36-1-22.29,7.75-26,19.02-2.13,6.49-1.63,13.69,1.08,19.91,2.32,5.32,7.04,11,12.93,12.3,5.13,1.13,9.86-3.27,9.71-8.36-.18-5.76-5.73-10.91-10.49-13.32-10.49-5.3-23.3-.56-28.15,9.98-4.09,8.89-1.62,19.91,3.06,28.05,6.11,10.61,17.21,16,29.2,16.44,1.04.04,3.77-1.94,1.86-2.01h0Z"/>
      </g>
      <path class="cls-3" d="M47.13,155.61c.34,3.08-1.81,5.84-4.79,6.17-2.99.33-5.69-1.9-6.03-4.97s1.81-5.84,4.79-6.17,5.69,1.9,6.03,4.97h0Z"/>
      <path class="cls-3" d="M81.2,127.95c.22,2-1.11,3.79-2.97,3.99-1.86.21-3.55-1.25-3.77-3.25-.22-2,1.11-3.79,2.97-3.99,1.86-.21,3.55,1.25,3.77,3.25h0Z"/>
      <path class="cls-3" d="M129.98,115.6c.28,2.53-1.66,4.83-4.33,5.12-2.67.3-5.06-1.52-5.34-4.05-.28-2.53,1.66-4.83,4.33-5.12,2.67-.3,5.06,1.52,5.34,4.05h0Z"/>
      <path class="cls-3" d="M148.21,201.36c.19,1.71-.34,3.43-1.47,4.78-1.13,1.35-2.77,2.22-4.56,2.42-3.72.41-7.06-2.14-7.45-5.7-.39-3.56,2.31-6.78,6.03-7.19,3.72-.41,7.06,2.14,7.45,5.7h0Z"/>
      <path class="cls-3" d="M118,212.46c.32,2.91-1.71,5.53-4.55,5.84-2.83.31-5.39-1.8-5.71-4.71-.32-2.91,1.71-5.53,4.55-5.84,2.83-.31,5.39,1.8,5.71,4.71h0Z"/>
      <path class="cls-3" d="M87.81,211.94c.23,2.1-1.42,4.01-3.68,4.26-2.27.25-4.29-1.25-4.52-3.36s1.42-4.01,3.68-4.26c2.27-.25,4.29,1.25,4.52,3.36h0Z"/>
    </g>
  </g>
</svg>