<?xml version="1.0" encoding="UTF-8"?>
<svg id="Layer_2" data-name="Layer 2" xmlns="http://www.w3.org/2000/svg" xmlns:xlink="http://www.w3.org/1999/xlink" viewBox="0 0 1413.37 532.65">
  <defs>
    <style>
      .cls-1 {
        letter-spacing: .06em;
      }

      .cls-2 {
        letter-spacing: -.05em;
      }

      .cls-2, .cls-3, .cls-4, .cls-5 {
        fill: #fff;
      }

      .cls-3 {
        letter-spacing: -.05em;
      }

      .cls-6 {
        fill: none;
      }

      .cls-7, .cls-8, .cls-9 {
        fill: #7caf4f;
      }

      .cls-10 {
        letter-spacing: .05em;
      }

      .cls-11 {
        clip-path: url(#clippath-1);
      }

      .cls-12 {
        font-family: Literata-Bold, Literata;
        font-size: 187.64px;
        font-variation-settings: 'opsz' 12, 'wght' 700;
        font-weight: 700;
      }

      .cls-8 {
        letter-spacing: -.04em;
      }

      .cls-5 {
        letter-spacing: -.04em;
      }

      .cls-13 {
        letter-spacing: .06em;
      }

      .cls-9, .cls-14 {
        letter-spacing: -.04em;
      }

      .cls-15 {
        letter-spacing: .05em;
      }

      .cls-16, .cls-14 {
        fill: #367588;
      }

      .cls-17 {
        letter-spacing: -.02em;
      }

      .cls-18 {
        letter-spacing: .06em;
      }

      .cls-19 {
        fill: url(#linear-gradient);
      }

      .cls-20 {
        letter-spacing: .06em;
      }

      .cls-21 {
        clip-path: url(#clippath);
      }
    </style>
    <linearGradient id="linear-gradient" x1="-4288.96" y1="155.61" x2="-4288.86" y2="155.61" gradientTransform="translate(-4278.49) rotate(-180) scale(1 -1)" gradientUnits="userSpaceOnUse">
      <stop offset="0" stop-color="#adaf2a"/>
      <stop offset="1" stop-color="#7caf2a"/>
    </linearGradient>
    <clipPath id="clippath">
      <rect class="cls-6" x="34.51" y="113.57" width="148.75" height="128.24" transform="translate(-18.85 13.03) rotate(-6.3)"/>
    </clipPath>
    <clipPath id="clippath-1">
      <rect class="cls-6" x="34.51" y="113.57" width="148.75" height="128.24" transform="translate(-18.85 13.03) rotate(-6.3)"/>
    </clipPath>
  </defs>
  <g id="OBJECTS">
    <text class="cls-12" transform="translate(475.15 162.05)"><tspan class="cls-3" x="0" y="0">Co</tspan><tspan class="cls-2" x="232.3" y="0">r</tspan><tspan class="cls-5" x="324.43" y="0">e</tspan><tspan class="cls-14" x="423.51" y="0"> </tspan><tspan class="cls-8" x="453.91" y="0">M</tspan><tspan class="cls-9" x="631.04" y="0">i</tspan><tspan class="cls-8" x="692.4" y="0">n</tspan><tspan class="cls-9" x="814.75" y="0">d</tspan><tspan class="cls-4"><tspan class="cls-17" x="0" y="181.39">W</tspan><tspan class="cls-10" x="204.34" y="181.39">e</tspan><tspan class="cls-20" x="320.5" y="181.39">l</tspan><tspan class="cls-13" x="399.68" y="181.39">l</tspan><tspan class="cls-1" x="478.49" y="181.39">n</tspan><tspan class="cls-15" x="619.22" y="181.39">e</tspan><tspan class="cls-18" x="735.38" y="181.39">ss</tspan></tspan></text>
    <g>
      <g>
        <path class="cls-16" d="M169.23,386.01c47.78-60.2,112.65-115.89,64.58-215.81-13.56-28.18-36.8-50.85-65.67-62.85-58.66-24.39-115.79-11.07-154.59,22.75,8.25-28.21,23.49-54.8,45.73-77.05,70.73-70.73,185.41-70.73,256.14,0,.02.02.05.05.07.07,27.76,23.21,51.83,74.64,46.38,109.25-6.39,40.57-1.6,63.58,21.72,88.81,23.32,25.24,26.2,36.42,6.07,41.85-20.13,5.43-21.4,18.53-18.85,23,3.33,5.83,8.79,11.97,8.63,18.37-.24,9.44-13.26,4.56-17.57,6.55-2.08.96,7.35,1.28,11.18,12.14,3.83,10.86-25.56,15.65-20.45,23.96,5.11,8.31,16.29,57.19-28.11,45.37-44.41-11.82-70.66-8.65-96.48,15.33-17.89,16.61-27.9,46.97.22,94.89,0,0-116.81-73.8-59-146.64Z"/>
        <g>
          <path class="cls-19" d="M10.47,155.47s-.04.11-.1.27c.06-.17.1-.27.1-.27Z"/>
          <path class="cls-7" d="M49.52,292.75C-13.31,230.61,10.09,163.68,11.84,158.98c.06-.16.1-.27.1-.27-.02,46.43,40.98,80.38,80.89,119.16,52.87,51.36,61.8,119.06,36.17,172.86,10.12-72.82-21.21-100.34-79.49-157.98Z"/>
          <path class="cls-7" d="M11.84,158.98c-1.75,4.7-25.16,71.63,37.68,133.77,58.28,57.63,89.62,85.15,79.49,157.98,0,0,2.5-34.48-13.41-64.21-21.81-40.73-86.07-60.13-108.39-118.82-17.93-47.15,3.04-104.5,4.63-108.72Z"/>
        </g>
      </g>
      <g>
        <path class="cls-7" d="M204.4,143.4c37.14,46.48,73.89,156.24-49.34,233.04,99.65-149.49,49.34-233.04,49.34-233.04Z"/>
        <path class="cls-7" d="M204.4,143.4s50.32,83.56-49.34,233.04c0,0-16.81-63.08,26.99-132.97,35.84-57.18,22.35-100.08,22.35-100.08Z"/>
      </g>
    </g>
    <g>
      <g class="cls-21">
        <path class="cls-7" d="M88.44,193.08c9.83-5.31,17.85,7.22,27.56,2.67,6.12-2.85,14.32-14.09,19.32-13.34,9.61,1.33,16.92,8.03,26.66,7.1,22.84-2.18,16.79-33.33,4.76-47.66-6.83-8.15-12.97-12.74-24.4-13.43-9.16-.73-13.78,14.63-13.78,14.63-4.21-10.3-12.2-19.08-21.37-17.97-9.35,1.13-22.71,8.63-21.33,21.09,0,0-9.82-8.59-16.81-3.14-9.31,7.26,3.43,22.45,3.43,22.45-11.56-6.99-22.36.55-24.28,14.86-1.99,14.83,6.36,35.03,23.01,28.98,14.72-5.35,12.76-13.82,17.23-16.24h0Z"/>
        <path d="M71.28,216.72c-12.74-.47-23.57-6.81-29.23-18.36-4.59-9.37-5.71-22.1,2.07-30.13,5.02-5.18,12.57-4.93,18.7-2.1,5.64,2.61,13.05,11.19,7.96,17.26-2.35,2.8-7.9-2.22-9.5-3.8-2.68-2.65-4.57-6.1-5.83-9.62-2.51-6.99-1.54-14.86,1.71-21.42,3.17-6.39,8.72-11.09,15.92-11.83,6.4-.66,12.8,1.98,17.28,6.47,4.2,4.21,6.3,10.76,3.19,16.23-1.75,3.08-6.2-4.08-6.86-5.25-1.72-3.05-2.93-6.49-3.51-9.94-2.34-13.71,14.53-25.3,26.93-22.21,4.09,1.02,7.85,3.27,11.39,5.48,3.6,2.25,6.98,4.72,9.45,8.23,4.12,5.86,2.93,13.79-1.82,18.93-4.65,5.05-7.23-10.69-7.37-12.92-.47-7.5,3.38-14.33,10.52-17,5.91-2.22,13.13-.41,18.85,1.58,6.33,2.2,12.14,5.82,16.89,10.53,5.36,5.31,8.04,11.86,9.55,19.13,1.28,6.17,1.91,12.57,1.07,18.85-1.05,7.79-5.37,14.56-13.16,16.82-6.4,1.86-13.51,1.06-19.87-.58-2.47-.64-4.91-1.45-7.22-2.53-3.14-1.46-6.05-3.2-8.37-5.8-2.33-2.61-4.68-7.21-2.94-10.64,1.78-3.54,6.88.96,8.14,2.75,1.67,2.38,1.64,5.35.97,8.06-1.43,5.83-6.29,10.99-10.89,14.58-6.13,4.78-15.25,6.83-22.83,7.34-8.5.57-16.87-1.82-22.69-8.16-2.46-2.68-6.15-9.86-1.13-12.2,3.79-1.77,8.78,1.53,11.3,4.06.65.66,3.17-.24,3.13-1.22-.13-3.16-.62-6.3-.4-9.46.36-5.35,4.81-8.74,9.78-5.9,7.25,4.14,5.86,13.78,3.36,20.23-2.51,6.47-6.03,12.39-6.69,19.43-.61,6.47,2.05,14.23,8.07,17.33,5.05,2.6,12.46.57,16.82-2.55,2.14-1.53,3.64-3.66,5.1-5.82.74-1.1,1.51-2.34,2.67-3.05,1.46-.89,4,.4,5.43.94,5.23,1.98,11.73,5.23,14.08,10.64,1.3,2.98-.4,8.47-4.14,5.42-3.39-2.77-2.01-8.1,1.28-10.15,5.19-3.23,12.64,2.96,17.51,4.64,5.01,1.73,9.78-.03,12.18-4.79.69-1.37-2.63-.66-3.11.3-1.58,3.13-3.37,3.6-6.58,2.6-2.68-.83-5.17-2.26-7.69-3.46-4.76-2.26-8.96-3.04-13.77-.48-4.81,2.56-6.93,8.76-2.79,12.97,3.18,3.23,9.05.97,10.36-2.97,1.92-5.81-2.97-10.12-7.42-12.94-3.76-2.38-9.73-5.79-14.35-4.77-5.76,1.27-6.69,7.48-11.21,10.39-3.27,2.1-7.47,2.71-11.15,1.5-3.99-1.31-6.2-5.84-7.31-9.56-4.52-15.14,13.82-28.51,6.36-43.15-2.91-5.71-9.8-7.39-15.13-4.2-6.46,3.85-4.8,11.41-4.53,17.68,1.04-.41,2.08-.81,3.13-1.22-3.64-3.65-8.79-5.76-13.9-4.33-5.25,1.47-7.2,6.61-5.12,11.46,2.64,6.16,9.11,9.98,15.27,11.66,7.87,2.15,16.25,1.24,23.98-.98,10.88-3.12,22.13-9.96,25.94-21.34,1.74-5.19.53-10.36-4.34-13.31-3.67-2.23-9.06-1.06-11.03,2.85-2.76,5.47,3.33,12.26,7.48,15,2.92,1.93,6.26,3.33,9.59,4.38,6.15,1.94,12.78,2.84,19.21,2.2,6.74-.67,13.53-3.53,17.61-9.13,5.98-8.22,5.23-19.39,3.56-28.87-1.24-7.03-3.47-13.28-8-18.88-4.06-5.01-9.54-8.71-15.32-11.45-10.19-4.82-23.35-6.86-32.73.73-4.86,3.93-6.98,10.01-6.59,16.13.28,4.49.95,10.99,4.95,13.81,4.08,2.88,8.76-1.84,10.68-5.03,3.35-5.58,3.56-11.78.06-17.33-3.83-6.08-11.48-10.17-17.86-13.01-5.89-2.61-11.71-2.36-17.71-.4-10.62,3.47-20.61,13.16-18.57,25.12.93,5.47,3.94,12.94,9.15,15.62,4.14,2.13,7.67-2.13,8.64-5.63,3.29-11.84-9.43-20.65-19.76-21.49-12.36-1-22.29,7.75-26,19.02-2.13,6.49-1.63,13.69,1.08,19.91,2.32,5.32,7.04,11,12.93,12.3,5.13,1.13,9.86-3.27,9.71-8.36-.18-5.76-5.73-10.91-10.49-13.32-10.49-5.3-23.3-.56-28.15,9.98-4.09,8.89-1.62,19.91,3.06,28.05,6.11,10.61,17.21,16,29.2,16.44,1.04.04,3.77-1.94,1.86-2.01h0Z"/>
      </g>
      <path class="cls-7" d="M47.13,155.61c.34,3.08-1.81,5.84-4.79,6.17-2.99.33-5.69-1.9-6.03-4.97s1.81-5.84,4.79-6.17,5.69,1.9,6.03,4.97h0Z"/>
      <path class="cls-7" d="M81.2,127.95c.22,2-1.11,3.79-2.97,3.99-1.86.21-3.55-1.25-3.77-3.25-.22-2,1.11-3.79,2.97-3.99,1.86-.21,3.55,1.25,3.77,3.25h0Z"/>
      <path class="cls-7" d="M129.98,115.6c.28,2.53-1.66,4.83-4.33,5.12-2.67.3-5.06-1.52-5.34-4.05-.28-2.53,1.66-4.83,4.33-5.12,2.67-.3,5.06,1.52,5.34,4.05h0Z"/>
      <path class="cls-7" d="M148.21,201.36c.19,1.71-.34,3.43-1.47,4.78-1.13,1.35-2.77,2.22-4.56,2.42-3.72.41-7.06-2.14-7.45-5.7-.39-3.56,2.31-6.78,6.03-7.19,3.72-.41,7.06,2.14,7.45,5.7h0Z"/>
      <path class="cls-7" d="M118,212.46c.32,2.91-1.71,5.53-4.55,5.84-2.83.31-5.39-1.8-5.71-4.71-.32-2.91,1.71-5.53,4.55-5.84,2.83-.31,5.39,1.8,5.71,4.71h0Z"/>
      <path class="cls-7" d="M87.81,211.94c.23,2.1-1.42,4.01-3.68,4.26-2.27.25-4.29-1.25-4.52-3.36s1.42-4.01,3.68-4.26c2.27-.25,4.29,1.25,4.52,3.36h0Z"/>
    </g>
    <g>
      <g>
        <path class="cls-4" d="M169.23,386.01c47.78-60.2,112.65-115.89,64.58-215.81-13.56-28.18-36.8-50.85-65.67-62.85-58.66-24.39-115.79-11.07-154.59,22.75,8.25-28.21,23.49-54.8,45.73-77.05,70.73-70.73,185.41-70.73,256.14,0,.02.02.05.05.07.07,27.76,23.21,51.83,74.64,46.38,109.25-6.39,40.57-1.6,63.58,21.72,88.81,23.32,25.24,26.2,36.42,6.07,41.85-20.13,5.43-21.4,18.53-18.85,23,3.33,5.83,8.79,11.97,8.63,18.37-.24,9.44-13.26,4.56-17.57,6.55-2.08.96,7.35,1.28,11.18,12.14,3.83,10.86-25.56,15.65-20.45,23.96,5.11,8.31,16.29,57.19-28.11,45.37-44.41-11.82-70.66-8.65-96.48,15.33-17.89,16.61-27.9,46.97.22,94.89,0,0-116.81-73.8-59-146.64Z"/>
        <g>
          <path class="cls-19" d="M10.47,155.47s-.04.11-.1.27c.06-.17.1-.27.1-.27Z"/>
          <path class="cls-7" d="M49.52,292.75C-13.31,230.61,10.09,163.68,11.84,158.98c.06-.16.1-.27.1-.27-.02,46.43,40.98,80.38,80.89,119.16,52.87,51.36,61.8,119.06,36.17,172.86,10.12-72.82-21.21-100.34-79.49-157.98Z"/>
          <path class="cls-7" d="M11.84,158.98c-1.75,4.7-25.16,71.63,37.68,133.77,58.28,57.63,89.62,85.15,79.49,157.98,0,0,2.5-34.48-13.41-64.21-21.81-40.73-86.07-60.13-108.39-118.82-17.93-47.15,3.04-104.5,4.63-108.72Z"/>
        </g>
      </g>
      <g>
        <path class="cls-7" d="M204.4,143.4c37.14,46.48,73.89,156.24-49.34,233.04,99.65-149.49,49.34-233.04,49.34-233.04Z"/>
        <path class="cls-7" d="M204.4,143.4s50.32,83.56-49.34,233.04c0,0-16.81-63.08,26.99-132.97,35.84-57.18,22.35-100.08,22.35-100.08Z"/>
      </g>
    </g>
    <g>
      <g class="cls-11">
        <path class="cls-7" d="M88.44,193.08c9.83-5.31,17.85,7.22,27.56,2.67,6.12-2.85,14.32-14.09,19.32-13.34,9.61,1.33,16.92,8.03,26.66,7.1,22.84-2.18,16.79-33.33,4.76-47.66-6.83-8.15-12.97-12.74-24.4-13.43-9.16-.73-13.78,14.63-13.78,14.63-4.21-10.3-12.2-19.08-21.37-17.97-9.35,1.13-22.71,8.63-21.33,21.09,0,0-9.82-8.59-16.81-3.14-9.31,7.26,3.43,22.45,3.43,22.45-11.56-6.99-22.36.55-24.28,14.86-1.99,14.83,6.36,35.03,23.01,28.98,14.72-5.35,12.76-13.82,17.23-16.24h0Z"/>
        <path class="cls-4" d="M71.28,216.72c-12.74-.47-23.57-6.81-29.23-18.36-4.59-9.37-5.71-22.1,2.07-30.13,5.02-5.18,12.57-4.93,18.7-2.1,5.64,2.61,13.05,11.19,7.96,17.26-2.35,2.8-7.9-2.22-9.5-3.8-2.68-2.65-4.57-6.1-5.83-9.62-2.51-6.99-1.54-14.86,1.71-21.42,3.17-6.39,8.72-11.09,15.92-11.83,6.4-.66,12.8,1.98,17.28,6.47,4.2,4.21,6.3,10.76,3.19,16.23-1.75,3.08-6.2-4.08-6.86-5.25-1.72-3.05-2.93-6.49-3.51-9.94-2.34-13.71,14.53-25.3,26.93-22.21,4.09,1.02,7.85,3.27,11.39,5.48,3.6,2.25,6.98,4.72,9.45,8.23,4.12,5.86,2.93,13.79-1.82,18.93-4.65,5.05-7.23-10.69-7.37-12.92-.47-7.5,3.38-14.33,10.52-17,5.91-2.22,13.13-.41,18.85,1.58,6.33,2.2,12.14,5.82,16.89,10.53,5.36,5.31,8.04,11.86,9.55,19.13,1.28,6.17,1.91,12.57,1.07,18.85-1.05,7.79-5.37,14.56-13.16,16.82-6.4,1.86-13.51,1.06-19.87-.58-2.47-.64-4.91-1.45-7.22-2.53-3.14-1.46-6.05-3.2-8.37-5.8-2.33-2.61-4.68-7.21-2.94-10.64,1.78-3.54,6.88.96,8.14,2.75,1.67,2.38,1.64,5.35.97,8.06-1.43,5.83-6.29,10.99-10.89,14.58-6.13,4.78-15.25,6.83-22.83,7.34-8.5.57-16.87-1.82-22.69-8.16-2.46-2.68-6.15-9.86-1.13-12.2,3.79-1.77,8.78,1.53,11.3,4.06.65.66,3.17-.24,3.13-1.22-.13-3.16-.62-6.3-.4-9.46.36-5.35,4.81-8.74,9.78-5.9,7.25,4.14,5.86,13.78,3.36,20.23-2.51,6.47-6.03,12.39-6.69,19.43-.61,6.47,2.05,14.23,8.07,17.33,5.05,2.6,12.46.57,16.82-2.55,2.14-1.53,3.64-3.66,5.1-5.82.74-1.1,1.51-2.34,2.67-3.05,1.46-.89,4,.4,5.43.94,5.23,1.98,11.73,5.23,14.08,10.64,1.3,2.98-.4,8.47-4.14,5.42-3.39-2.77-2.01-8.1,1.28-10.15,5.19-3.23,12.64,2.96,17.51,4.64,5.01,1.73,9.78-.03,12.18-4.79.69-1.37-2.63-.66-3.11.3-1.58,3.13-3.37,3.6-6.58,2.6-2.68-.83-5.17-2.26-7.69-3.46-4.76-2.26-8.96-3.04-13.77-.48-4.81,2.56-6.93,8.76-2.79,12.97,3.18,3.23,9.05.97,10.36-2.97,1.92-5.81-2.97-10.12-7.42-12.94-3.76-2.38-9.73-5.79-14.35-4.77-5.76,1.27-6.69,7.48-11.21,10.39-3.27,2.1-7.47,2.71-11.15,1.5-3.99-1.31-6.2-5.84-7.31-9.56-4.52-15.14,13.82-28.51,6.36-43.15-2.91-5.71-9.8-7.39-15.13-4.2-6.46,3.85-4.8,11.41-4.53,17.68,1.04-.41,2.08-.81,3.13-1.22-3.64-3.65-8.79-5.76-13.9-4.33-5.25,1.47-7.2,6.61-5.12,11.46,2.64,6.16,9.11,9.98,15.27,11.66,7.87,2.15,16.25,1.24,23.98-.98,10.88-3.12,22.13-9.96,25.94-21.34,1.74-5.19.53-10.36-4.34-13.31-3.67-2.23-9.06-1.06-11.03,2.85-2.76,5.47,3.33,12.26,7.48,15,2.92,1.93,6.26,3.33,9.59,4.38,6.15,1.94,12.78,2.84,19.21,2.2,6.74-.67,13.53-3.53,17.61-9.13,5.98-8.22,5.23-19.39,3.56-28.87-1.24-7.03-3.47-13.28-8-18.88-4.06-5.01-9.54-8.71-15.32-11.45-10.19-4.82-23.35-6.86-32.73.73-4.86,3.93-6.98,10.01-6.59,16.13.28,4.49.95,10.99,4.95,13.81,4.08,2.88,8.76-1.84,10.68-5.03,3.35-5.58,3.56-11.78.06-17.33-3.83-6.08-11.48-10.17-17.86-13.01-5.89-2.61-11.71-2.36-17.71-.4-10.62,3.47-20.61,13.16-18.57,25.12.93,5.47,3.94,12.94,9.15,15.62,4.14,2.13,7.67-2.13,8.64-5.63,3.29-11.84-9.43-20.65-19.76-21.49-12.36-1-22.29,7.75-26,19.02-2.13,6.49-1.63,13.69,1.08,19.91,2.32,5.32,7.04,11,12.93,12.3,5.13,1.13,9.86-3.27,9.71-8.36-.18-5.76-5.73-10.91-10.49-13.32-10.49-5.3-23.3-.56-28.15,9.98-4.09,8.89-1.62,19.91,3.06,28.05,6.11,10.61,17.21,16,29.2,16.44,1.04.04,3.77-1.94,1.86-2.01h0Z"/>
      </g>
      <path class="cls-7" d="M47.13,155.61c.34,3.08-1.81,5.84-4.79,6.17-2.99.33-5.69-1.9-6.03-4.97s1.81-5.84,4.79-6.17,5.69,1.9,6.03,4.97h0Z"/>
      <path class="cls-7" d="M81.2,127.95c.22,2-1.11,3.79-2.97,3.99-1.86.21-3.55-1.25-3.77-3.25-.22-2,1.11-3.79,2.97-3.99,1.86-.21,3.55,1.25,3.77,3.25h0Z"/>
      <path class="cls-7" d="M129.98,115.6c.28,2.53-1.66,4.83-4.33,5.12-2.67.3-5.06-1.52-5.34-4.05-.28-2.53,1.66-4.83,4.33-5.12,2.67-.3,5.06,1.52,5.34,4.05h0Z"/>
      <path class="cls-7" d="M148.21,201.36c.19,1.71-.34,3.43-1.47,4.78-1.13,1.35-2.77,2.22-4.56,2.42-3.72.41-7.06-2.14-7.45-5.7-.39-3.56,2.31-6.78,6.03-7.19,3.72-.41,7.06,2.14,7.45,5.7h0Z"/>
      <path class="cls-7" d="M118,212.46c.32,2.91-1.71,5.53-4.55,5.84-2.83.31-5.39-1.8-5.71-4.71-.32-2.91,1.71-5.53,4.55-5.84,2.83-.31,5.39,1.8,5.71,4.71h0Z"/>
      <path class="cls-7" d="M87.81,211.94c.23,2.1-1.42,4.01-3.68,4.26-2.27.25-4.29-1.25-4.52-3.36s1.42-4.01,3.68-4.26c2.27-.25,4.29,1.25,4.52,3.36h0Z"/>
    </g>
    <g>
      <path class="cls-4" d="M530.79,423.82v19.34h-6.51v-49.41h18.22c5.41,0,9.64,1.38,12.71,4.14,3.07,2.76,4.6,6.41,4.6,10.96,0,4.8-1.5,8.49-4.5,11.08-3,2.59-7.29,3.88-12.88,3.88h-11.64ZM530.79,418.49h11.71c3.48,0,6.15-.82,8.01-2.46,1.85-1.64,2.78-4.02,2.78-7.12,0-2.95-.93-5.3-2.78-7.07-1.86-1.77-4.4-2.69-7.63-2.75h-12.08v19.41Z"/>
      <path class="cls-4" d="M587.75,433.42c0-1.7-.64-3.01-1.92-3.95s-3.51-1.75-6.68-2.43c-3.18-.68-5.7-1.49-7.57-2.44-1.87-.95-3.25-2.08-4.14-3.39-.89-1.31-1.34-2.87-1.34-4.68,0-3.01,1.27-5.55,3.82-7.63s5.8-3.12,9.76-3.12c4.16,0,7.54,1.08,10.13,3.22,2.59,2.15,3.89,4.9,3.89,8.25h-6.31c0-1.72-.73-3.2-2.19-4.45s-3.3-1.87-5.51-1.87-4.07.5-5.36,1.49-1.93,2.3-1.93,3.9c0,1.52.6,2.66,1.8,3.43,1.2.77,3.37,1.5,6.5,2.21,3.13.7,5.67,1.54,7.62,2.51,1.95.97,3.39,2.14,4.33,3.51.94,1.37,1.41,3.04,1.41,5,0,3.28-1.31,5.91-3.94,7.89-2.62,1.98-6.03,2.97-10.21,2.97-2.94,0-5.54-.52-7.8-1.56-2.26-1.04-4.03-2.49-5.31-4.36-1.28-1.87-1.92-3.88-1.92-6.06h6.28c.11,2.1.96,3.77,2.53,5,1.57,1.23,3.65,1.85,6.23,1.85,2.38,0,4.28-.48,5.72-1.44,1.44-.96,2.15-2.25,2.15-3.85Z"/>
      <path class="cls-4" d="M613.45,433.96l8.55-27.52h6.72l-14.76,42.38c-2.29,6.11-5.92,9.16-10.89,9.16l-1.19-.1-2.34-.44v-5.09l1.7.14c2.13,0,3.78-.43,4.97-1.29,1.19-.86,2.17-2.43,2.94-4.72l1.39-3.73-13.1-36.31h6.86l9.16,27.52Z"/>
      <path class="cls-4" d="M648.28,438.72c2.24,0,4.2-.68,5.87-2.04s2.6-3.05,2.78-5.09h5.94c-.11,2.1-.84,4.11-2.17,6.01-1.33,1.9-3.12,3.42-5.34,4.55-2.23,1.13-4.59,1.7-7.08,1.7-5,0-8.98-1.67-11.93-5-2.95-3.34-4.43-7.9-4.43-13.69v-1.05c0-3.57.66-6.75,1.97-9.54,1.31-2.78,3.2-4.94,5.65-6.48,2.45-1.54,5.36-2.31,8.7-2.31,4.12,0,7.54,1.23,10.26,3.7,2.73,2.47,4.18,5.67,4.36,9.6h-5.94c-.18-2.38-1.08-4.33-2.7-5.85-1.62-1.53-3.61-2.29-5.99-2.29-3.19,0-5.66,1.15-7.42,3.44s-2.63,5.62-2.63,9.96v1.19c0,4.23.87,7.49,2.61,9.77,1.74,2.29,4.23,3.43,7.47,3.43Z"/>
      <path class="cls-4" d="M675.45,410.89c2.78-3.42,6.4-5.12,10.86-5.12,7.76,0,11.67,4.38,11.74,13.13v24.26h-6.28v-24.3c-.02-2.65-.63-4.6-1.82-5.87-1.19-1.27-3.04-1.9-5.55-1.9-2.04,0-3.82.54-5.36,1.63-1.54,1.09-2.74,2.51-3.6,4.28v26.16h-6.28v-52.12h6.28v19.85Z"/>
      <path class="cls-4" d="M705.02,424.46c0-3.6.71-6.83,2.12-9.71,1.41-2.87,3.38-5.09,5.9-6.65,2.52-1.56,5.4-2.34,8.64-2.34,5,0,9.04,1.73,12.13,5.19,3.09,3.46,4.63,8.07,4.63,13.81v.44c0,3.58-.68,6.78-2.05,9.62-1.37,2.84-3.33,5.05-5.87,6.63-2.54,1.58-5.47,2.38-8.77,2.38-4.98,0-9.01-1.73-12.1-5.19-3.09-3.46-4.63-8.04-4.63-13.74v-.44ZM711.33,425.21c0,4.07.94,7.34,2.83,9.81,1.89,2.47,4.42,3.7,7.58,3.7s5.72-1.25,7.6-3.75c1.88-2.5,2.82-6,2.82-10.5,0-4.03-.96-7.29-2.87-9.79-1.91-2.5-4.45-3.75-7.62-3.75s-5.6,1.23-7.5,3.7c-1.9,2.47-2.85,6-2.85,10.59Z"/>
      <path class="cls-4" d="M752.37,443.16h-6.28v-52.12h6.28v52.12Z"/>
      <path class="cls-4" d="M759.99,424.46c0-3.6.71-6.83,2.12-9.71,1.41-2.87,3.38-5.09,5.9-6.65,2.52-1.56,5.4-2.34,8.64-2.34,5,0,9.04,1.73,12.13,5.19,3.09,3.46,4.63,8.07,4.63,13.81v.44c0,3.58-.68,6.78-2.05,9.62-1.37,2.84-3.33,5.05-5.87,6.63-2.54,1.58-5.47,2.38-8.77,2.38-4.98,0-9.01-1.73-12.1-5.19-3.09-3.46-4.63-8.04-4.63-13.74v-.44ZM766.3,425.21c0,4.07.94,7.34,2.83,9.81,1.89,2.47,4.42,3.7,7.58,3.7s5.72-1.25,7.6-3.75c1.88-2.5,2.82-6,2.82-10.5,0-4.03-.96-7.29-2.87-9.79-1.91-2.5-4.45-3.75-7.62-3.75s-5.6,1.23-7.5,3.7c-1.9,2.47-2.85,6-2.85,10.59Z"/>
      <path class="cls-4" d="M799.03,424.5c0-5.72,1.32-10.28,3.97-13.66,2.65-3.38,6.15-5.07,10.52-5.07s7.97,1.58,10.49,4.75l.31-4.07h5.73v35.83c0,4.75-1.41,8.49-4.22,11.23s-6.6,4.11-11.35,4.11c-2.65,0-5.24-.57-7.77-1.7-2.53-1.13-4.47-2.68-5.8-4.65l3.26-3.77c2.69,3.33,5.98,4.99,9.88,4.99,3.05,0,5.43-.86,7.14-2.58,1.71-1.72,2.56-4.14,2.56-7.26v-3.16c-2.51,2.9-5.94,4.34-10.28,4.34s-7.78-1.73-10.43-5.19c-2.66-3.46-3.99-8.18-3.99-14.15ZM805.34,425.21c0,4.14.85,7.39,2.54,9.76,1.7,2.36,4.07,3.55,7.13,3.55,3.96,0,6.87-1.8,8.72-5.4v-16.76c-1.92-3.51-4.81-5.26-8.65-5.26-3.05,0-5.44,1.19-7.16,3.56-1.72,2.38-2.58,5.89-2.58,10.55Z"/>
      <path class="cls-4" d="M838.79,396.71c0-1.02.31-1.88.93-2.58s1.54-1.05,2.77-1.05,2.15.35,2.78,1.05c.63.7.95,1.56.95,2.58s-.32,1.87-.95,2.54c-.63.68-1.56,1.02-2.78,1.02s-2.14-.34-2.77-1.02-.93-1.53-.93-2.54ZM845.57,443.16h-6.28v-36.72h6.28v36.72Z"/>
      <path class="cls-4" d="M869.58,438.72c2.24,0,4.2-.68,5.87-2.04s2.6-3.05,2.78-5.09h5.94c-.11,2.1-.84,4.11-2.17,6.01-1.33,1.9-3.12,3.42-5.34,4.55-2.23,1.13-4.59,1.7-7.08,1.7-5,0-8.98-1.67-11.93-5-2.95-3.34-4.43-7.9-4.43-13.69v-1.05c0-3.57.66-6.75,1.97-9.54,1.31-2.78,3.2-4.94,5.65-6.48,2.45-1.54,5.36-2.31,8.7-2.31,4.12,0,7.54,1.23,10.26,3.7,2.73,2.47,4.18,5.67,4.36,9.6h-5.94c-.18-2.38-1.08-4.33-2.7-5.85-1.62-1.53-3.61-2.29-5.99-2.29-3.19,0-5.66,1.15-7.42,3.44s-2.63,5.62-2.63,9.96v1.19c0,4.23.87,7.49,2.61,9.77,1.74,2.29,4.23,3.43,7.47,3.43Z"/>
      <path class="cls-4" d="M913.13,443.16c-.36-.72-.66-2.01-.88-3.87-2.92,3.03-6.4,4.55-10.45,4.55-3.62,0-6.59-1.02-8.91-3.07-2.32-2.05-3.48-4.64-3.48-7.79,0-3.82,1.45-6.79,4.36-8.91,2.91-2.12,7-3.17,12.27-3.17h6.11v-2.88c0-2.19-.66-3.94-1.97-5.24-1.31-1.3-3.25-1.95-5.8-1.95-2.24,0-4.12.57-5.63,1.7-1.52,1.13-2.27,2.5-2.27,4.11h-6.31c0-1.83.65-3.6,1.95-5.31,1.3-1.71,3.07-3.06,5.29-4.05,2.23-1,4.68-1.49,7.35-1.49,4.23,0,7.54,1.06,9.94,3.17,2.4,2.12,3.64,5.03,3.73,8.74v16.9c0,3.37.43,6.05,1.29,8.04v.54h-6.58ZM902.72,438.38c1.97,0,3.83-.51,5.6-1.53,1.76-1.02,3.04-2.34,3.83-3.97v-7.53h-4.92c-7.69,0-11.54,2.25-11.54,6.75,0,1.97.66,3.51,1.97,4.62,1.31,1.11,3,1.66,5.06,1.66Z"/>
      <path class="cls-4" d="M934.32,443.16h-6.28v-52.12h6.28v52.12Z"/>
      <path class="cls-4" d="M988.31,430.23h-20.7l-4.65,12.93h-6.72l18.87-49.41h5.7l18.9,49.41h-6.68l-4.72-12.93ZM969.58,424.9h16.8l-8.42-23.11-8.38,23.11Z"/>
      <path class="cls-4" d="M1025.99,433.42c0-1.7-.64-3.01-1.92-3.95s-3.51-1.75-6.68-2.43c-3.18-.68-5.7-1.49-7.57-2.44-1.87-.95-3.25-2.08-4.14-3.39-.89-1.31-1.34-2.87-1.34-4.68,0-3.01,1.27-5.55,3.82-7.63s5.8-3.12,9.76-3.12c4.16,0,7.54,1.08,10.13,3.22,2.59,2.15,3.89,4.9,3.89,8.25h-6.31c0-1.72-.73-3.2-2.19-4.45s-3.3-1.87-5.51-1.87-4.07.5-5.36,1.49-1.93,2.3-1.93,3.9c0,1.52.6,2.66,1.8,3.43,1.2.77,3.37,1.5,6.5,2.21,3.13.7,5.67,1.54,7.62,2.51,1.95.97,3.39,2.14,4.33,3.51.94,1.37,1.41,3.04,1.41,5,0,3.28-1.31,5.91-3.94,7.89-2.62,1.98-6.03,2.97-10.21,2.97-2.94,0-5.54-.52-7.8-1.56-2.26-1.04-4.03-2.49-5.31-4.36-1.28-1.87-1.92-3.88-1.92-6.06h6.28c.11,2.1.96,3.77,2.53,5,1.57,1.23,3.65,1.85,6.23,1.85,2.38,0,4.28-.48,5.72-1.44,1.44-.96,2.15-2.25,2.15-3.85Z"/>
      <path class="cls-4" d="M1061.07,433.42c0-1.7-.64-3.01-1.92-3.95s-3.51-1.75-6.68-2.43c-3.18-.68-5.7-1.49-7.57-2.44-1.87-.95-3.25-2.08-4.14-3.39-.89-1.31-1.34-2.87-1.34-4.68,0-3.01,1.27-5.55,3.82-7.63s5.8-3.12,9.76-3.12c4.16,0,7.54,1.08,10.13,3.22,2.59,2.15,3.89,4.9,3.89,8.25h-6.31c0-1.72-.73-3.2-2.19-4.45s-3.3-1.87-5.51-1.87-4.07.5-5.36,1.49-1.93,2.3-1.93,3.9c0,1.52.6,2.66,1.8,3.43,1.2.77,3.37,1.5,6.5,2.21,3.13.7,5.67,1.54,7.62,2.51,1.95.97,3.39,2.14,4.33,3.51.94,1.37,1.41,3.04,1.41,5,0,3.28-1.31,5.91-3.94,7.89-2.62,1.98-6.03,2.97-10.21,2.97-2.94,0-5.54-.52-7.8-1.56-2.26-1.04-4.03-2.49-5.31-4.36-1.28-1.87-1.92-3.88-1.92-6.06h6.28c.11,2.1.96,3.77,2.53,5,1.57,1.23,3.65,1.85,6.23,1.85,2.38,0,4.28-.48,5.72-1.44,1.44-.96,2.15-2.25,2.15-3.85Z"/>
      <path class="cls-4" d="M1089.99,443.84c-4.98,0-9.03-1.63-12.15-4.9-3.12-3.27-4.68-7.64-4.68-13.12v-1.15c0-3.64.7-6.89,2.09-9.76,1.39-2.86,3.34-5.1,5.84-6.72,2.5-1.62,5.21-2.43,8.13-2.43,4.77,0,8.48,1.57,11.13,4.72,2.65,3.14,3.97,7.65,3.97,13.51v2.61h-24.87c.09,3.62,1.15,6.54,3.17,8.77,2.02,2.23,4.6,3.34,7.72,3.34,2.22,0,4.09-.45,5.63-1.36,1.54-.9,2.88-2.1,4.04-3.6l3.83,2.99c-3.08,4.73-7.69,7.09-13.84,7.09ZM1089.21,410.92c-2.53,0-4.66.92-6.38,2.77-1.72,1.84-2.78,4.43-3.19,7.75h18.39v-.48c-.18-3.19-1.04-5.66-2.58-7.41-1.54-1.75-3.62-2.63-6.24-2.63Z"/>
      <path class="cls-4" d="M1132.19,433.42c0-1.7-.64-3.01-1.92-3.95s-3.51-1.75-6.68-2.43c-3.18-.68-5.7-1.49-7.57-2.44-1.87-.95-3.25-2.08-4.14-3.39-.89-1.31-1.34-2.87-1.34-4.68,0-3.01,1.27-5.55,3.82-7.63s5.8-3.12,9.76-3.12c4.16,0,7.54,1.08,10.13,3.22,2.59,2.15,3.89,4.9,3.89,8.25h-6.31c0-1.72-.73-3.2-2.19-4.45s-3.3-1.87-5.51-1.87-4.07.5-5.36,1.49-1.93,2.3-1.93,3.9c0,1.52.6,2.66,1.8,3.43,1.2.77,3.37,1.5,6.5,2.21,3.13.7,5.67,1.54,7.62,2.51,1.95.97,3.39,2.14,4.33,3.51.94,1.37,1.41,3.04,1.41,5,0,3.28-1.31,5.91-3.94,7.89-2.62,1.98-6.03,2.97-10.21,2.97-2.94,0-5.54-.52-7.8-1.56-2.26-1.04-4.03-2.49-5.31-4.36-1.28-1.87-1.92-3.88-1.92-6.06h6.28c.11,2.1.96,3.77,2.53,5,1.57,1.23,3.65,1.85,6.23,1.85,2.38,0,4.28-.48,5.72-1.44,1.44-.96,2.15-2.25,2.15-3.85Z"/>
      <path class="cls-4" d="M1167.26,433.42c0-1.7-.64-3.01-1.92-3.95s-3.51-1.75-6.68-2.43c-3.18-.68-5.7-1.49-7.57-2.44-1.87-.95-3.25-2.08-4.14-3.39-.89-1.31-1.34-2.87-1.34-4.68,0-3.01,1.27-5.55,3.82-7.63s5.8-3.12,9.76-3.12c4.16,0,7.54,1.08,10.13,3.22,2.59,2.15,3.89,4.9,3.89,8.25h-6.31c0-1.72-.73-3.2-2.19-4.45s-3.3-1.87-5.51-1.87-4.07.5-5.36,1.49-1.93,2.3-1.93,3.9c0,1.52.6,2.66,1.8,3.43,1.2.77,3.37,1.5,6.5,2.21,3.13.7,5.67,1.54,7.62,2.51,1.95.97,3.39,2.14,4.33,3.51.94,1.37,1.41,3.04,1.41,5,0,3.28-1.31,5.91-3.94,7.89-2.62,1.98-6.03,2.97-10.21,2.97-2.94,0-5.54-.52-7.8-1.56-2.26-1.04-4.03-2.49-5.31-4.36-1.28-1.87-1.92-3.88-1.92-6.06h6.28c.11,2.1.96,3.77,2.53,5,1.57,1.23,3.65,1.85,6.23,1.85,2.38,0,4.28-.48,5.72-1.44,1.44-.96,2.15-2.25,2.15-3.85Z"/>
      <path class="cls-4" d="M1186.86,406.44l.17,4.07c2.69-3.17,6.32-4.75,10.89-4.75,5.14,0,8.63,1.97,10.49,5.9,1.22-1.76,2.81-3.19,4.77-4.28,1.96-1.09,4.27-1.63,6.94-1.63,8.05,0,12.15,4.26,12.28,12.79v24.6h-6.28v-24.23c0-2.62-.6-4.59-1.8-5.89-1.2-1.3-3.21-1.95-6.04-1.95-2.33,0-4.26.7-5.8,2.09-1.54,1.39-2.43,3.26-2.68,5.62v24.37h-6.31v-24.06c0-5.34-2.61-8.01-7.84-8.01-4.12,0-6.93,1.75-8.45,5.26v26.81h-6.28v-36.72h5.94Z"/>
      <path class="cls-4" d="M1256.34,443.84c-4.98,0-9.03-1.63-12.15-4.9-3.12-3.27-4.68-7.64-4.68-13.12v-1.15c0-3.64.7-6.89,2.09-9.76,1.39-2.86,3.34-5.1,5.84-6.72,2.5-1.62,5.21-2.43,8.13-2.43,4.77,0,8.48,1.57,11.13,4.72,2.65,3.14,3.97,7.65,3.97,13.51v2.61h-24.87c.09,3.62,1.15,6.54,3.17,8.77,2.02,2.23,4.6,3.34,7.72,3.34,2.22,0,4.09-.45,5.63-1.36,1.54-.9,2.88-2.1,4.04-3.6l3.83,2.99c-3.08,4.73-7.69,7.09-13.84,7.09ZM1255.56,410.92c-2.53,0-4.66.92-6.38,2.77-1.72,1.84-2.78,4.43-3.19,7.75h18.39v-.48c-.18-3.19-1.04-5.66-2.58-7.41-1.54-1.75-3.62-2.63-6.24-2.63Z"/>
      <path class="cls-4" d="M1283.09,406.44l.2,4.62c2.81-3.53,6.47-5.29,11-5.29,7.76,0,11.67,4.38,11.74,13.13v24.26h-6.28v-24.3c-.02-2.65-.63-4.6-1.82-5.87-1.19-1.27-3.04-1.9-5.55-1.9-2.04,0-3.82.54-5.36,1.63-1.54,1.09-2.74,2.51-3.6,4.28v26.16h-6.28v-36.72h5.94Z"/>
      <path class="cls-4" d="M1323.25,397.55v8.89h6.85v4.85h-6.85v22.8c0,1.47.3,2.58.92,3.31.61.74,1.65,1.1,3.12,1.1.72,0,1.72-.14,2.99-.41v5.06c-1.65.45-3.26.67-4.82.67-2.8,0-4.92-.85-6.35-2.54-1.42-1.7-2.14-4.11-2.14-7.23v-22.77h-6.68v-4.85h6.68v-8.89h6.28Z"/>
      <path class="cls-4" d="M1351.79,429.89c0-2.38.66-4.56,1.98-6.55,1.32-1.99,3.85-4.31,7.58-6.96-2.2-2.67-3.67-4.82-4.41-6.45-.75-1.63-1.12-3.25-1.12-4.85,0-3.75,1.11-6.7,3.33-8.82,2.22-2.13,5.23-3.19,9.03-3.19,3.39,0,6.2.99,8.42,2.97,2.22,1.98,3.33,4.47,3.33,7.48,0,1.99-.5,3.83-1.51,5.51-1.01,1.69-2.77,3.46-5.28,5.31l-3.63,2.68,11,13.13c1.54-2.94,2.31-6.21,2.31-9.81h5.67c0,5.77-1.39,10.55-4.17,14.35l7.06,8.45h-7.53l-3.29-3.9c-1.67,1.49-3.64,2.63-5.89,3.41s-4.54,1.17-6.87,1.17c-4.82,0-8.69-1.28-11.61-3.83-2.92-2.56-4.38-5.93-4.38-10.11ZM1367.77,438.72c3.33,0,6.37-1.27,9.13-3.8l-12.05-14.42-1.12.81c-3.78,2.78-5.67,5.64-5.67,8.58,0,2.67.87,4.81,2.6,6.41,1.73,1.61,4.1,2.41,7.11,2.41ZM1362.1,404.88c0,2.17,1.33,4.89,4,8.14l4-2.82c1.54-1.09,2.59-2.12,3.16-3.1.56-.98.85-2.18.85-3.58,0-1.52-.57-2.78-1.7-3.78-1.13-1.01-2.56-1.51-4.28-1.51-1.85,0-3.33.63-4.41,1.88-1.09,1.26-1.63,2.85-1.63,4.77Z"/>
      <path class="cls-4" d="M716.68,496.29c-.61,5.23-2.54,9.26-5.79,12.1-3.25,2.84-7.56,4.26-12.95,4.26-5.84,0-10.51-2.09-14.03-6.28-3.52-4.18-5.28-9.78-5.28-16.8v-4.75c0-4.59.82-8.63,2.46-12.11s3.96-6.16,6.97-8.03,6.49-2.8,10.45-2.8c5.25,0,9.46,1.46,12.62,4.39s5.01,6.99,5.53,12.17h-6.55c-.57-3.95-1.79-6.81-3.68-8.58-1.89-1.77-4.53-2.66-7.92-2.66-4.16,0-7.43,1.54-9.79,4.62-2.36,3.08-3.55,7.46-3.55,13.14v4.79c0,5.37,1.12,9.63,3.36,12.8,2.24,3.17,5.37,4.75,9.4,4.75,3.62,0,6.4-.82,8.33-2.46,1.93-1.64,3.22-4.5,3.85-8.57h6.55Z"/>
      <path class="cls-4" d="M722.16,493.27c0-3.6.71-6.83,2.12-9.71,1.41-2.87,3.38-5.09,5.9-6.65,2.52-1.56,5.4-2.34,8.64-2.34,5,0,9.04,1.73,12.13,5.19,3.09,3.46,4.63,8.07,4.63,13.81v.44c0,3.58-.68,6.78-2.05,9.62-1.37,2.84-3.33,5.05-5.87,6.63-2.54,1.58-5.47,2.38-8.77,2.38-4.98,0-9.01-1.73-12.1-5.19-3.09-3.46-4.63-8.04-4.63-13.74v-.44ZM728.47,494.01c0,4.07.94,7.34,2.83,9.81,1.89,2.47,4.42,3.7,7.58,3.7s5.72-1.25,7.6-3.75c1.88-2.5,2.82-6,2.82-10.5,0-4.03-.96-7.29-2.87-9.79-1.91-2.5-4.45-3.75-7.62-3.75s-5.6,1.23-7.5,3.7c-1.9,2.47-2.85,6-2.85,10.59Z"/>
      <path class="cls-4" d="M785.36,508.33c-2.44,2.87-6.03,4.31-10.76,4.31-3.91,0-6.89-1.14-8.94-3.41s-3.08-5.64-3.1-10.1v-23.89h6.28v23.72c0,5.57,2.26,8.35,6.79,8.35,4.8,0,7.99-1.79,9.57-5.36v-26.71h6.28v36.72h-5.97l-.14-3.63Z"/>
      <path class="cls-4" d="M806.18,475.25l.2,4.62c2.81-3.53,6.47-5.29,11-5.29,7.76,0,11.67,4.38,11.74,13.13v24.26h-6.28v-24.3c-.02-2.65-.63-4.6-1.82-5.87-1.19-1.27-3.04-1.9-5.55-1.9-2.04,0-3.82.54-5.36,1.63-1.54,1.09-2.74,2.51-3.6,4.28v26.16h-6.28v-36.72h5.94Z"/>
      <path class="cls-4" d="M859.2,502.22c0-1.7-.64-3.01-1.92-3.95s-3.51-1.75-6.68-2.43c-3.18-.68-5.7-1.49-7.57-2.44-1.87-.95-3.25-2.08-4.14-3.39-.89-1.31-1.34-2.87-1.34-4.68,0-3.01,1.27-5.55,3.82-7.63s5.8-3.12,9.76-3.12c4.16,0,7.54,1.08,10.13,3.22,2.59,2.15,3.89,4.9,3.89,8.25h-6.31c0-1.72-.73-3.2-2.19-4.45s-3.3-1.87-5.51-1.87-4.07.5-5.36,1.49-1.93,2.3-1.93,3.9c0,1.52.6,2.66,1.8,3.43,1.2.77,3.37,1.5,6.5,2.21,3.13.7,5.67,1.54,7.62,2.51,1.95.97,3.39,2.14,4.33,3.51.94,1.37,1.41,3.04,1.41,5,0,3.28-1.31,5.91-3.94,7.89-2.62,1.98-6.03,2.97-10.21,2.97-2.94,0-5.54-.52-7.8-1.56-2.26-1.04-4.03-2.49-5.31-4.36-1.28-1.87-1.92-3.88-1.92-6.06h6.28c.11,2.1.96,3.77,2.53,5,1.57,1.23,3.65,1.85,6.23,1.85,2.38,0,4.28-.48,5.72-1.44,1.44-.96,2.15-2.25,2.15-3.85Z"/>
      <path class="cls-4" d="M888.13,512.64c-4.98,0-9.03-1.63-12.15-4.9-3.12-3.27-4.68-7.64-4.68-13.12v-1.15c0-3.64.7-6.89,2.09-9.76,1.39-2.86,3.34-5.1,5.84-6.72,2.5-1.62,5.21-2.43,8.13-2.43,4.77,0,8.48,1.57,11.13,4.72,2.65,3.14,3.97,7.65,3.97,13.51v2.61h-24.87c.09,3.62,1.15,6.54,3.17,8.77,2.02,2.23,4.6,3.34,7.72,3.34,2.22,0,4.09-.45,5.63-1.36,1.54-.9,2.88-2.1,4.04-3.6l3.83,2.99c-3.08,4.73-7.69,7.09-13.84,7.09ZM887.35,479.73c-2.53,0-4.66.92-6.38,2.77-1.72,1.84-2.78,4.43-3.19,7.75h18.39v-.48c-.18-3.19-1.04-5.66-2.58-7.41-1.54-1.75-3.62-2.63-6.24-2.63Z"/>
      <path class="cls-4" d="M915.76,511.96h-6.28v-52.12h6.28v52.12Z"/>
      <path class="cls-4" d="M931.87,511.96h-6.28v-52.12h6.28v52.12Z"/>
      <path class="cls-4" d="M941.18,465.51c0-1.02.31-1.88.93-2.58s1.54-1.05,2.77-1.05,2.15.35,2.78,1.05c.63.7.95,1.56.95,2.58s-.32,1.87-.95,2.54c-.63.68-1.56,1.02-2.78,1.02s-2.14-.34-2.77-1.02-.93-1.53-.93-2.54ZM947.97,511.96h-6.28v-36.72h6.28v36.72Z"/>
      <path class="cls-4" d="M963.19,475.25l.2,4.62c2.81-3.53,6.47-5.29,11-5.29,7.76,0,11.67,4.38,11.74,13.13v24.26h-6.28v-24.3c-.02-2.65-.63-4.6-1.82-5.87-1.19-1.27-3.04-1.9-5.55-1.9-2.04,0-3.82.54-5.36,1.63-1.54,1.09-2.74,2.51-3.6,4.28v26.16h-6.28v-36.72h5.94Z"/>
      <path class="cls-4" d="M993.33,493.3c0-5.72,1.32-10.28,3.97-13.66,2.65-3.38,6.15-5.07,10.52-5.07s7.97,1.58,10.49,4.75l.31-4.07h5.73v35.83c0,4.75-1.41,8.49-4.22,11.23s-6.6,4.11-11.35,4.11c-2.65,0-5.24-.57-7.77-1.7-2.53-1.13-4.47-2.68-5.8-4.65l3.26-3.77c2.69,3.33,5.98,4.99,9.88,4.99,3.05,0,5.43-.86,7.14-2.58,1.71-1.72,2.56-4.14,2.56-7.26v-3.16c-2.51,2.9-5.94,4.34-10.28,4.34s-7.78-1.73-10.43-5.19c-2.66-3.46-3.99-8.18-3.99-14.15ZM999.65,494.01c0,4.14.85,7.39,2.54,9.76,1.7,2.36,4.07,3.55,7.13,3.55,3.96,0,6.87-1.8,8.72-5.4v-16.76c-1.92-3.51-4.81-5.26-8.65-5.26-3.05,0-5.44,1.19-7.16,3.56-1.72,2.38-2.58,5.89-2.58,10.55Z"/>
      <path class="cls-4" d="M1064.22,507.52c2.24,0,4.2-.68,5.87-2.04s2.6-3.05,2.78-5.09h5.94c-.11,2.1-.84,4.11-2.17,6.01-1.33,1.9-3.12,3.42-5.34,4.55-2.23,1.13-4.59,1.7-7.08,1.7-5,0-8.98-1.67-11.93-5-2.95-3.34-4.43-7.9-4.43-13.69v-1.05c0-3.57.66-6.75,1.97-9.54,1.31-2.78,3.2-4.94,5.65-6.48,2.45-1.54,5.36-2.31,8.7-2.31,4.12,0,7.54,1.23,10.26,3.7,2.73,2.47,4.18,5.67,4.36,9.6h-5.94c-.18-2.38-1.08-4.33-2.7-5.85-1.62-1.53-3.61-2.29-5.99-2.29-3.19,0-5.66,1.15-7.42,3.44s-2.63,5.62-2.63,9.96v1.19c0,4.23.87,7.49,2.61,9.77,1.74,2.29,4.23,3.43,7.47,3.43Z"/>
      <path class="cls-4" d="M1100.34,512.64c-4.98,0-9.03-1.63-12.15-4.9-3.12-3.27-4.68-7.64-4.68-13.12v-1.15c0-3.64.7-6.89,2.09-9.76,1.39-2.86,3.34-5.1,5.84-6.72,2.5-1.62,5.21-2.43,8.13-2.43,4.77,0,8.48,1.57,11.13,4.72,2.65,3.14,3.97,7.65,3.97,13.51v2.61h-24.87c.09,3.62,1.15,6.54,3.17,8.77,2.02,2.23,4.6,3.34,7.72,3.34,2.22,0,4.09-.45,5.63-1.36,1.54-.9,2.88-2.1,4.04-3.6l3.83,2.99c-3.08,4.73-7.69,7.09-13.84,7.09ZM1099.56,479.73c-2.53,0-4.66.92-6.38,2.77-1.72,1.84-2.78,4.43-3.19,7.75h18.39v-.48c-.18-3.19-1.04-5.66-2.58-7.41-1.54-1.75-3.62-2.63-6.24-2.63Z"/>
      <path class="cls-4" d="M1127.1,475.25l.2,4.62c2.81-3.53,6.47-5.29,11-5.29,7.76,0,11.67,4.38,11.74,13.13v24.26h-6.28v-24.3c-.02-2.65-.63-4.6-1.82-5.87-1.19-1.27-3.04-1.9-5.55-1.9-2.04,0-3.82.54-5.36,1.63-1.54,1.09-2.74,2.51-3.6,4.28v26.16h-6.28v-36.72h5.94Z"/>
      <path class="cls-4" d="M1167.26,466.36v8.89h6.85v4.85h-6.85v22.8c0,1.47.3,2.58.92,3.31.61.74,1.65,1.1,3.12,1.1.72,0,1.72-.14,2.99-.41v5.06c-1.65.45-3.26.67-4.82.67-2.8,0-4.92-.85-6.35-2.54-1.42-1.7-2.14-4.11-2.14-7.23v-22.77h-6.68v-4.85h6.68v-8.89h6.28Z"/>
      <path class="cls-4" d="M1198.43,480.88c-.95-.16-1.98-.24-3.09-.24-4.12,0-6.91,1.75-8.38,5.26v26.06h-6.28v-36.72h6.11l.1,4.24c2.06-3.28,4.98-4.92,8.75-4.92,1.22,0,2.15.16,2.78.47v5.84Z"/>
      <path class="cls-4" d="M1218.67,512.64c-4.98,0-9.03-1.63-12.15-4.9-3.12-3.27-4.68-7.64-4.68-13.12v-1.15c0-3.64.7-6.89,2.09-9.76,1.39-2.86,3.34-5.1,5.84-6.72,2.5-1.62,5.21-2.43,8.13-2.43,4.77,0,8.48,1.57,11.13,4.72,2.65,3.14,3.97,7.65,3.97,13.51v2.61h-24.87c.09,3.62,1.15,6.54,3.17,8.77,2.02,2.23,4.6,3.34,7.72,3.34,2.22,0,4.09-.45,5.63-1.36,1.54-.9,2.88-2.1,4.04-3.6l3.83,2.99c-3.08,4.73-7.69,7.09-13.84,7.09ZM1217.89,479.73c-2.53,0-4.66.92-6.38,2.77-1.72,1.84-2.78,4.43-3.19,7.75h18.39v-.48c-.18-3.19-1.04-5.66-2.58-7.41-1.54-1.75-3.62-2.63-6.24-2.63Z"/>
    </g>
  </g>
</svg>