<?xml version="1.0" encoding="UTF-8"?>
<svg id="Layer_2" data-name="Layer 2" xmlns="http://www.w3.org/2000/svg" xmlns:xlink="http://www.w3.org/1999/xlink" viewBox="0 0 1357.89 583.41">
  <defs>
    <style>
      .cls-1 {
        font-family: Roboto-Regular, Roboto;
        font-size: 49.79px;
        letter-spacing: -.01em;
      }

      .cls-1, .cls-2, .cls-3, .cls-4, .cls-5, .cls-6, .cls-7, .cls-8, .cls-9, .cls-10 {
        fill: #fff;
      }

      .cls-2 {
        letter-spacing: -.05em;
      }

      .cls-3 {
        letter-spacing: -.05em;
      }

      .cls-11 {
        fill: none;
      }

      .cls-12, .cls-13, .cls-14 {
        fill: #7caf4f;
      }

      .cls-15 {
        clip-path: url(#clippath-1);
      }

      .cls-5 {
        letter-spacing: .06em;
      }

      .cls-13 {
        letter-spacing: -.04em;
      }

      .cls-16 {
        fill: #367588;
      }

      .cls-6 {
        letter-spacing: .06em;
      }

      .cls-7, .cls-14 {
        letter-spacing: -.04em;
      }

      .cls-8 {
        letter-spacing: .06em;
      }

      .cls-9 {
        letter-spacing: -.02em;
      }

      .cls-17 {
        font-family: Literata-Bold, Literata;
        font-size: 134.43px;
        font-variation-settings: 'opsz' 12, 'wght' 700;
        font-weight: 700;
      }

      .cls-18 {
        fill: url(#linear-gradient);
      }

      .cls-10 {
        letter-spacing: .05em;
      }

      .cls-19 {
        clip-path: url(#clippath);
      }
    </style>
    <linearGradient id="linear-gradient" x1="-4852.28" y1="111.48" x2="-4852.21" y2="111.48" gradientTransform="translate(-4310.22) rotate(-180) scale(1 -1)" gradientUnits="userSpaceOnUse">
      <stop offset="0" stop-color="#adaf2a"/>
      <stop offset="1" stop-color="#7caf2a"/>
    </linearGradient>
    <clipPath id="clippath">
      <rect class="cls-11" x="559.27" y="81.36" width="106.57" height="91.87" transform="translate(-10.27 68.03) rotate(-6.3)"/>
    </clipPath>
    <clipPath id="clippath-1">
      <rect class="cls-11" x="559.27" y="81.36" width="106.57" height="91.87" transform="translate(-10.27 68.03) rotate(-6.3)"/>
    </clipPath>
  </defs>
  <g id="OBJECTS">
    <text class="cls-17" transform="translate(0 502.67)"><tspan class="cls-3" x="0" y="0">Co</tspan><tspan class="cls-2" x="166.42" y="0">r</tspan><tspan class="cls-7" x="232.43" y="0">e </tspan><tspan class="cls-13" x="325.19" y="0">M</tspan><tspan class="cls-14" x="452.09" y="0">i</tspan><tspan class="cls-13" x="496.05" y="0">n</tspan><tspan class="cls-14" x="583.7" y="0">d </tspan><tspan class="cls-9" x="688.82" y="0">W</tspan><tspan class="cls-10" x="835.22" y="0">e</tspan><tspan class="cls-5" x="918.43" y="0">l</tspan><tspan class="cls-6" x="975.16" y="0">l</tspan><tspan class="cls-8" x="1031.62" y="0">n</tspan><tspan class="cls-10" x="1132.45" y="0">e</tspan><tspan class="cls-5" x="1215.66" y="0">ss</tspan></text>
    <g>
      <g>
        <g>
          <path class="cls-16" d="M655.79,276.54c34.23-43.13,80.7-83.03,46.26-154.61-9.71-20.19-26.36-36.43-47.05-45.03-42.03-17.47-82.95-7.93-110.75,16.3,5.91-20.21,16.83-39.26,32.77-55.2,50.67-50.67,132.83-50.67,183.5,0,.02.02.03.03.05.05,19.89,16.63,37.13,53.47,33.23,78.27-4.58,29.07-1.14,45.55,15.56,63.63,16.71,18.08,18.77,26.09,4.35,29.98-14.42,3.89-15.33,13.27-13.5,16.48,2.39,4.17,6.29,8.58,6.18,13.16-.17,6.76-9.5,3.27-12.59,4.69-1.49.69,5.26.92,8.01,8.7,2.75,7.78-18.31,11.22-14.65,17.17,3.66,5.95,11.67,40.97-20.14,32.5-31.81-8.47-50.62-6.19-69.12,10.99-12.82,11.9-19.99,33.65.16,67.98,0,0-83.69-52.87-42.27-105.06Z"/>
          <g>
            <path class="cls-18" d="M542.05,111.38s-.03.08-.07.2c.05-.13.07-.2.07-.2Z"/>
            <path class="cls-12" d="M570.03,209.73c-45.01-44.52-28.25-92.46-26.99-95.83.04-.12.07-.2.07-.2-.02,33.26,29.36,57.59,57.95,85.37,37.88,36.79,44.28,85.3,25.92,123.84,7.25-52.17-15.2-71.89-56.95-113.18Z"/>
            <path class="cls-12" d="M543.03,113.9c-1.26,3.37-18.02,51.32,26.99,95.83,41.75,41.29,64.2,61.01,56.95,113.18,0,0,1.79-24.7-9.61-46-15.63-29.18-61.66-43.08-77.65-85.13-12.85-33.78,2.18-74.87,3.32-77.89Z"/>
          </g>
        </g>
        <g>
          <path class="cls-12" d="M680.99,102.73c26.61,33.3,52.93,111.93-35.35,166.96,71.39-107.09,35.35-166.96,35.35-166.96Z"/>
          <path class="cls-12" d="M680.99,102.73s36.05,59.86-35.35,166.96c0,0-12.04-45.19,19.34-95.26,25.68-40.97,16.01-71.7,16.01-71.7Z"/>
        </g>
      </g>
      <g>
        <g class="cls-19">
          <path class="cls-12" d="M597.91,138.33c7.04-3.8,12.79,5.18,19.75,1.91,4.38-2.04,10.26-10.1,13.84-9.56,6.88.95,12.12,5.76,19.1,5.09,16.36-1.57,12.03-23.87,3.41-34.14-4.9-5.84-9.29-9.12-17.48-9.62-6.56-.52-9.87,10.48-9.87,10.48-3.02-7.38-8.74-13.67-15.31-12.87-6.7.81-16.27,6.18-15.28,15.11,0,0-7.04-6.16-12.04-2.25-6.67,5.2,2.45,16.08,2.45,16.08-8.28-5-16.02.39-17.39,10.64-1.43,10.63,4.56,25.1,16.49,20.76,10.54-3.83,9.14-9.9,12.35-11.64h0Z"/>
          <path d="M585.62,155.26c-9.13-.34-16.88-4.88-20.94-13.15-3.29-6.71-4.09-15.83,1.48-21.58,3.6-3.71,9-3.53,13.39-1.5,4.04,1.87,9.35,8.02,5.7,12.36-1.68,2.01-5.66-1.59-6.8-2.72-1.92-1.9-3.27-4.37-4.18-6.89-1.8-5-1.11-10.65,1.23-15.34,2.27-4.58,6.25-7.94,11.4-8.47,4.58-.47,9.17,1.42,12.38,4.63,3.01,3.01,4.52,7.71,2.29,11.63-1.26,2.21-4.44-2.92-4.91-3.76-1.23-2.18-2.1-4.65-2.52-7.12-1.68-9.82,10.41-18.13,19.3-15.91,2.93.73,5.62,2.34,8.16,3.93,2.58,1.61,5,3.38,6.77,5.9,2.95,4.2,2.1,9.88-1.3,13.56-3.33,3.61-5.18-7.66-5.28-9.26-.34-5.37,2.42-10.26,7.53-12.18,4.23-1.59,9.41-.29,13.51,1.13,4.53,1.58,8.69,4.17,12.1,7.55,3.84,3.81,5.76,8.5,6.84,13.7.92,4.42,1.37,9.01.76,13.5-.75,5.58-3.85,10.43-9.43,12.05-4.59,1.33-9.68.76-14.24-.42-1.77-.46-3.52-1.04-5.17-1.81-2.25-1.05-4.33-2.29-6-4.16-1.67-1.87-3.35-5.16-2.11-7.62,1.28-2.53,4.93.69,5.83,1.97,1.2,1.71,1.17,3.84.7,5.78-1.03,4.18-4.51,7.87-7.8,10.45-4.39,3.43-10.92,4.9-16.36,5.26-6.09.41-12.09-1.3-16.26-5.84-1.76-1.92-4.4-7.07-.81-8.74,2.72-1.27,6.29,1.1,8.1,2.91.47.47,2.27-.17,2.24-.87-.1-2.26-.44-4.51-.29-6.78.26-3.83,3.45-6.26,7-4.23,5.19,2.97,4.2,9.87,2.41,14.49-1.8,4.64-4.32,8.87-4.79,13.92-.44,4.63,1.47,10.19,5.78,12.42,3.62,1.87,8.92.41,12.05-1.82,1.54-1.1,2.61-2.62,3.65-4.17.53-.79,1.08-1.68,1.91-2.18,1.04-.64,2.87.29,3.89.67,3.75,1.42,8.4,3.75,10.08,7.62.93,2.13-.28,6.07-2.97,3.88-2.43-1.98-1.44-5.8.92-7.27,3.72-2.32,9.05,2.12,12.55,3.33,3.59,1.24,7.01-.02,8.73-3.43.5-.98-1.88-.47-2.23.21-1.13,2.24-2.42,2.58-4.72,1.87-1.92-.6-3.7-1.62-5.51-2.48-3.41-1.62-6.42-2.18-9.86-.34-3.45,1.84-4.97,6.28-2,9.29,2.28,2.32,6.48.7,7.42-2.13,1.38-4.16-2.13-7.25-5.32-9.27-2.69-1.71-6.97-4.15-10.28-3.42-4.12.91-4.79,5.36-8.03,7.44-2.34,1.5-5.35,1.94-7.99,1.07-2.86-.94-4.44-4.18-5.24-6.85-3.24-10.85,9.9-20.43,4.56-30.91-2.09-4.09-7.02-5.29-10.84-3.01-4.63,2.76-3.44,8.17-3.25,12.67.75-.29,1.49-.58,2.24-.87-2.61-2.61-6.3-4.13-9.96-3.1-3.76,1.05-5.16,4.74-3.67,8.21,1.89,4.42,6.52,7.15,10.94,8.36,5.64,1.54,11.64.89,17.18-.7,7.8-2.24,15.85-7.13,18.58-15.29,1.24-3.72.38-7.42-3.11-9.54-2.63-1.6-6.49-.76-7.9,2.04-1.97,3.92,2.39,8.78,5.36,10.75,2.09,1.38,4.48,2.38,6.87,3.14,4.41,1.39,9.15,2.03,13.76,1.57,4.83-.48,9.69-2.53,12.61-6.54,4.28-5.89,3.75-13.89,2.55-20.68-.89-5.04-2.49-9.52-5.73-13.52-2.91-3.59-6.84-6.24-10.98-8.2-7.3-3.46-16.73-4.91-23.45.52-3.48,2.82-5,7.17-4.72,11.56.2,3.22.68,7.87,3.55,9.9,2.92,2.07,6.28-1.32,7.65-3.6,2.4-4,2.55-8.44.04-12.42-2.74-4.35-8.22-7.29-12.8-9.32-4.22-1.87-8.39-1.69-12.69-.29-7.61,2.49-14.76,9.43-13.3,17.99.67,3.92,2.82,9.27,6.55,11.19,2.97,1.53,5.49-1.52,6.19-4.03,2.36-8.48-6.75-14.8-14.16-15.4-8.85-.72-15.97,5.55-18.63,13.63-1.53,4.65-1.17,9.8.78,14.27,1.66,3.81,5.04,7.88,9.27,8.81,3.68.81,7.07-2.34,6.95-5.99-.13-4.13-4.1-7.82-7.51-9.54-7.52-3.8-16.69-.4-20.17,7.15-2.93,6.37-1.16,14.27,2.2,20.1,4.38,7.6,12.33,11.46,20.92,11.78.75.03,2.7-1.39,1.33-1.44h0Z"/>
        </g>
        <path class="cls-12" d="M568.31,111.48c.24,2.2-1.29,4.18-3.44,4.42-2.14.24-4.07-1.36-4.32-3.56s1.29-4.18,3.44-4.42c2.14-.24,4.07,1.36,4.32,3.56h0Z"/>
        <path class="cls-12" d="M592.73,91.67c.16,1.43-.79,2.71-2.13,2.86-1.33.15-2.54-.89-2.7-2.33s.79-2.71,2.13-2.86c1.33-.15,2.54.89,2.7,2.33h0Z"/>
        <path class="cls-12" d="M627.67,82.82c.2,1.82-1.19,3.46-3.1,3.67s-3.63-1.09-3.83-2.9c-.2-1.82,1.19-3.46,3.1-3.67,1.91-.21,3.63,1.09,3.83,2.9h0Z"/>
        <path class="cls-12" d="M640.73,144.26c.14,1.23-.24,2.46-1.05,3.42s-1.99,1.59-3.27,1.73c-2.67.29-5.06-1.54-5.34-4.09-.28-2.55,1.65-4.86,4.32-5.15,2.67-.29,5.06,1.53,5.34,4.09h0Z"/>
        <path class="cls-12" d="M619.08,152.21c.23,2.09-1.23,3.96-3.26,4.19s-3.86-1.29-4.09-3.37,1.23-3.96,3.26-4.19c2.03-.22,3.86,1.29,4.09,3.37h0Z"/>
        <path class="cls-12" d="M597.46,151.84c.17,1.51-1.01,2.87-2.64,3.05s-3.07-.9-3.24-2.4,1.01-2.88,2.64-3.05c1.62-.18,3.07.9,3.24,2.4h0Z"/>
      </g>
      <g>
        <g>
          <path class="cls-4" d="M655.79,276.54c34.23-43.13,80.7-83.03,46.26-154.61-9.71-20.19-26.36-36.43-47.05-45.03-42.03-17.47-82.95-7.93-110.75,16.3,5.91-20.21,16.83-39.26,32.77-55.2,50.67-50.67,132.83-50.67,183.5,0,.02.02.03.03.05.05,19.89,16.63,37.13,53.47,33.23,78.27-4.58,29.07-1.14,45.55,15.56,63.63,16.71,18.08,18.77,26.09,4.35,29.98-14.42,3.89-15.33,13.27-13.5,16.48,2.39,4.17,6.29,8.58,6.18,13.16-.17,6.76-9.5,3.27-12.59,4.69-1.49.69,5.26.92,8.01,8.7,2.75,7.78-18.31,11.22-14.65,17.17,3.66,5.95,11.67,40.97-20.14,32.5-31.81-8.47-50.62-6.19-69.12,10.99-12.82,11.9-19.99,33.65.16,67.98,0,0-83.69-52.87-42.27-105.06Z"/>
          <g>
            <path class="cls-18" d="M542.05,111.38s-.03.08-.07.2c.05-.13.07-.2.07-.2Z"/>
            <path class="cls-12" d="M570.03,209.73c-45.01-44.52-28.25-92.46-26.99-95.83.04-.12.07-.2.07-.2-.02,33.26,29.36,57.59,57.95,85.37,37.88,36.79,44.28,85.3,25.92,123.84,7.25-52.17-15.2-71.89-56.95-113.18Z"/>
            <path class="cls-12" d="M543.03,113.9c-1.26,3.37-18.02,51.32,26.99,95.83,41.75,41.29,64.2,61.01,56.95,113.18,0,0,1.79-24.7-9.61-46-15.63-29.18-61.66-43.08-77.65-85.13-12.85-33.78,2.18-74.87,3.32-77.89Z"/>
          </g>
        </g>
        <g>
          <path class="cls-12" d="M680.99,102.73c26.61,33.3,52.93,111.93-35.35,166.96,71.39-107.09,35.35-166.96,35.35-166.96Z"/>
          <path class="cls-12" d="M680.99,102.73s36.05,59.86-35.35,166.96c0,0-12.04-45.19,19.34-95.26,25.68-40.97,16.01-71.7,16.01-71.7Z"/>
        </g>
      </g>
      <g>
        <g class="cls-15">
          <path class="cls-12" d="M597.91,138.33c7.04-3.8,12.79,5.18,19.75,1.91,4.38-2.04,10.26-10.1,13.84-9.56,6.88.95,12.12,5.76,19.1,5.09,16.36-1.57,12.03-23.87,3.41-34.14-4.9-5.84-9.29-9.12-17.48-9.62-6.56-.52-9.87,10.48-9.87,10.48-3.02-7.38-8.74-13.67-15.31-12.87-6.7.81-16.27,6.18-15.28,15.11,0,0-7.04-6.16-12.04-2.25-6.67,5.2,2.45,16.08,2.45,16.08-8.28-5-16.02.39-17.39,10.64-1.43,10.63,4.56,25.1,16.49,20.76,10.54-3.83,9.14-9.9,12.35-11.64h0Z"/>
          <path class="cls-4" d="M585.62,155.26c-9.13-.34-16.88-4.88-20.94-13.15-3.29-6.71-4.09-15.83,1.48-21.58,3.6-3.71,9-3.53,13.39-1.5,4.04,1.87,9.35,8.02,5.7,12.36-1.68,2.01-5.66-1.59-6.8-2.72-1.92-1.9-3.27-4.37-4.18-6.89-1.8-5-1.11-10.65,1.23-15.34,2.27-4.58,6.25-7.94,11.4-8.47,4.58-.47,9.17,1.42,12.38,4.63,3.01,3.01,4.52,7.71,2.29,11.63-1.26,2.21-4.44-2.92-4.91-3.76-1.23-2.18-2.1-4.65-2.52-7.12-1.68-9.82,10.41-18.13,19.3-15.91,2.93.73,5.62,2.34,8.16,3.93,2.58,1.61,5,3.38,6.77,5.9,2.95,4.2,2.1,9.88-1.3,13.56-3.33,3.61-5.18-7.66-5.28-9.26-.34-5.37,2.42-10.26,7.53-12.18,4.23-1.59,9.41-.29,13.51,1.13,4.53,1.58,8.69,4.17,12.1,7.55,3.84,3.81,5.76,8.5,6.84,13.7.92,4.42,1.37,9.01.76,13.5-.75,5.58-3.85,10.43-9.43,12.05-4.59,1.33-9.68.76-14.24-.42-1.77-.46-3.52-1.04-5.17-1.81-2.25-1.05-4.33-2.29-6-4.16-1.67-1.87-3.35-5.16-2.11-7.62,1.28-2.53,4.93.69,5.83,1.97,1.2,1.71,1.17,3.84.7,5.78-1.03,4.18-4.51,7.87-7.8,10.45-4.39,3.43-10.92,4.9-16.36,5.26-6.09.41-12.09-1.3-16.26-5.84-1.76-1.92-4.4-7.07-.81-8.74,2.72-1.27,6.29,1.1,8.1,2.91.47.47,2.27-.17,2.24-.87-.1-2.26-.44-4.51-.29-6.78.26-3.83,3.45-6.26,7-4.23,5.19,2.97,4.2,9.87,2.41,14.49-1.8,4.64-4.32,8.87-4.79,13.92-.44,4.63,1.47,10.19,5.78,12.42,3.62,1.87,8.92.41,12.05-1.82,1.54-1.1,2.61-2.62,3.65-4.17.53-.79,1.08-1.68,1.91-2.18,1.04-.64,2.87.29,3.89.67,3.75,1.42,8.4,3.75,10.08,7.62.93,2.13-.28,6.07-2.97,3.88-2.43-1.98-1.44-5.8.92-7.27,3.72-2.32,9.05,2.12,12.55,3.33,3.59,1.24,7.01-.02,8.73-3.43.5-.98-1.88-.47-2.23.21-1.13,2.24-2.42,2.58-4.72,1.87-1.92-.6-3.7-1.62-5.51-2.48-3.41-1.62-6.42-2.18-9.86-.34-3.45,1.84-4.97,6.28-2,9.29,2.28,2.32,6.48.7,7.42-2.13,1.38-4.16-2.13-7.25-5.32-9.27-2.69-1.71-6.97-4.15-10.28-3.42-4.12.91-4.79,5.36-8.03,7.44-2.34,1.5-5.35,1.94-7.99,1.07-2.86-.94-4.44-4.18-5.24-6.85-3.24-10.85,9.9-20.43,4.56-30.91-2.09-4.09-7.02-5.29-10.84-3.01-4.63,2.76-3.44,8.17-3.25,12.67.75-.29,1.49-.58,2.24-.87-2.61-2.61-6.3-4.13-9.96-3.1-3.76,1.05-5.16,4.74-3.67,8.21,1.89,4.42,6.52,7.15,10.94,8.36,5.64,1.54,11.64.89,17.18-.7,7.8-2.24,15.85-7.13,18.58-15.29,1.24-3.72.38-7.42-3.11-9.54-2.63-1.6-6.49-.76-7.9,2.04-1.97,3.92,2.39,8.78,5.36,10.75,2.09,1.38,4.48,2.38,6.87,3.14,4.41,1.39,9.15,2.03,13.76,1.57,4.83-.48,9.69-2.53,12.61-6.54,4.28-5.89,3.75-13.89,2.55-20.68-.89-5.04-2.49-9.52-5.73-13.52-2.91-3.59-6.84-6.24-10.98-8.2-7.3-3.46-16.73-4.91-23.45.52-3.48,2.82-5,7.17-4.72,11.56.2,3.22.68,7.87,3.55,9.9,2.92,2.07,6.28-1.32,7.65-3.6,2.4-4,2.55-8.44.04-12.42-2.74-4.35-8.22-7.29-12.8-9.32-4.22-1.87-8.39-1.69-12.69-.29-7.61,2.49-14.76,9.43-13.3,17.99.67,3.92,2.82,9.27,6.55,11.19,2.97,1.53,5.49-1.52,6.19-4.03,2.36-8.48-6.75-14.8-14.16-15.4-8.85-.72-15.97,5.55-18.63,13.63-1.53,4.65-1.17,9.8.78,14.27,1.66,3.81,5.04,7.88,9.27,8.81,3.68.81,7.07-2.34,6.95-5.99-.13-4.13-4.1-7.82-7.51-9.54-7.52-3.8-16.69-.4-20.17,7.15-2.93,6.37-1.16,14.27,2.2,20.1,4.38,7.6,12.33,11.46,20.92,11.78.75.03,2.7-1.39,1.33-1.44h0Z"/>
        </g>
        <path class="cls-12" d="M568.31,111.48c.24,2.2-1.29,4.18-3.44,4.42-2.14.24-4.07-1.36-4.32-3.56s1.29-4.18,3.44-4.42c2.14-.24,4.07,1.36,4.32,3.56h0Z"/>
        <path class="cls-12" d="M592.73,91.67c.16,1.43-.79,2.71-2.13,2.86-1.33.15-2.54-.89-2.7-2.33s.79-2.71,2.13-2.86c1.33-.15,2.54.89,2.7,2.33h0Z"/>
        <path class="cls-12" d="M627.67,82.82c.2,1.82-1.19,3.46-3.1,3.67s-3.63-1.09-3.83-2.9c-.2-1.82,1.19-3.46,3.1-3.67,1.91-.21,3.63,1.09,3.83,2.9h0Z"/>
        <path class="cls-12" d="M640.73,144.26c.14,1.23-.24,2.46-1.05,3.42s-1.99,1.59-3.27,1.73c-2.67.29-5.06-1.54-5.34-4.09-.28-2.55,1.65-4.86,4.32-5.15,2.67-.29,5.06,1.53,5.34,4.09h0Z"/>
        <path class="cls-12" d="M619.08,152.21c.23,2.09-1.23,3.96-3.26,4.19s-3.86-1.29-4.09-3.37,1.23-3.96,3.26-4.19c2.03-.22,3.86,1.29,4.09,3.37h0Z"/>
        <path class="cls-12" d="M597.46,151.84c.17,1.51-1.01,2.87-2.64,3.05s-3.07-.9-3.24-2.4,1.01-2.88,2.64-3.05c1.62-.18,3.07.9,3.24,2.4h0Z"/>
      </g>
    </g>
    <text class="cls-1" transform="translate(159.69 569.92)"><tspan x="0" y="0">Psychological Assessment &amp; Counselling centre</tspan></text>
  </g>
</svg>